%TF.GenerationSoftware,KiCad,Pcbnew,(7.0.0)*%
%TF.CreationDate,2023-05-31T19:24:38-06:00*%
%TF.ProjectId,STM32 LED Shield,53544d33-3220-44c4-9544-20536869656c,rev?*%
%TF.SameCoordinates,Original*%
%TF.FileFunction,Soldermask,Top*%
%TF.FilePolarity,Negative*%
%FSLAX46Y46*%
G04 Gerber Fmt 4.6, Leading zero omitted, Abs format (unit mm)*
G04 Created by KiCad (PCBNEW (7.0.0)) date 2023-05-31 19:24:38*
%MOMM*%
%LPD*%
G01*
G04 APERTURE LIST*
G04 Aperture macros list*
%AMRoundRect*
0 Rectangle with rounded corners*
0 $1 Rounding radius*
0 $2 $3 $4 $5 $6 $7 $8 $9 X,Y pos of 4 corners*
0 Add a 4 corners polygon primitive as box body*
4,1,4,$2,$3,$4,$5,$6,$7,$8,$9,$2,$3,0*
0 Add four circle primitives for the rounded corners*
1,1,$1+$1,$2,$3*
1,1,$1+$1,$4,$5*
1,1,$1+$1,$6,$7*
1,1,$1+$1,$8,$9*
0 Add four rect primitives between the rounded corners*
20,1,$1+$1,$2,$3,$4,$5,0*
20,1,$1+$1,$4,$5,$6,$7,0*
20,1,$1+$1,$6,$7,$8,$9,0*
20,1,$1+$1,$8,$9,$2,$3,0*%
G04 Aperture macros list end*
%ADD10C,2.000000*%
%ADD11R,1.500000X2.000000*%
%ADD12RoundRect,0.100000X-0.100000X0.130000X-0.100000X-0.130000X0.100000X-0.130000X0.100000X0.130000X0*%
%ADD13RoundRect,0.250000X-0.250000X-0.750000X0.250000X-0.750000X0.250000X0.750000X-0.250000X0.750000X0*%
%ADD14R,1.700000X1.700000*%
%ADD15O,1.700000X1.700000*%
%ADD16R,2.600000X2.600000*%
%ADD17C,2.600000*%
G04 APERTURE END LIST*
D10*
%TO.C,S1*%
X148873600Y-91033600D03*
X139873600Y-91033600D03*
D11*
X146873599Y-83883599D03*
X146873599Y-98183599D03*
X141873599Y-83883599D03*
X141873599Y-98183599D03*
%TD*%
D12*
%TO.C,R1*%
X144678400Y-109900800D03*
X144678400Y-110540800D03*
%TD*%
D13*
%TO.C,J6*%
X114577200Y-121158000D03*
%TD*%
D14*
%TO.C,J2*%
X130759199Y-59131199D03*
D15*
X128219199Y-59131199D03*
X130759199Y-61671199D03*
X128219199Y-61671199D03*
X130759199Y-64211199D03*
X128219199Y-64211199D03*
X130759199Y-66751199D03*
X128219199Y-66751199D03*
X130759199Y-69291199D03*
X128219199Y-69291199D03*
X130759199Y-71831199D03*
X128219199Y-71831199D03*
X130759199Y-74371199D03*
X128219199Y-74371199D03*
X130759199Y-76911199D03*
X128219199Y-76911199D03*
X130759199Y-79451199D03*
X128219199Y-79451199D03*
X130759199Y-81991199D03*
X128219199Y-81991199D03*
X130759199Y-84531199D03*
X128219199Y-84531199D03*
X130759199Y-87071199D03*
X128219199Y-87071199D03*
X130759199Y-89611199D03*
X128219199Y-89611199D03*
X130759199Y-92151199D03*
X128219199Y-92151199D03*
X130759199Y-94691199D03*
X128219199Y-94691199D03*
X130759199Y-97231199D03*
X128219199Y-97231199D03*
X130759199Y-99771199D03*
X128219199Y-99771199D03*
X130759199Y-102311199D03*
X128219199Y-102311199D03*
X130759199Y-104851199D03*
X128219199Y-104851199D03*
X130759199Y-107391199D03*
X128219199Y-107391199D03*
X130759199Y-109931199D03*
X128219199Y-109931199D03*
X130759199Y-112471199D03*
X128219199Y-112471199D03*
X130759199Y-115011199D03*
X128219199Y-115011199D03*
X130759199Y-117551199D03*
X128219199Y-117551199D03*
X130759199Y-120091199D03*
X128219199Y-120091199D03*
%TD*%
D14*
%TO.C,J1*%
X77825599Y-59232799D03*
D15*
X75285599Y-59232799D03*
X77825599Y-61772799D03*
X75285599Y-61772799D03*
X77825599Y-64312799D03*
X75285599Y-64312799D03*
X77825599Y-66852799D03*
X75285599Y-66852799D03*
X77825599Y-69392799D03*
X75285599Y-69392799D03*
X77825599Y-71932799D03*
X75285599Y-71932799D03*
X77825599Y-74472799D03*
X75285599Y-74472799D03*
X77825599Y-77012799D03*
X75285599Y-77012799D03*
X77825599Y-79552799D03*
X75285599Y-79552799D03*
X77825599Y-82092799D03*
X75285599Y-82092799D03*
X77825599Y-84632799D03*
X75285599Y-84632799D03*
X77825599Y-87172799D03*
X75285599Y-87172799D03*
X77825599Y-89712799D03*
X75285599Y-89712799D03*
X77825599Y-92252799D03*
X75285599Y-92252799D03*
X77825599Y-94792799D03*
X75285599Y-94792799D03*
X77825599Y-97332799D03*
X75285599Y-97332799D03*
X77825599Y-99872799D03*
X75285599Y-99872799D03*
X77825599Y-102412799D03*
X75285599Y-102412799D03*
X77825599Y-104952799D03*
X75285599Y-104952799D03*
X77825599Y-107492799D03*
X75285599Y-107492799D03*
X77825599Y-110032799D03*
X75285599Y-110032799D03*
X77825599Y-112572799D03*
X75285599Y-112572799D03*
X77825599Y-115112799D03*
X75285599Y-115112799D03*
X77825599Y-117652799D03*
X75285599Y-117652799D03*
X77825599Y-120192799D03*
X75285599Y-120192799D03*
%TD*%
D13*
%TO.C,J5*%
X112217200Y-121158000D03*
%TD*%
D16*
%TO.C,J3*%
X145987199Y-64518399D03*
D17*
X145987200Y-58518400D03*
X141287200Y-61518400D03*
%TD*%
D14*
%TO.C,J4*%
X98755199Y-121005599D03*
D15*
X96215199Y-121005599D03*
X93675199Y-121005599D03*
%TD*%
M02*
