M48
; DRILL file {KiCad (7.0.0)} date Wed May 31 19:24:40 2023
; FORMAT={-:-/ absolute / metric / decimal}
; #@! TF.CreationDate,2023-05-31T19:24:40-06:00
; #@! TF.GenerationSoftware,Kicad,Pcbnew,(7.0.0)
; #@! TF.FileFunction,Plated,1,2,PTH
FMAT,2
METRIC
; #@! TA.AperFunction,Plated,PTH,ViaDrill
T1C0.400
; #@! TA.AperFunction,Plated,PTH,ComponentDrill
T2C1.000
; #@! TA.AperFunction,Plated,PTH,ComponentDrill
T3C1.600
%
G90
G05
T1
X81.737Y-116.027
X94.539Y-118.059
X94.742Y-111.049
X98.806Y-118.059
X135.23Y-68.174
X136.703Y-115.316
X139.751Y-73.406
X140.767Y-110.134
T2
X75.286Y-59.233
X75.286Y-61.773
X75.286Y-64.313
X75.286Y-66.853
X75.286Y-69.393
X75.286Y-71.933
X75.286Y-74.473
X75.286Y-77.013
X75.286Y-79.553
X75.286Y-82.093
X75.286Y-84.633
X75.286Y-87.173
X75.286Y-89.713
X75.286Y-92.253
X75.286Y-94.793
X75.286Y-97.333
X75.286Y-99.873
X75.286Y-102.413
X75.286Y-104.953
X75.286Y-107.493
X75.286Y-110.033
X75.286Y-112.573
X75.286Y-115.113
X75.286Y-117.653
X75.286Y-120.193
X77.826Y-59.233
X77.826Y-61.773
X77.826Y-64.313
X77.826Y-66.853
X77.826Y-69.393
X77.826Y-71.933
X77.826Y-74.473
X77.826Y-77.013
X77.826Y-79.553
X77.826Y-82.093
X77.826Y-84.633
X77.826Y-87.173
X77.826Y-89.713
X77.826Y-92.253
X77.826Y-94.793
X77.826Y-97.333
X77.826Y-99.873
X77.826Y-102.413
X77.826Y-104.953
X77.826Y-107.493
X77.826Y-110.033
X77.826Y-112.573
X77.826Y-115.113
X77.826Y-117.653
X77.826Y-120.193
X93.675Y-121.006
X96.215Y-121.006
X98.755Y-121.006
X128.219Y-59.131
X128.219Y-61.671
X128.219Y-64.211
X128.219Y-66.751
X128.219Y-69.291
X128.219Y-71.831
X128.219Y-74.371
X128.219Y-76.911
X128.219Y-79.451
X128.219Y-81.991
X128.219Y-84.531
X128.219Y-87.071
X128.219Y-89.611
X128.219Y-92.151
X128.219Y-94.691
X128.219Y-97.231
X128.219Y-99.771
X128.219Y-102.311
X128.219Y-104.851
X128.219Y-107.391
X128.219Y-109.931
X128.219Y-112.471
X128.219Y-115.011
X128.219Y-117.551
X128.219Y-120.091
X130.759Y-59.131
X130.759Y-61.671
X130.759Y-64.211
X130.759Y-66.751
X130.759Y-69.291
X130.759Y-71.831
X130.759Y-74.371
X130.759Y-76.911
X130.759Y-79.451
X130.759Y-81.991
X130.759Y-84.531
X130.759Y-87.071
X130.759Y-89.611
X130.759Y-92.151
X130.759Y-94.691
X130.759Y-97.231
X130.759Y-99.771
X130.759Y-102.311
X130.759Y-104.851
X130.759Y-107.391
X130.759Y-109.931
X130.759Y-112.471
X130.759Y-115.011
X130.759Y-117.551
X130.759Y-120.091
T3
X141.287Y-61.518
X145.987Y-58.518
X145.987Y-64.518
T0
M30
