%TF.GenerationSoftware,KiCad,Pcbnew,(7.0.0)*%
%TF.CreationDate,2023-04-20T13:43:01-06:00*%
%TF.ProjectId,Phase_B_ATMEGA_v3,50686173-655f-4425-9f41-544d4547415f,rev?*%
%TF.SameCoordinates,Original*%
%TF.FileFunction,Legend,Top*%
%TF.FilePolarity,Positive*%
%FSLAX46Y46*%
G04 Gerber Fmt 4.6, Leading zero omitted, Abs format (unit mm)*
G04 Created by KiCad (PCBNEW (7.0.0)) date 2023-04-20 13:43:01*
%MOMM*%
%LPD*%
G01*
G04 APERTURE LIST*
%ADD10C,0.150000*%
%ADD11C,0.254000*%
%ADD12C,0.120000*%
%ADD13C,0.100000*%
%ADD14C,0.200000*%
%ADD15C,0.127000*%
G04 APERTURE END LIST*
D10*
X166061980Y-89068304D02*
X165061980Y-89068304D01*
X166061980Y-88496876D02*
X165490552Y-88925447D01*
X165061980Y-88496876D02*
X165633409Y-89068304D01*
X166014361Y-87687352D02*
X166061980Y-87782590D01*
X166061980Y-87782590D02*
X166061980Y-87973066D01*
X166061980Y-87973066D02*
X166014361Y-88068304D01*
X166014361Y-88068304D02*
X165919123Y-88115923D01*
X165919123Y-88115923D02*
X165538171Y-88115923D01*
X165538171Y-88115923D02*
X165442933Y-88068304D01*
X165442933Y-88068304D02*
X165395314Y-87973066D01*
X165395314Y-87973066D02*
X165395314Y-87782590D01*
X165395314Y-87782590D02*
X165442933Y-87687352D01*
X165442933Y-87687352D02*
X165538171Y-87639733D01*
X165538171Y-87639733D02*
X165633409Y-87639733D01*
X165633409Y-87639733D02*
X165728647Y-88115923D01*
X165395314Y-87306399D02*
X166061980Y-87068304D01*
X166061980Y-87068304D02*
X165395314Y-86830209D01*
X166061980Y-86449256D02*
X165395314Y-86449256D01*
X165061980Y-86449256D02*
X165109600Y-86496875D01*
X165109600Y-86496875D02*
X165157219Y-86449256D01*
X165157219Y-86449256D02*
X165109600Y-86401637D01*
X165109600Y-86401637D02*
X165061980Y-86449256D01*
X165061980Y-86449256D02*
X165157219Y-86449256D01*
X165395314Y-85973066D02*
X166061980Y-85973066D01*
X165490552Y-85973066D02*
X165442933Y-85925447D01*
X165442933Y-85925447D02*
X165395314Y-85830209D01*
X165395314Y-85830209D02*
X165395314Y-85687352D01*
X165395314Y-85687352D02*
X165442933Y-85592114D01*
X165442933Y-85592114D02*
X165538171Y-85544495D01*
X165538171Y-85544495D02*
X166061980Y-85544495D01*
X165538171Y-84134971D02*
X165538171Y-84468304D01*
X166061980Y-84468304D02*
X165061980Y-84468304D01*
X165061980Y-84468304D02*
X165061980Y-83992114D01*
X165395314Y-83182590D02*
X166061980Y-83182590D01*
X165395314Y-83611161D02*
X165919123Y-83611161D01*
X165919123Y-83611161D02*
X166014361Y-83563542D01*
X166014361Y-83563542D02*
X166061980Y-83468304D01*
X166061980Y-83468304D02*
X166061980Y-83325447D01*
X166061980Y-83325447D02*
X166014361Y-83230209D01*
X166014361Y-83230209D02*
X165966742Y-83182590D01*
X166014361Y-82325447D02*
X166061980Y-82420685D01*
X166061980Y-82420685D02*
X166061980Y-82611161D01*
X166061980Y-82611161D02*
X166014361Y-82706399D01*
X166014361Y-82706399D02*
X165919123Y-82754018D01*
X165919123Y-82754018D02*
X165538171Y-82754018D01*
X165538171Y-82754018D02*
X165442933Y-82706399D01*
X165442933Y-82706399D02*
X165395314Y-82611161D01*
X165395314Y-82611161D02*
X165395314Y-82420685D01*
X165395314Y-82420685D02*
X165442933Y-82325447D01*
X165442933Y-82325447D02*
X165538171Y-82277828D01*
X165538171Y-82277828D02*
X165633409Y-82277828D01*
X165633409Y-82277828D02*
X165728647Y-82754018D01*
X165395314Y-81849256D02*
X166061980Y-81849256D01*
X165490552Y-81849256D02*
X165442933Y-81801637D01*
X165442933Y-81801637D02*
X165395314Y-81706399D01*
X165395314Y-81706399D02*
X165395314Y-81563542D01*
X165395314Y-81563542D02*
X165442933Y-81468304D01*
X165442933Y-81468304D02*
X165538171Y-81420685D01*
X165538171Y-81420685D02*
X166061980Y-81420685D01*
X165395314Y-81087351D02*
X165395314Y-80706399D01*
X165061980Y-80944494D02*
X165919123Y-80944494D01*
X165919123Y-80944494D02*
X166014361Y-80896875D01*
X166014361Y-80896875D02*
X166061980Y-80801637D01*
X166061980Y-80801637D02*
X166061980Y-80706399D01*
X166014361Y-79992113D02*
X166061980Y-80087351D01*
X166061980Y-80087351D02*
X166061980Y-80277827D01*
X166061980Y-80277827D02*
X166014361Y-80373065D01*
X166014361Y-80373065D02*
X165919123Y-80420684D01*
X165919123Y-80420684D02*
X165538171Y-80420684D01*
X165538171Y-80420684D02*
X165442933Y-80373065D01*
X165442933Y-80373065D02*
X165395314Y-80277827D01*
X165395314Y-80277827D02*
X165395314Y-80087351D01*
X165395314Y-80087351D02*
X165442933Y-79992113D01*
X165442933Y-79992113D02*
X165538171Y-79944494D01*
X165538171Y-79944494D02*
X165633409Y-79944494D01*
X165633409Y-79944494D02*
X165728647Y-80420684D01*
X166014361Y-79563541D02*
X166061980Y-79468303D01*
X166061980Y-79468303D02*
X166061980Y-79277827D01*
X166061980Y-79277827D02*
X166014361Y-79182589D01*
X166014361Y-79182589D02*
X165919123Y-79134970D01*
X165919123Y-79134970D02*
X165871504Y-79134970D01*
X165871504Y-79134970D02*
X165776266Y-79182589D01*
X165776266Y-79182589D02*
X165728647Y-79277827D01*
X165728647Y-79277827D02*
X165728647Y-79420684D01*
X165728647Y-79420684D02*
X165681028Y-79515922D01*
X165681028Y-79515922D02*
X165585790Y-79563541D01*
X165585790Y-79563541D02*
X165538171Y-79563541D01*
X165538171Y-79563541D02*
X165442933Y-79515922D01*
X165442933Y-79515922D02*
X165395314Y-79420684D01*
X165395314Y-79420684D02*
X165395314Y-79277827D01*
X165395314Y-79277827D02*
X165442933Y-79182589D01*
X167015314Y-88639733D02*
X167681980Y-88639733D01*
X166634361Y-88877828D02*
X167348647Y-89115923D01*
X167348647Y-89115923D02*
X167348647Y-88496876D01*
X166634361Y-87401638D02*
X167920076Y-88258780D01*
X166777219Y-87115923D02*
X166729600Y-87068304D01*
X166729600Y-87068304D02*
X166681980Y-86973066D01*
X166681980Y-86973066D02*
X166681980Y-86734971D01*
X166681980Y-86734971D02*
X166729600Y-86639733D01*
X166729600Y-86639733D02*
X166777219Y-86592114D01*
X166777219Y-86592114D02*
X166872457Y-86544495D01*
X166872457Y-86544495D02*
X166967695Y-86544495D01*
X166967695Y-86544495D02*
X167110552Y-86592114D01*
X167110552Y-86592114D02*
X167681980Y-87163542D01*
X167681980Y-87163542D02*
X167681980Y-86544495D01*
X166681980Y-85925447D02*
X166681980Y-85830209D01*
X166681980Y-85830209D02*
X166729600Y-85734971D01*
X166729600Y-85734971D02*
X166777219Y-85687352D01*
X166777219Y-85687352D02*
X166872457Y-85639733D01*
X166872457Y-85639733D02*
X167062933Y-85592114D01*
X167062933Y-85592114D02*
X167301028Y-85592114D01*
X167301028Y-85592114D02*
X167491504Y-85639733D01*
X167491504Y-85639733D02*
X167586742Y-85687352D01*
X167586742Y-85687352D02*
X167634361Y-85734971D01*
X167634361Y-85734971D02*
X167681980Y-85830209D01*
X167681980Y-85830209D02*
X167681980Y-85925447D01*
X167681980Y-85925447D02*
X167634361Y-86020685D01*
X167634361Y-86020685D02*
X167586742Y-86068304D01*
X167586742Y-86068304D02*
X167491504Y-86115923D01*
X167491504Y-86115923D02*
X167301028Y-86163542D01*
X167301028Y-86163542D02*
X167062933Y-86163542D01*
X167062933Y-86163542D02*
X166872457Y-86115923D01*
X166872457Y-86115923D02*
X166777219Y-86068304D01*
X166777219Y-86068304D02*
X166729600Y-86020685D01*
X166729600Y-86020685D02*
X166681980Y-85925447D01*
X166634361Y-84449257D02*
X167920076Y-85306399D01*
X166777219Y-84163542D02*
X166729600Y-84115923D01*
X166729600Y-84115923D02*
X166681980Y-84020685D01*
X166681980Y-84020685D02*
X166681980Y-83782590D01*
X166681980Y-83782590D02*
X166729600Y-83687352D01*
X166729600Y-83687352D02*
X166777219Y-83639733D01*
X166777219Y-83639733D02*
X166872457Y-83592114D01*
X166872457Y-83592114D02*
X166967695Y-83592114D01*
X166967695Y-83592114D02*
X167110552Y-83639733D01*
X167110552Y-83639733D02*
X167681980Y-84211161D01*
X167681980Y-84211161D02*
X167681980Y-83592114D01*
X166681980Y-82973066D02*
X166681980Y-82877828D01*
X166681980Y-82877828D02*
X166729600Y-82782590D01*
X166729600Y-82782590D02*
X166777219Y-82734971D01*
X166777219Y-82734971D02*
X166872457Y-82687352D01*
X166872457Y-82687352D02*
X167062933Y-82639733D01*
X167062933Y-82639733D02*
X167301028Y-82639733D01*
X167301028Y-82639733D02*
X167491504Y-82687352D01*
X167491504Y-82687352D02*
X167586742Y-82734971D01*
X167586742Y-82734971D02*
X167634361Y-82782590D01*
X167634361Y-82782590D02*
X167681980Y-82877828D01*
X167681980Y-82877828D02*
X167681980Y-82973066D01*
X167681980Y-82973066D02*
X167634361Y-83068304D01*
X167634361Y-83068304D02*
X167586742Y-83115923D01*
X167586742Y-83115923D02*
X167491504Y-83163542D01*
X167491504Y-83163542D02*
X167301028Y-83211161D01*
X167301028Y-83211161D02*
X167062933Y-83211161D01*
X167062933Y-83211161D02*
X166872457Y-83163542D01*
X166872457Y-83163542D02*
X166777219Y-83115923D01*
X166777219Y-83115923D02*
X166729600Y-83068304D01*
X166729600Y-83068304D02*
X166681980Y-82973066D01*
X166777219Y-82258780D02*
X166729600Y-82211161D01*
X166729600Y-82211161D02*
X166681980Y-82115923D01*
X166681980Y-82115923D02*
X166681980Y-81877828D01*
X166681980Y-81877828D02*
X166729600Y-81782590D01*
X166729600Y-81782590D02*
X166777219Y-81734971D01*
X166777219Y-81734971D02*
X166872457Y-81687352D01*
X166872457Y-81687352D02*
X166967695Y-81687352D01*
X166967695Y-81687352D02*
X167110552Y-81734971D01*
X167110552Y-81734971D02*
X167681980Y-82306399D01*
X167681980Y-82306399D02*
X167681980Y-81687352D01*
X166681980Y-81354018D02*
X166681980Y-80734971D01*
X166681980Y-80734971D02*
X167062933Y-81068304D01*
X167062933Y-81068304D02*
X167062933Y-80925447D01*
X167062933Y-80925447D02*
X167110552Y-80830209D01*
X167110552Y-80830209D02*
X167158171Y-80782590D01*
X167158171Y-80782590D02*
X167253409Y-80734971D01*
X167253409Y-80734971D02*
X167491504Y-80734971D01*
X167491504Y-80734971D02*
X167586742Y-80782590D01*
X167586742Y-80782590D02*
X167634361Y-80830209D01*
X167634361Y-80830209D02*
X167681980Y-80925447D01*
X167681980Y-80925447D02*
X167681980Y-81211161D01*
X167681980Y-81211161D02*
X167634361Y-81306399D01*
X167634361Y-81306399D02*
X167586742Y-81354018D01*
X168301980Y-89211161D02*
X169301980Y-88877828D01*
X169301980Y-88877828D02*
X168301980Y-88544495D01*
X169254361Y-87830209D02*
X169301980Y-87925447D01*
X169301980Y-87925447D02*
X169301980Y-88115923D01*
X169301980Y-88115923D02*
X169254361Y-88211161D01*
X169254361Y-88211161D02*
X169159123Y-88258780D01*
X169159123Y-88258780D02*
X168778171Y-88258780D01*
X168778171Y-88258780D02*
X168682933Y-88211161D01*
X168682933Y-88211161D02*
X168635314Y-88115923D01*
X168635314Y-88115923D02*
X168635314Y-87925447D01*
X168635314Y-87925447D02*
X168682933Y-87830209D01*
X168682933Y-87830209D02*
X168778171Y-87782590D01*
X168778171Y-87782590D02*
X168873409Y-87782590D01*
X168873409Y-87782590D02*
X168968647Y-88258780D01*
X169301980Y-87354018D02*
X168635314Y-87354018D01*
X168825790Y-87354018D02*
X168730552Y-87306399D01*
X168730552Y-87306399D02*
X168682933Y-87258780D01*
X168682933Y-87258780D02*
X168635314Y-87163542D01*
X168635314Y-87163542D02*
X168635314Y-87068304D01*
X169301980Y-85611161D02*
X169301980Y-86182589D01*
X169301980Y-85896875D02*
X168301980Y-85896875D01*
X168301980Y-85896875D02*
X168444838Y-85992113D01*
X168444838Y-85992113D02*
X168540076Y-86087351D01*
X168540076Y-86087351D02*
X168587695Y-86182589D01*
X169206742Y-85182589D02*
X169254361Y-85134970D01*
X169254361Y-85134970D02*
X169301980Y-85182589D01*
X169301980Y-85182589D02*
X169254361Y-85230208D01*
X169254361Y-85230208D02*
X169206742Y-85182589D01*
X169206742Y-85182589D02*
X169301980Y-85182589D01*
X168301980Y-84515923D02*
X168301980Y-84420685D01*
X168301980Y-84420685D02*
X168349600Y-84325447D01*
X168349600Y-84325447D02*
X168397219Y-84277828D01*
X168397219Y-84277828D02*
X168492457Y-84230209D01*
X168492457Y-84230209D02*
X168682933Y-84182590D01*
X168682933Y-84182590D02*
X168921028Y-84182590D01*
X168921028Y-84182590D02*
X169111504Y-84230209D01*
X169111504Y-84230209D02*
X169206742Y-84277828D01*
X169206742Y-84277828D02*
X169254361Y-84325447D01*
X169254361Y-84325447D02*
X169301980Y-84420685D01*
X169301980Y-84420685D02*
X169301980Y-84515923D01*
X169301980Y-84515923D02*
X169254361Y-84611161D01*
X169254361Y-84611161D02*
X169206742Y-84658780D01*
X169206742Y-84658780D02*
X169111504Y-84706399D01*
X169111504Y-84706399D02*
X168921028Y-84754018D01*
X168921028Y-84754018D02*
X168682933Y-84754018D01*
X168682933Y-84754018D02*
X168492457Y-84706399D01*
X168492457Y-84706399D02*
X168397219Y-84658780D01*
X168397219Y-84658780D02*
X168349600Y-84611161D01*
X168349600Y-84611161D02*
X168301980Y-84515923D01*
X139208543Y-102036580D02*
X139399019Y-102036580D01*
X139399019Y-102036580D02*
X139494257Y-101988961D01*
X139494257Y-101988961D02*
X139541876Y-101941342D01*
X139541876Y-101941342D02*
X139637114Y-101798485D01*
X139637114Y-101798485D02*
X139684733Y-101608009D01*
X139684733Y-101608009D02*
X139684733Y-101227057D01*
X139684733Y-101227057D02*
X139637114Y-101131819D01*
X139637114Y-101131819D02*
X139589495Y-101084200D01*
X139589495Y-101084200D02*
X139494257Y-101036580D01*
X139494257Y-101036580D02*
X139303781Y-101036580D01*
X139303781Y-101036580D02*
X139208543Y-101084200D01*
X139208543Y-101084200D02*
X139160924Y-101131819D01*
X139160924Y-101131819D02*
X139113305Y-101227057D01*
X139113305Y-101227057D02*
X139113305Y-101465152D01*
X139113305Y-101465152D02*
X139160924Y-101560390D01*
X139160924Y-101560390D02*
X139208543Y-101608009D01*
X139208543Y-101608009D02*
X139303781Y-101655628D01*
X139303781Y-101655628D02*
X139494257Y-101655628D01*
X139494257Y-101655628D02*
X139589495Y-101608009D01*
X139589495Y-101608009D02*
X139637114Y-101560390D01*
X139637114Y-101560390D02*
X139684733Y-101465152D01*
X140160924Y-102036580D02*
X140351400Y-102036580D01*
X140351400Y-102036580D02*
X140446638Y-101988961D01*
X140446638Y-101988961D02*
X140494257Y-101941342D01*
X140494257Y-101941342D02*
X140589495Y-101798485D01*
X140589495Y-101798485D02*
X140637114Y-101608009D01*
X140637114Y-101608009D02*
X140637114Y-101227057D01*
X140637114Y-101227057D02*
X140589495Y-101131819D01*
X140589495Y-101131819D02*
X140541876Y-101084200D01*
X140541876Y-101084200D02*
X140446638Y-101036580D01*
X140446638Y-101036580D02*
X140256162Y-101036580D01*
X140256162Y-101036580D02*
X140160924Y-101084200D01*
X140160924Y-101084200D02*
X140113305Y-101131819D01*
X140113305Y-101131819D02*
X140065686Y-101227057D01*
X140065686Y-101227057D02*
X140065686Y-101465152D01*
X140065686Y-101465152D02*
X140113305Y-101560390D01*
X140113305Y-101560390D02*
X140160924Y-101608009D01*
X140160924Y-101608009D02*
X140256162Y-101655628D01*
X140256162Y-101655628D02*
X140446638Y-101655628D01*
X140446638Y-101655628D02*
X140541876Y-101608009D01*
X140541876Y-101608009D02*
X140589495Y-101560390D01*
X140589495Y-101560390D02*
X140637114Y-101465152D01*
X141065686Y-101941342D02*
X141113305Y-101988961D01*
X141113305Y-101988961D02*
X141065686Y-102036580D01*
X141065686Y-102036580D02*
X141018067Y-101988961D01*
X141018067Y-101988961D02*
X141065686Y-101941342D01*
X141065686Y-101941342D02*
X141065686Y-102036580D01*
X141684733Y-101465152D02*
X141589495Y-101417533D01*
X141589495Y-101417533D02*
X141541876Y-101369914D01*
X141541876Y-101369914D02*
X141494257Y-101274676D01*
X141494257Y-101274676D02*
X141494257Y-101227057D01*
X141494257Y-101227057D02*
X141541876Y-101131819D01*
X141541876Y-101131819D02*
X141589495Y-101084200D01*
X141589495Y-101084200D02*
X141684733Y-101036580D01*
X141684733Y-101036580D02*
X141875209Y-101036580D01*
X141875209Y-101036580D02*
X141970447Y-101084200D01*
X141970447Y-101084200D02*
X142018066Y-101131819D01*
X142018066Y-101131819D02*
X142065685Y-101227057D01*
X142065685Y-101227057D02*
X142065685Y-101274676D01*
X142065685Y-101274676D02*
X142018066Y-101369914D01*
X142018066Y-101369914D02*
X141970447Y-101417533D01*
X141970447Y-101417533D02*
X141875209Y-101465152D01*
X141875209Y-101465152D02*
X141684733Y-101465152D01*
X141684733Y-101465152D02*
X141589495Y-101512771D01*
X141589495Y-101512771D02*
X141541876Y-101560390D01*
X141541876Y-101560390D02*
X141494257Y-101655628D01*
X141494257Y-101655628D02*
X141494257Y-101846104D01*
X141494257Y-101846104D02*
X141541876Y-101941342D01*
X141541876Y-101941342D02*
X141589495Y-101988961D01*
X141589495Y-101988961D02*
X141684733Y-102036580D01*
X141684733Y-102036580D02*
X141875209Y-102036580D01*
X141875209Y-102036580D02*
X141970447Y-101988961D01*
X141970447Y-101988961D02*
X142018066Y-101941342D01*
X142018066Y-101941342D02*
X142065685Y-101846104D01*
X142065685Y-101846104D02*
X142065685Y-101655628D01*
X142065685Y-101655628D02*
X142018066Y-101560390D01*
X142018066Y-101560390D02*
X141970447Y-101512771D01*
X141970447Y-101512771D02*
X141875209Y-101465152D01*
X142399019Y-101036580D02*
X143065685Y-101036580D01*
X143065685Y-101036580D02*
X142637114Y-102036580D01*
X143399019Y-101131819D02*
X143446638Y-101084200D01*
X143446638Y-101084200D02*
X143541876Y-101036580D01*
X143541876Y-101036580D02*
X143779971Y-101036580D01*
X143779971Y-101036580D02*
X143875209Y-101084200D01*
X143875209Y-101084200D02*
X143922828Y-101131819D01*
X143922828Y-101131819D02*
X143970447Y-101227057D01*
X143970447Y-101227057D02*
X143970447Y-101322295D01*
X143970447Y-101322295D02*
X143922828Y-101465152D01*
X143922828Y-101465152D02*
X143351400Y-102036580D01*
X143351400Y-102036580D02*
X143970447Y-102036580D01*
X144541876Y-101465152D02*
X144446638Y-101417533D01*
X144446638Y-101417533D02*
X144399019Y-101369914D01*
X144399019Y-101369914D02*
X144351400Y-101274676D01*
X144351400Y-101274676D02*
X144351400Y-101227057D01*
X144351400Y-101227057D02*
X144399019Y-101131819D01*
X144399019Y-101131819D02*
X144446638Y-101084200D01*
X144446638Y-101084200D02*
X144541876Y-101036580D01*
X144541876Y-101036580D02*
X144732352Y-101036580D01*
X144732352Y-101036580D02*
X144827590Y-101084200D01*
X144827590Y-101084200D02*
X144875209Y-101131819D01*
X144875209Y-101131819D02*
X144922828Y-101227057D01*
X144922828Y-101227057D02*
X144922828Y-101274676D01*
X144922828Y-101274676D02*
X144875209Y-101369914D01*
X144875209Y-101369914D02*
X144827590Y-101417533D01*
X144827590Y-101417533D02*
X144732352Y-101465152D01*
X144732352Y-101465152D02*
X144541876Y-101465152D01*
X144541876Y-101465152D02*
X144446638Y-101512771D01*
X144446638Y-101512771D02*
X144399019Y-101560390D01*
X144399019Y-101560390D02*
X144351400Y-101655628D01*
X144351400Y-101655628D02*
X144351400Y-101846104D01*
X144351400Y-101846104D02*
X144399019Y-101941342D01*
X144399019Y-101941342D02*
X144446638Y-101988961D01*
X144446638Y-101988961D02*
X144541876Y-102036580D01*
X144541876Y-102036580D02*
X144732352Y-102036580D01*
X144732352Y-102036580D02*
X144827590Y-101988961D01*
X144827590Y-101988961D02*
X144875209Y-101941342D01*
X144875209Y-101941342D02*
X144922828Y-101846104D01*
X144922828Y-101846104D02*
X144922828Y-101655628D01*
X144922828Y-101655628D02*
X144875209Y-101560390D01*
X144875209Y-101560390D02*
X144827590Y-101512771D01*
X144827590Y-101512771D02*
X144732352Y-101465152D01*
X145951400Y-102036580D02*
X145951400Y-101369914D01*
X145951400Y-101465152D02*
X145999019Y-101417533D01*
X145999019Y-101417533D02*
X146094257Y-101369914D01*
X146094257Y-101369914D02*
X146237114Y-101369914D01*
X146237114Y-101369914D02*
X146332352Y-101417533D01*
X146332352Y-101417533D02*
X146379971Y-101512771D01*
X146379971Y-101512771D02*
X146379971Y-102036580D01*
X146379971Y-101512771D02*
X146427590Y-101417533D01*
X146427590Y-101417533D02*
X146522828Y-101369914D01*
X146522828Y-101369914D02*
X146665685Y-101369914D01*
X146665685Y-101369914D02*
X146760924Y-101417533D01*
X146760924Y-101417533D02*
X146808543Y-101512771D01*
X146808543Y-101512771D02*
X146808543Y-102036580D01*
X147284733Y-102036580D02*
X147284733Y-101369914D01*
X147284733Y-101465152D02*
X147332352Y-101417533D01*
X147332352Y-101417533D02*
X147427590Y-101369914D01*
X147427590Y-101369914D02*
X147570447Y-101369914D01*
X147570447Y-101369914D02*
X147665685Y-101417533D01*
X147665685Y-101417533D02*
X147713304Y-101512771D01*
X147713304Y-101512771D02*
X147713304Y-102036580D01*
X147713304Y-101512771D02*
X147760923Y-101417533D01*
X147760923Y-101417533D02*
X147856161Y-101369914D01*
X147856161Y-101369914D02*
X147999018Y-101369914D01*
X147999018Y-101369914D02*
X148094257Y-101417533D01*
X148094257Y-101417533D02*
X148141876Y-101512771D01*
X148141876Y-101512771D02*
X148141876Y-102036580D01*
X193587800Y-91142000D02*
X193587800Y-103405620D01*
X93715000Y-91142000D02*
X93715000Y-103405620D01*
X193587800Y-102819200D02*
X93715000Y-102819200D01*
X193587800Y-102819200D02*
X93715000Y-102819200D01*
X193587800Y-102819200D02*
X192461296Y-103405621D01*
X193587800Y-102819200D02*
X192461296Y-102232779D01*
X93715000Y-102819200D02*
X94841504Y-102232779D01*
X93715000Y-102819200D02*
X94841504Y-103405621D01*
X75280980Y-61506104D02*
X75280980Y-61696580D01*
X75280980Y-61696580D02*
X75328600Y-61791818D01*
X75328600Y-61791818D02*
X75376219Y-61839437D01*
X75376219Y-61839437D02*
X75519076Y-61934675D01*
X75519076Y-61934675D02*
X75709552Y-61982294D01*
X75709552Y-61982294D02*
X76090504Y-61982294D01*
X76090504Y-61982294D02*
X76185742Y-61934675D01*
X76185742Y-61934675D02*
X76233361Y-61887056D01*
X76233361Y-61887056D02*
X76280980Y-61791818D01*
X76280980Y-61791818D02*
X76280980Y-61601342D01*
X76280980Y-61601342D02*
X76233361Y-61506104D01*
X76233361Y-61506104D02*
X76185742Y-61458485D01*
X76185742Y-61458485D02*
X76090504Y-61410866D01*
X76090504Y-61410866D02*
X75852409Y-61410866D01*
X75852409Y-61410866D02*
X75757171Y-61458485D01*
X75757171Y-61458485D02*
X75709552Y-61506104D01*
X75709552Y-61506104D02*
X75661933Y-61601342D01*
X75661933Y-61601342D02*
X75661933Y-61791818D01*
X75661933Y-61791818D02*
X75709552Y-61887056D01*
X75709552Y-61887056D02*
X75757171Y-61934675D01*
X75757171Y-61934675D02*
X75852409Y-61982294D01*
X75280980Y-60553723D02*
X75280980Y-60744199D01*
X75280980Y-60744199D02*
X75328600Y-60839437D01*
X75328600Y-60839437D02*
X75376219Y-60887056D01*
X75376219Y-60887056D02*
X75519076Y-60982294D01*
X75519076Y-60982294D02*
X75709552Y-61029913D01*
X75709552Y-61029913D02*
X76090504Y-61029913D01*
X76090504Y-61029913D02*
X76185742Y-60982294D01*
X76185742Y-60982294D02*
X76233361Y-60934675D01*
X76233361Y-60934675D02*
X76280980Y-60839437D01*
X76280980Y-60839437D02*
X76280980Y-60648961D01*
X76280980Y-60648961D02*
X76233361Y-60553723D01*
X76233361Y-60553723D02*
X76185742Y-60506104D01*
X76185742Y-60506104D02*
X76090504Y-60458485D01*
X76090504Y-60458485D02*
X75852409Y-60458485D01*
X75852409Y-60458485D02*
X75757171Y-60506104D01*
X75757171Y-60506104D02*
X75709552Y-60553723D01*
X75709552Y-60553723D02*
X75661933Y-60648961D01*
X75661933Y-60648961D02*
X75661933Y-60839437D01*
X75661933Y-60839437D02*
X75709552Y-60934675D01*
X75709552Y-60934675D02*
X75757171Y-60982294D01*
X75757171Y-60982294D02*
X75852409Y-61029913D01*
X76185742Y-60029913D02*
X76233361Y-59982294D01*
X76233361Y-59982294D02*
X76280980Y-60029913D01*
X76280980Y-60029913D02*
X76233361Y-60077532D01*
X76233361Y-60077532D02*
X76185742Y-60029913D01*
X76185742Y-60029913D02*
X76280980Y-60029913D01*
X75280980Y-59648961D02*
X75280980Y-59029914D01*
X75280980Y-59029914D02*
X75661933Y-59363247D01*
X75661933Y-59363247D02*
X75661933Y-59220390D01*
X75661933Y-59220390D02*
X75709552Y-59125152D01*
X75709552Y-59125152D02*
X75757171Y-59077533D01*
X75757171Y-59077533D02*
X75852409Y-59029914D01*
X75852409Y-59029914D02*
X76090504Y-59029914D01*
X76090504Y-59029914D02*
X76185742Y-59077533D01*
X76185742Y-59077533D02*
X76233361Y-59125152D01*
X76233361Y-59125152D02*
X76280980Y-59220390D01*
X76280980Y-59220390D02*
X76280980Y-59506104D01*
X76280980Y-59506104D02*
X76233361Y-59601342D01*
X76233361Y-59601342D02*
X76185742Y-59648961D01*
X76280980Y-58553723D02*
X76280980Y-58363247D01*
X76280980Y-58363247D02*
X76233361Y-58268009D01*
X76233361Y-58268009D02*
X76185742Y-58220390D01*
X76185742Y-58220390D02*
X76042885Y-58125152D01*
X76042885Y-58125152D02*
X75852409Y-58077533D01*
X75852409Y-58077533D02*
X75471457Y-58077533D01*
X75471457Y-58077533D02*
X75376219Y-58125152D01*
X75376219Y-58125152D02*
X75328600Y-58172771D01*
X75328600Y-58172771D02*
X75280980Y-58268009D01*
X75280980Y-58268009D02*
X75280980Y-58458485D01*
X75280980Y-58458485D02*
X75328600Y-58553723D01*
X75328600Y-58553723D02*
X75376219Y-58601342D01*
X75376219Y-58601342D02*
X75471457Y-58648961D01*
X75471457Y-58648961D02*
X75709552Y-58648961D01*
X75709552Y-58648961D02*
X75804790Y-58601342D01*
X75804790Y-58601342D02*
X75852409Y-58553723D01*
X75852409Y-58553723D02*
X75900028Y-58458485D01*
X75900028Y-58458485D02*
X75900028Y-58268009D01*
X75900028Y-58268009D02*
X75852409Y-58172771D01*
X75852409Y-58172771D02*
X75804790Y-58125152D01*
X75804790Y-58125152D02*
X75709552Y-58077533D01*
X75280980Y-57172771D02*
X75280980Y-57648961D01*
X75280980Y-57648961D02*
X75757171Y-57696580D01*
X75757171Y-57696580D02*
X75709552Y-57648961D01*
X75709552Y-57648961D02*
X75661933Y-57553723D01*
X75661933Y-57553723D02*
X75661933Y-57315628D01*
X75661933Y-57315628D02*
X75709552Y-57220390D01*
X75709552Y-57220390D02*
X75757171Y-57172771D01*
X75757171Y-57172771D02*
X75852409Y-57125152D01*
X75852409Y-57125152D02*
X76090504Y-57125152D01*
X76090504Y-57125152D02*
X76185742Y-57172771D01*
X76185742Y-57172771D02*
X76233361Y-57220390D01*
X76233361Y-57220390D02*
X76280980Y-57315628D01*
X76280980Y-57315628D02*
X76280980Y-57553723D01*
X76280980Y-57553723D02*
X76233361Y-57648961D01*
X76233361Y-57648961D02*
X76185742Y-57696580D01*
X75280980Y-56268009D02*
X75280980Y-56458485D01*
X75280980Y-56458485D02*
X75328600Y-56553723D01*
X75328600Y-56553723D02*
X75376219Y-56601342D01*
X75376219Y-56601342D02*
X75519076Y-56696580D01*
X75519076Y-56696580D02*
X75709552Y-56744199D01*
X75709552Y-56744199D02*
X76090504Y-56744199D01*
X76090504Y-56744199D02*
X76185742Y-56696580D01*
X76185742Y-56696580D02*
X76233361Y-56648961D01*
X76233361Y-56648961D02*
X76280980Y-56553723D01*
X76280980Y-56553723D02*
X76280980Y-56363247D01*
X76280980Y-56363247D02*
X76233361Y-56268009D01*
X76233361Y-56268009D02*
X76185742Y-56220390D01*
X76185742Y-56220390D02*
X76090504Y-56172771D01*
X76090504Y-56172771D02*
X75852409Y-56172771D01*
X75852409Y-56172771D02*
X75757171Y-56220390D01*
X75757171Y-56220390D02*
X75709552Y-56268009D01*
X75709552Y-56268009D02*
X75661933Y-56363247D01*
X75661933Y-56363247D02*
X75661933Y-56553723D01*
X75661933Y-56553723D02*
X75709552Y-56648961D01*
X75709552Y-56648961D02*
X75757171Y-56696580D01*
X75757171Y-56696580D02*
X75852409Y-56744199D01*
X76280980Y-55144199D02*
X75614314Y-55144199D01*
X75709552Y-55144199D02*
X75661933Y-55096580D01*
X75661933Y-55096580D02*
X75614314Y-55001342D01*
X75614314Y-55001342D02*
X75614314Y-54858485D01*
X75614314Y-54858485D02*
X75661933Y-54763247D01*
X75661933Y-54763247D02*
X75757171Y-54715628D01*
X75757171Y-54715628D02*
X76280980Y-54715628D01*
X75757171Y-54715628D02*
X75661933Y-54668009D01*
X75661933Y-54668009D02*
X75614314Y-54572771D01*
X75614314Y-54572771D02*
X75614314Y-54429914D01*
X75614314Y-54429914D02*
X75661933Y-54334675D01*
X75661933Y-54334675D02*
X75757171Y-54287056D01*
X75757171Y-54287056D02*
X76280980Y-54287056D01*
X76280980Y-53810866D02*
X75614314Y-53810866D01*
X75709552Y-53810866D02*
X75661933Y-53763247D01*
X75661933Y-53763247D02*
X75614314Y-53668009D01*
X75614314Y-53668009D02*
X75614314Y-53525152D01*
X75614314Y-53525152D02*
X75661933Y-53429914D01*
X75661933Y-53429914D02*
X75757171Y-53382295D01*
X75757171Y-53382295D02*
X76280980Y-53382295D01*
X75757171Y-53382295D02*
X75661933Y-53334676D01*
X75661933Y-53334676D02*
X75614314Y-53239438D01*
X75614314Y-53239438D02*
X75614314Y-53096581D01*
X75614314Y-53096581D02*
X75661933Y-53001342D01*
X75661933Y-53001342D02*
X75757171Y-52953723D01*
X75757171Y-52953723D02*
X76280980Y-52953723D01*
X93215000Y-90642000D02*
X76477180Y-90642000D01*
X93215000Y-24246400D02*
X76477180Y-24246400D01*
X77063600Y-90642000D02*
X77063600Y-24246400D01*
X77063600Y-90642000D02*
X77063600Y-24246400D01*
X77063600Y-90642000D02*
X76477179Y-89515496D01*
X77063600Y-90642000D02*
X77650021Y-89515496D01*
X77063600Y-24246400D02*
X77650021Y-25372904D01*
X77063600Y-24246400D02*
X76477179Y-25372904D01*
%TO.C,C3*%
X162860333Y-52342142D02*
X162812714Y-52389761D01*
X162812714Y-52389761D02*
X162669857Y-52437380D01*
X162669857Y-52437380D02*
X162574619Y-52437380D01*
X162574619Y-52437380D02*
X162431762Y-52389761D01*
X162431762Y-52389761D02*
X162336524Y-52294523D01*
X162336524Y-52294523D02*
X162288905Y-52199285D01*
X162288905Y-52199285D02*
X162241286Y-52008809D01*
X162241286Y-52008809D02*
X162241286Y-51865952D01*
X162241286Y-51865952D02*
X162288905Y-51675476D01*
X162288905Y-51675476D02*
X162336524Y-51580238D01*
X162336524Y-51580238D02*
X162431762Y-51485000D01*
X162431762Y-51485000D02*
X162574619Y-51437380D01*
X162574619Y-51437380D02*
X162669857Y-51437380D01*
X162669857Y-51437380D02*
X162812714Y-51485000D01*
X162812714Y-51485000D02*
X162860333Y-51532619D01*
X163193667Y-51437380D02*
X163812714Y-51437380D01*
X163812714Y-51437380D02*
X163479381Y-51818333D01*
X163479381Y-51818333D02*
X163622238Y-51818333D01*
X163622238Y-51818333D02*
X163717476Y-51865952D01*
X163717476Y-51865952D02*
X163765095Y-51913571D01*
X163765095Y-51913571D02*
X163812714Y-52008809D01*
X163812714Y-52008809D02*
X163812714Y-52246904D01*
X163812714Y-52246904D02*
X163765095Y-52342142D01*
X163765095Y-52342142D02*
X163717476Y-52389761D01*
X163717476Y-52389761D02*
X163622238Y-52437380D01*
X163622238Y-52437380D02*
X163336524Y-52437380D01*
X163336524Y-52437380D02*
X163241286Y-52389761D01*
X163241286Y-52389761D02*
X163193667Y-52342142D01*
%TO.C,U1*%
X129178095Y-85717380D02*
X129178095Y-86526904D01*
X129178095Y-86526904D02*
X129225714Y-86622142D01*
X129225714Y-86622142D02*
X129273333Y-86669761D01*
X129273333Y-86669761D02*
X129368571Y-86717380D01*
X129368571Y-86717380D02*
X129559047Y-86717380D01*
X129559047Y-86717380D02*
X129654285Y-86669761D01*
X129654285Y-86669761D02*
X129701904Y-86622142D01*
X129701904Y-86622142D02*
X129749523Y-86526904D01*
X129749523Y-86526904D02*
X129749523Y-85717380D01*
X130749523Y-86717380D02*
X130178095Y-86717380D01*
X130463809Y-86717380D02*
X130463809Y-85717380D01*
X130463809Y-85717380D02*
X130368571Y-85860238D01*
X130368571Y-85860238D02*
X130273333Y-85955476D01*
X130273333Y-85955476D02*
X130178095Y-86003095D01*
%TO.C,D2*%
X122338180Y-33758094D02*
X121338180Y-33758094D01*
X121338180Y-33758094D02*
X121338180Y-33519999D01*
X121338180Y-33519999D02*
X121385800Y-33377142D01*
X121385800Y-33377142D02*
X121481038Y-33281904D01*
X121481038Y-33281904D02*
X121576276Y-33234285D01*
X121576276Y-33234285D02*
X121766752Y-33186666D01*
X121766752Y-33186666D02*
X121909609Y-33186666D01*
X121909609Y-33186666D02*
X122100085Y-33234285D01*
X122100085Y-33234285D02*
X122195323Y-33281904D01*
X122195323Y-33281904D02*
X122290561Y-33377142D01*
X122290561Y-33377142D02*
X122338180Y-33519999D01*
X122338180Y-33519999D02*
X122338180Y-33758094D01*
X121433419Y-32805713D02*
X121385800Y-32758094D01*
X121385800Y-32758094D02*
X121338180Y-32662856D01*
X121338180Y-32662856D02*
X121338180Y-32424761D01*
X121338180Y-32424761D02*
X121385800Y-32329523D01*
X121385800Y-32329523D02*
X121433419Y-32281904D01*
X121433419Y-32281904D02*
X121528657Y-32234285D01*
X121528657Y-32234285D02*
X121623895Y-32234285D01*
X121623895Y-32234285D02*
X121766752Y-32281904D01*
X121766752Y-32281904D02*
X122338180Y-32853332D01*
X122338180Y-32853332D02*
X122338180Y-32234285D01*
%TO.C,R15*%
X142607380Y-79382857D02*
X142131190Y-79716190D01*
X142607380Y-79954285D02*
X141607380Y-79954285D01*
X141607380Y-79954285D02*
X141607380Y-79573333D01*
X141607380Y-79573333D02*
X141655000Y-79478095D01*
X141655000Y-79478095D02*
X141702619Y-79430476D01*
X141702619Y-79430476D02*
X141797857Y-79382857D01*
X141797857Y-79382857D02*
X141940714Y-79382857D01*
X141940714Y-79382857D02*
X142035952Y-79430476D01*
X142035952Y-79430476D02*
X142083571Y-79478095D01*
X142083571Y-79478095D02*
X142131190Y-79573333D01*
X142131190Y-79573333D02*
X142131190Y-79954285D01*
X142607380Y-78430476D02*
X142607380Y-79001904D01*
X142607380Y-78716190D02*
X141607380Y-78716190D01*
X141607380Y-78716190D02*
X141750238Y-78811428D01*
X141750238Y-78811428D02*
X141845476Y-78906666D01*
X141845476Y-78906666D02*
X141893095Y-79001904D01*
X141607380Y-77525714D02*
X141607380Y-78001904D01*
X141607380Y-78001904D02*
X142083571Y-78049523D01*
X142083571Y-78049523D02*
X142035952Y-78001904D01*
X142035952Y-78001904D02*
X141988333Y-77906666D01*
X141988333Y-77906666D02*
X141988333Y-77668571D01*
X141988333Y-77668571D02*
X142035952Y-77573333D01*
X142035952Y-77573333D02*
X142083571Y-77525714D01*
X142083571Y-77525714D02*
X142178809Y-77478095D01*
X142178809Y-77478095D02*
X142416904Y-77478095D01*
X142416904Y-77478095D02*
X142512142Y-77525714D01*
X142512142Y-77525714D02*
X142559761Y-77573333D01*
X142559761Y-77573333D02*
X142607380Y-77668571D01*
X142607380Y-77668571D02*
X142607380Y-77906666D01*
X142607380Y-77906666D02*
X142559761Y-78001904D01*
X142559761Y-78001904D02*
X142512142Y-78049523D01*
%TO.C,D3*%
X157694980Y-84253294D02*
X156694980Y-84253294D01*
X156694980Y-84253294D02*
X156694980Y-84015199D01*
X156694980Y-84015199D02*
X156742600Y-83872342D01*
X156742600Y-83872342D02*
X156837838Y-83777104D01*
X156837838Y-83777104D02*
X156933076Y-83729485D01*
X156933076Y-83729485D02*
X157123552Y-83681866D01*
X157123552Y-83681866D02*
X157266409Y-83681866D01*
X157266409Y-83681866D02*
X157456885Y-83729485D01*
X157456885Y-83729485D02*
X157552123Y-83777104D01*
X157552123Y-83777104D02*
X157647361Y-83872342D01*
X157647361Y-83872342D02*
X157694980Y-84015199D01*
X157694980Y-84015199D02*
X157694980Y-84253294D01*
X156694980Y-83348532D02*
X156694980Y-82729485D01*
X156694980Y-82729485D02*
X157075933Y-83062818D01*
X157075933Y-83062818D02*
X157075933Y-82919961D01*
X157075933Y-82919961D02*
X157123552Y-82824723D01*
X157123552Y-82824723D02*
X157171171Y-82777104D01*
X157171171Y-82777104D02*
X157266409Y-82729485D01*
X157266409Y-82729485D02*
X157504504Y-82729485D01*
X157504504Y-82729485D02*
X157599742Y-82777104D01*
X157599742Y-82777104D02*
X157647361Y-82824723D01*
X157647361Y-82824723D02*
X157694980Y-82919961D01*
X157694980Y-82919961D02*
X157694980Y-83205675D01*
X157694980Y-83205675D02*
X157647361Y-83300913D01*
X157647361Y-83300913D02*
X157599742Y-83348532D01*
%TO.C,R11*%
X101967380Y-50172857D02*
X101491190Y-50506190D01*
X101967380Y-50744285D02*
X100967380Y-50744285D01*
X100967380Y-50744285D02*
X100967380Y-50363333D01*
X100967380Y-50363333D02*
X101015000Y-50268095D01*
X101015000Y-50268095D02*
X101062619Y-50220476D01*
X101062619Y-50220476D02*
X101157857Y-50172857D01*
X101157857Y-50172857D02*
X101300714Y-50172857D01*
X101300714Y-50172857D02*
X101395952Y-50220476D01*
X101395952Y-50220476D02*
X101443571Y-50268095D01*
X101443571Y-50268095D02*
X101491190Y-50363333D01*
X101491190Y-50363333D02*
X101491190Y-50744285D01*
X101967380Y-49220476D02*
X101967380Y-49791904D01*
X101967380Y-49506190D02*
X100967380Y-49506190D01*
X100967380Y-49506190D02*
X101110238Y-49601428D01*
X101110238Y-49601428D02*
X101205476Y-49696666D01*
X101205476Y-49696666D02*
X101253095Y-49791904D01*
X101967380Y-48268095D02*
X101967380Y-48839523D01*
X101967380Y-48553809D02*
X100967380Y-48553809D01*
X100967380Y-48553809D02*
X101110238Y-48649047D01*
X101110238Y-48649047D02*
X101205476Y-48744285D01*
X101205476Y-48744285D02*
X101253095Y-48839523D01*
%TO.C,U2*%
X107698380Y-42163904D02*
X108507904Y-42163904D01*
X108507904Y-42163904D02*
X108603142Y-42116285D01*
X108603142Y-42116285D02*
X108650761Y-42068666D01*
X108650761Y-42068666D02*
X108698380Y-41973428D01*
X108698380Y-41973428D02*
X108698380Y-41782952D01*
X108698380Y-41782952D02*
X108650761Y-41687714D01*
X108650761Y-41687714D02*
X108603142Y-41640095D01*
X108603142Y-41640095D02*
X108507904Y-41592476D01*
X108507904Y-41592476D02*
X107698380Y-41592476D01*
X107793619Y-41163904D02*
X107746000Y-41116285D01*
X107746000Y-41116285D02*
X107698380Y-41021047D01*
X107698380Y-41021047D02*
X107698380Y-40782952D01*
X107698380Y-40782952D02*
X107746000Y-40687714D01*
X107746000Y-40687714D02*
X107793619Y-40640095D01*
X107793619Y-40640095D02*
X107888857Y-40592476D01*
X107888857Y-40592476D02*
X107984095Y-40592476D01*
X107984095Y-40592476D02*
X108126952Y-40640095D01*
X108126952Y-40640095D02*
X108698380Y-41211523D01*
X108698380Y-41211523D02*
X108698380Y-40592476D01*
%TO.C,U3*%
X146422380Y-51946904D02*
X147231904Y-51946904D01*
X147231904Y-51946904D02*
X147327142Y-51899285D01*
X147327142Y-51899285D02*
X147374761Y-51851666D01*
X147374761Y-51851666D02*
X147422380Y-51756428D01*
X147422380Y-51756428D02*
X147422380Y-51565952D01*
X147422380Y-51565952D02*
X147374761Y-51470714D01*
X147374761Y-51470714D02*
X147327142Y-51423095D01*
X147327142Y-51423095D02*
X147231904Y-51375476D01*
X147231904Y-51375476D02*
X146422380Y-51375476D01*
X146422380Y-50994523D02*
X146422380Y-50375476D01*
X146422380Y-50375476D02*
X146803333Y-50708809D01*
X146803333Y-50708809D02*
X146803333Y-50565952D01*
X146803333Y-50565952D02*
X146850952Y-50470714D01*
X146850952Y-50470714D02*
X146898571Y-50423095D01*
X146898571Y-50423095D02*
X146993809Y-50375476D01*
X146993809Y-50375476D02*
X147231904Y-50375476D01*
X147231904Y-50375476D02*
X147327142Y-50423095D01*
X147327142Y-50423095D02*
X147374761Y-50470714D01*
X147374761Y-50470714D02*
X147422380Y-50565952D01*
X147422380Y-50565952D02*
X147422380Y-50851666D01*
X147422380Y-50851666D02*
X147374761Y-50946904D01*
X147374761Y-50946904D02*
X147327142Y-50994523D01*
%TO.C,R13*%
X155655380Y-33193457D02*
X155179190Y-33526790D01*
X155655380Y-33764885D02*
X154655380Y-33764885D01*
X154655380Y-33764885D02*
X154655380Y-33383933D01*
X154655380Y-33383933D02*
X154703000Y-33288695D01*
X154703000Y-33288695D02*
X154750619Y-33241076D01*
X154750619Y-33241076D02*
X154845857Y-33193457D01*
X154845857Y-33193457D02*
X154988714Y-33193457D01*
X154988714Y-33193457D02*
X155083952Y-33241076D01*
X155083952Y-33241076D02*
X155131571Y-33288695D01*
X155131571Y-33288695D02*
X155179190Y-33383933D01*
X155179190Y-33383933D02*
X155179190Y-33764885D01*
X155655380Y-32241076D02*
X155655380Y-32812504D01*
X155655380Y-32526790D02*
X154655380Y-32526790D01*
X154655380Y-32526790D02*
X154798238Y-32622028D01*
X154798238Y-32622028D02*
X154893476Y-32717266D01*
X154893476Y-32717266D02*
X154941095Y-32812504D01*
X154655380Y-31907742D02*
X154655380Y-31288695D01*
X154655380Y-31288695D02*
X155036333Y-31622028D01*
X155036333Y-31622028D02*
X155036333Y-31479171D01*
X155036333Y-31479171D02*
X155083952Y-31383933D01*
X155083952Y-31383933D02*
X155131571Y-31336314D01*
X155131571Y-31336314D02*
X155226809Y-31288695D01*
X155226809Y-31288695D02*
X155464904Y-31288695D01*
X155464904Y-31288695D02*
X155560142Y-31336314D01*
X155560142Y-31336314D02*
X155607761Y-31383933D01*
X155607761Y-31383933D02*
X155655380Y-31479171D01*
X155655380Y-31479171D02*
X155655380Y-31764885D01*
X155655380Y-31764885D02*
X155607761Y-31860123D01*
X155607761Y-31860123D02*
X155560142Y-31907742D01*
%TO.C,U5*%
X169928380Y-67944904D02*
X170737904Y-67944904D01*
X170737904Y-67944904D02*
X170833142Y-67897285D01*
X170833142Y-67897285D02*
X170880761Y-67849666D01*
X170880761Y-67849666D02*
X170928380Y-67754428D01*
X170928380Y-67754428D02*
X170928380Y-67563952D01*
X170928380Y-67563952D02*
X170880761Y-67468714D01*
X170880761Y-67468714D02*
X170833142Y-67421095D01*
X170833142Y-67421095D02*
X170737904Y-67373476D01*
X170737904Y-67373476D02*
X169928380Y-67373476D01*
X169928380Y-66421095D02*
X169928380Y-66897285D01*
X169928380Y-66897285D02*
X170404571Y-66944904D01*
X170404571Y-66944904D02*
X170356952Y-66897285D01*
X170356952Y-66897285D02*
X170309333Y-66802047D01*
X170309333Y-66802047D02*
X170309333Y-66563952D01*
X170309333Y-66563952D02*
X170356952Y-66468714D01*
X170356952Y-66468714D02*
X170404571Y-66421095D01*
X170404571Y-66421095D02*
X170499809Y-66373476D01*
X170499809Y-66373476D02*
X170737904Y-66373476D01*
X170737904Y-66373476D02*
X170833142Y-66421095D01*
X170833142Y-66421095D02*
X170880761Y-66468714D01*
X170880761Y-66468714D02*
X170928380Y-66563952D01*
X170928380Y-66563952D02*
X170928380Y-66802047D01*
X170928380Y-66802047D02*
X170880761Y-66897285D01*
X170880761Y-66897285D02*
X170833142Y-66944904D01*
%TO.C,R8*%
X107047380Y-68031666D02*
X106571190Y-68364999D01*
X107047380Y-68603094D02*
X106047380Y-68603094D01*
X106047380Y-68603094D02*
X106047380Y-68222142D01*
X106047380Y-68222142D02*
X106095000Y-68126904D01*
X106095000Y-68126904D02*
X106142619Y-68079285D01*
X106142619Y-68079285D02*
X106237857Y-68031666D01*
X106237857Y-68031666D02*
X106380714Y-68031666D01*
X106380714Y-68031666D02*
X106475952Y-68079285D01*
X106475952Y-68079285D02*
X106523571Y-68126904D01*
X106523571Y-68126904D02*
X106571190Y-68222142D01*
X106571190Y-68222142D02*
X106571190Y-68603094D01*
X106475952Y-67460237D02*
X106428333Y-67555475D01*
X106428333Y-67555475D02*
X106380714Y-67603094D01*
X106380714Y-67603094D02*
X106285476Y-67650713D01*
X106285476Y-67650713D02*
X106237857Y-67650713D01*
X106237857Y-67650713D02*
X106142619Y-67603094D01*
X106142619Y-67603094D02*
X106095000Y-67555475D01*
X106095000Y-67555475D02*
X106047380Y-67460237D01*
X106047380Y-67460237D02*
X106047380Y-67269761D01*
X106047380Y-67269761D02*
X106095000Y-67174523D01*
X106095000Y-67174523D02*
X106142619Y-67126904D01*
X106142619Y-67126904D02*
X106237857Y-67079285D01*
X106237857Y-67079285D02*
X106285476Y-67079285D01*
X106285476Y-67079285D02*
X106380714Y-67126904D01*
X106380714Y-67126904D02*
X106428333Y-67174523D01*
X106428333Y-67174523D02*
X106475952Y-67269761D01*
X106475952Y-67269761D02*
X106475952Y-67460237D01*
X106475952Y-67460237D02*
X106523571Y-67555475D01*
X106523571Y-67555475D02*
X106571190Y-67603094D01*
X106571190Y-67603094D02*
X106666428Y-67650713D01*
X106666428Y-67650713D02*
X106856904Y-67650713D01*
X106856904Y-67650713D02*
X106952142Y-67603094D01*
X106952142Y-67603094D02*
X106999761Y-67555475D01*
X106999761Y-67555475D02*
X107047380Y-67460237D01*
X107047380Y-67460237D02*
X107047380Y-67269761D01*
X107047380Y-67269761D02*
X106999761Y-67174523D01*
X106999761Y-67174523D02*
X106952142Y-67126904D01*
X106952142Y-67126904D02*
X106856904Y-67079285D01*
X106856904Y-67079285D02*
X106666428Y-67079285D01*
X106666428Y-67079285D02*
X106571190Y-67126904D01*
X106571190Y-67126904D02*
X106523571Y-67174523D01*
X106523571Y-67174523D02*
X106475952Y-67269761D01*
%TO.C,C15*%
X176454142Y-71013857D02*
X176501761Y-71061476D01*
X176501761Y-71061476D02*
X176549380Y-71204333D01*
X176549380Y-71204333D02*
X176549380Y-71299571D01*
X176549380Y-71299571D02*
X176501761Y-71442428D01*
X176501761Y-71442428D02*
X176406523Y-71537666D01*
X176406523Y-71537666D02*
X176311285Y-71585285D01*
X176311285Y-71585285D02*
X176120809Y-71632904D01*
X176120809Y-71632904D02*
X175977952Y-71632904D01*
X175977952Y-71632904D02*
X175787476Y-71585285D01*
X175787476Y-71585285D02*
X175692238Y-71537666D01*
X175692238Y-71537666D02*
X175597000Y-71442428D01*
X175597000Y-71442428D02*
X175549380Y-71299571D01*
X175549380Y-71299571D02*
X175549380Y-71204333D01*
X175549380Y-71204333D02*
X175597000Y-71061476D01*
X175597000Y-71061476D02*
X175644619Y-71013857D01*
X176549380Y-70061476D02*
X176549380Y-70632904D01*
X176549380Y-70347190D02*
X175549380Y-70347190D01*
X175549380Y-70347190D02*
X175692238Y-70442428D01*
X175692238Y-70442428D02*
X175787476Y-70537666D01*
X175787476Y-70537666D02*
X175835095Y-70632904D01*
X175549380Y-69156714D02*
X175549380Y-69632904D01*
X175549380Y-69632904D02*
X176025571Y-69680523D01*
X176025571Y-69680523D02*
X175977952Y-69632904D01*
X175977952Y-69632904D02*
X175930333Y-69537666D01*
X175930333Y-69537666D02*
X175930333Y-69299571D01*
X175930333Y-69299571D02*
X175977952Y-69204333D01*
X175977952Y-69204333D02*
X176025571Y-69156714D01*
X176025571Y-69156714D02*
X176120809Y-69109095D01*
X176120809Y-69109095D02*
X176358904Y-69109095D01*
X176358904Y-69109095D02*
X176454142Y-69156714D01*
X176454142Y-69156714D02*
X176501761Y-69204333D01*
X176501761Y-69204333D02*
X176549380Y-69299571D01*
X176549380Y-69299571D02*
X176549380Y-69537666D01*
X176549380Y-69537666D02*
X176501761Y-69632904D01*
X176501761Y-69632904D02*
X176454142Y-69680523D01*
%TO.C,R7*%
X101967380Y-68031666D02*
X101491190Y-68364999D01*
X101967380Y-68603094D02*
X100967380Y-68603094D01*
X100967380Y-68603094D02*
X100967380Y-68222142D01*
X100967380Y-68222142D02*
X101015000Y-68126904D01*
X101015000Y-68126904D02*
X101062619Y-68079285D01*
X101062619Y-68079285D02*
X101157857Y-68031666D01*
X101157857Y-68031666D02*
X101300714Y-68031666D01*
X101300714Y-68031666D02*
X101395952Y-68079285D01*
X101395952Y-68079285D02*
X101443571Y-68126904D01*
X101443571Y-68126904D02*
X101491190Y-68222142D01*
X101491190Y-68222142D02*
X101491190Y-68603094D01*
X100967380Y-67698332D02*
X100967380Y-67031666D01*
X100967380Y-67031666D02*
X101967380Y-67460237D01*
%TO.C,C12*%
X136891142Y-52826857D02*
X136938761Y-52874476D01*
X136938761Y-52874476D02*
X136986380Y-53017333D01*
X136986380Y-53017333D02*
X136986380Y-53112571D01*
X136986380Y-53112571D02*
X136938761Y-53255428D01*
X136938761Y-53255428D02*
X136843523Y-53350666D01*
X136843523Y-53350666D02*
X136748285Y-53398285D01*
X136748285Y-53398285D02*
X136557809Y-53445904D01*
X136557809Y-53445904D02*
X136414952Y-53445904D01*
X136414952Y-53445904D02*
X136224476Y-53398285D01*
X136224476Y-53398285D02*
X136129238Y-53350666D01*
X136129238Y-53350666D02*
X136034000Y-53255428D01*
X136034000Y-53255428D02*
X135986380Y-53112571D01*
X135986380Y-53112571D02*
X135986380Y-53017333D01*
X135986380Y-53017333D02*
X136034000Y-52874476D01*
X136034000Y-52874476D02*
X136081619Y-52826857D01*
X136986380Y-51874476D02*
X136986380Y-52445904D01*
X136986380Y-52160190D02*
X135986380Y-52160190D01*
X135986380Y-52160190D02*
X136129238Y-52255428D01*
X136129238Y-52255428D02*
X136224476Y-52350666D01*
X136224476Y-52350666D02*
X136272095Y-52445904D01*
X136081619Y-51493523D02*
X136034000Y-51445904D01*
X136034000Y-51445904D02*
X135986380Y-51350666D01*
X135986380Y-51350666D02*
X135986380Y-51112571D01*
X135986380Y-51112571D02*
X136034000Y-51017333D01*
X136034000Y-51017333D02*
X136081619Y-50969714D01*
X136081619Y-50969714D02*
X136176857Y-50922095D01*
X136176857Y-50922095D02*
X136272095Y-50922095D01*
X136272095Y-50922095D02*
X136414952Y-50969714D01*
X136414952Y-50969714D02*
X136986380Y-51541142D01*
X136986380Y-51541142D02*
X136986380Y-50922095D01*
D11*
%TO.C,S2*%
X185091097Y-60187619D02*
X185151573Y-60006190D01*
X185151573Y-60006190D02*
X185151573Y-59703809D01*
X185151573Y-59703809D02*
X185091097Y-59582857D01*
X185091097Y-59582857D02*
X185030621Y-59522381D01*
X185030621Y-59522381D02*
X184909669Y-59461904D01*
X184909669Y-59461904D02*
X184788716Y-59461904D01*
X184788716Y-59461904D02*
X184667764Y-59522381D01*
X184667764Y-59522381D02*
X184607288Y-59582857D01*
X184607288Y-59582857D02*
X184546811Y-59703809D01*
X184546811Y-59703809D02*
X184486335Y-59945714D01*
X184486335Y-59945714D02*
X184425859Y-60066666D01*
X184425859Y-60066666D02*
X184365383Y-60127143D01*
X184365383Y-60127143D02*
X184244430Y-60187619D01*
X184244430Y-60187619D02*
X184123478Y-60187619D01*
X184123478Y-60187619D02*
X184002526Y-60127143D01*
X184002526Y-60127143D02*
X183942050Y-60066666D01*
X183942050Y-60066666D02*
X183881573Y-59945714D01*
X183881573Y-59945714D02*
X183881573Y-59643333D01*
X183881573Y-59643333D02*
X183942050Y-59461904D01*
X184002526Y-58978095D02*
X183942050Y-58917619D01*
X183942050Y-58917619D02*
X183881573Y-58796666D01*
X183881573Y-58796666D02*
X183881573Y-58494285D01*
X183881573Y-58494285D02*
X183942050Y-58373333D01*
X183942050Y-58373333D02*
X184002526Y-58312857D01*
X184002526Y-58312857D02*
X184123478Y-58252380D01*
X184123478Y-58252380D02*
X184244430Y-58252380D01*
X184244430Y-58252380D02*
X184425859Y-58312857D01*
X184425859Y-58312857D02*
X185151573Y-59038571D01*
X185151573Y-59038571D02*
X185151573Y-58252380D01*
D10*
%TO.C,J1*%
X140337380Y-31372133D02*
X141051666Y-31372133D01*
X141051666Y-31372133D02*
X141194523Y-31419752D01*
X141194523Y-31419752D02*
X141289761Y-31514990D01*
X141289761Y-31514990D02*
X141337380Y-31657847D01*
X141337380Y-31657847D02*
X141337380Y-31753085D01*
X141337380Y-30372133D02*
X141337380Y-30943561D01*
X141337380Y-30657847D02*
X140337380Y-30657847D01*
X140337380Y-30657847D02*
X140480238Y-30753085D01*
X140480238Y-30753085D02*
X140575476Y-30848323D01*
X140575476Y-30848323D02*
X140623095Y-30943561D01*
%TO.C,R1*%
X177531380Y-34687166D02*
X177055190Y-35020499D01*
X177531380Y-35258594D02*
X176531380Y-35258594D01*
X176531380Y-35258594D02*
X176531380Y-34877642D01*
X176531380Y-34877642D02*
X176579000Y-34782404D01*
X176579000Y-34782404D02*
X176626619Y-34734785D01*
X176626619Y-34734785D02*
X176721857Y-34687166D01*
X176721857Y-34687166D02*
X176864714Y-34687166D01*
X176864714Y-34687166D02*
X176959952Y-34734785D01*
X176959952Y-34734785D02*
X177007571Y-34782404D01*
X177007571Y-34782404D02*
X177055190Y-34877642D01*
X177055190Y-34877642D02*
X177055190Y-35258594D01*
X177531380Y-33734785D02*
X177531380Y-34306213D01*
X177531380Y-34020499D02*
X176531380Y-34020499D01*
X176531380Y-34020499D02*
X176674238Y-34115737D01*
X176674238Y-34115737D02*
X176769476Y-34210975D01*
X176769476Y-34210975D02*
X176817095Y-34306213D01*
%TO.C,C2*%
X164569142Y-46166666D02*
X164616761Y-46214285D01*
X164616761Y-46214285D02*
X164664380Y-46357142D01*
X164664380Y-46357142D02*
X164664380Y-46452380D01*
X164664380Y-46452380D02*
X164616761Y-46595237D01*
X164616761Y-46595237D02*
X164521523Y-46690475D01*
X164521523Y-46690475D02*
X164426285Y-46738094D01*
X164426285Y-46738094D02*
X164235809Y-46785713D01*
X164235809Y-46785713D02*
X164092952Y-46785713D01*
X164092952Y-46785713D02*
X163902476Y-46738094D01*
X163902476Y-46738094D02*
X163807238Y-46690475D01*
X163807238Y-46690475D02*
X163712000Y-46595237D01*
X163712000Y-46595237D02*
X163664380Y-46452380D01*
X163664380Y-46452380D02*
X163664380Y-46357142D01*
X163664380Y-46357142D02*
X163712000Y-46214285D01*
X163712000Y-46214285D02*
X163759619Y-46166666D01*
X163759619Y-45785713D02*
X163712000Y-45738094D01*
X163712000Y-45738094D02*
X163664380Y-45642856D01*
X163664380Y-45642856D02*
X163664380Y-45404761D01*
X163664380Y-45404761D02*
X163712000Y-45309523D01*
X163712000Y-45309523D02*
X163759619Y-45261904D01*
X163759619Y-45261904D02*
X163854857Y-45214285D01*
X163854857Y-45214285D02*
X163950095Y-45214285D01*
X163950095Y-45214285D02*
X164092952Y-45261904D01*
X164092952Y-45261904D02*
X164664380Y-45833332D01*
X164664380Y-45833332D02*
X164664380Y-45214285D01*
%TO.C,R17*%
X167505142Y-56247380D02*
X167171809Y-55771190D01*
X166933714Y-56247380D02*
X166933714Y-55247380D01*
X166933714Y-55247380D02*
X167314666Y-55247380D01*
X167314666Y-55247380D02*
X167409904Y-55295000D01*
X167409904Y-55295000D02*
X167457523Y-55342619D01*
X167457523Y-55342619D02*
X167505142Y-55437857D01*
X167505142Y-55437857D02*
X167505142Y-55580714D01*
X167505142Y-55580714D02*
X167457523Y-55675952D01*
X167457523Y-55675952D02*
X167409904Y-55723571D01*
X167409904Y-55723571D02*
X167314666Y-55771190D01*
X167314666Y-55771190D02*
X166933714Y-55771190D01*
X168457523Y-56247380D02*
X167886095Y-56247380D01*
X168171809Y-56247380D02*
X168171809Y-55247380D01*
X168171809Y-55247380D02*
X168076571Y-55390238D01*
X168076571Y-55390238D02*
X167981333Y-55485476D01*
X167981333Y-55485476D02*
X167886095Y-55533095D01*
X168790857Y-55247380D02*
X169457523Y-55247380D01*
X169457523Y-55247380D02*
X169028952Y-56247380D01*
%TO.C,R10*%
X109587380Y-49457857D02*
X109111190Y-49791190D01*
X109587380Y-50029285D02*
X108587380Y-50029285D01*
X108587380Y-50029285D02*
X108587380Y-49648333D01*
X108587380Y-49648333D02*
X108635000Y-49553095D01*
X108635000Y-49553095D02*
X108682619Y-49505476D01*
X108682619Y-49505476D02*
X108777857Y-49457857D01*
X108777857Y-49457857D02*
X108920714Y-49457857D01*
X108920714Y-49457857D02*
X109015952Y-49505476D01*
X109015952Y-49505476D02*
X109063571Y-49553095D01*
X109063571Y-49553095D02*
X109111190Y-49648333D01*
X109111190Y-49648333D02*
X109111190Y-50029285D01*
X109587380Y-48505476D02*
X109587380Y-49076904D01*
X109587380Y-48791190D02*
X108587380Y-48791190D01*
X108587380Y-48791190D02*
X108730238Y-48886428D01*
X108730238Y-48886428D02*
X108825476Y-48981666D01*
X108825476Y-48981666D02*
X108873095Y-49076904D01*
X108587380Y-47886428D02*
X108587380Y-47791190D01*
X108587380Y-47791190D02*
X108635000Y-47695952D01*
X108635000Y-47695952D02*
X108682619Y-47648333D01*
X108682619Y-47648333D02*
X108777857Y-47600714D01*
X108777857Y-47600714D02*
X108968333Y-47553095D01*
X108968333Y-47553095D02*
X109206428Y-47553095D01*
X109206428Y-47553095D02*
X109396904Y-47600714D01*
X109396904Y-47600714D02*
X109492142Y-47648333D01*
X109492142Y-47648333D02*
X109539761Y-47695952D01*
X109539761Y-47695952D02*
X109587380Y-47791190D01*
X109587380Y-47791190D02*
X109587380Y-47886428D01*
X109587380Y-47886428D02*
X109539761Y-47981666D01*
X109539761Y-47981666D02*
X109492142Y-48029285D01*
X109492142Y-48029285D02*
X109396904Y-48076904D01*
X109396904Y-48076904D02*
X109206428Y-48124523D01*
X109206428Y-48124523D02*
X108968333Y-48124523D01*
X108968333Y-48124523D02*
X108777857Y-48076904D01*
X108777857Y-48076904D02*
X108682619Y-48029285D01*
X108682619Y-48029285D02*
X108635000Y-47981666D01*
X108635000Y-47981666D02*
X108587380Y-47886428D01*
%TO.C,J2*%
X140371666Y-85079880D02*
X140371666Y-85794166D01*
X140371666Y-85794166D02*
X140324047Y-85937023D01*
X140324047Y-85937023D02*
X140228809Y-86032261D01*
X140228809Y-86032261D02*
X140085952Y-86079880D01*
X140085952Y-86079880D02*
X139990714Y-86079880D01*
X140800238Y-85175119D02*
X140847857Y-85127500D01*
X140847857Y-85127500D02*
X140943095Y-85079880D01*
X140943095Y-85079880D02*
X141181190Y-85079880D01*
X141181190Y-85079880D02*
X141276428Y-85127500D01*
X141276428Y-85127500D02*
X141324047Y-85175119D01*
X141324047Y-85175119D02*
X141371666Y-85270357D01*
X141371666Y-85270357D02*
X141371666Y-85365595D01*
X141371666Y-85365595D02*
X141324047Y-85508452D01*
X141324047Y-85508452D02*
X140752619Y-86079880D01*
X140752619Y-86079880D02*
X141371666Y-86079880D01*
%TO.C,C7*%
X137007142Y-46736666D02*
X137054761Y-46784285D01*
X137054761Y-46784285D02*
X137102380Y-46927142D01*
X137102380Y-46927142D02*
X137102380Y-47022380D01*
X137102380Y-47022380D02*
X137054761Y-47165237D01*
X137054761Y-47165237D02*
X136959523Y-47260475D01*
X136959523Y-47260475D02*
X136864285Y-47308094D01*
X136864285Y-47308094D02*
X136673809Y-47355713D01*
X136673809Y-47355713D02*
X136530952Y-47355713D01*
X136530952Y-47355713D02*
X136340476Y-47308094D01*
X136340476Y-47308094D02*
X136245238Y-47260475D01*
X136245238Y-47260475D02*
X136150000Y-47165237D01*
X136150000Y-47165237D02*
X136102380Y-47022380D01*
X136102380Y-47022380D02*
X136102380Y-46927142D01*
X136102380Y-46927142D02*
X136150000Y-46784285D01*
X136150000Y-46784285D02*
X136197619Y-46736666D01*
X136102380Y-46403332D02*
X136102380Y-45736666D01*
X136102380Y-45736666D02*
X137102380Y-46165237D01*
%TO.C,LS1*%
X104122142Y-89482380D02*
X103645952Y-89482380D01*
X103645952Y-89482380D02*
X103645952Y-88482380D01*
X104407857Y-89434761D02*
X104550714Y-89482380D01*
X104550714Y-89482380D02*
X104788809Y-89482380D01*
X104788809Y-89482380D02*
X104884047Y-89434761D01*
X104884047Y-89434761D02*
X104931666Y-89387142D01*
X104931666Y-89387142D02*
X104979285Y-89291904D01*
X104979285Y-89291904D02*
X104979285Y-89196666D01*
X104979285Y-89196666D02*
X104931666Y-89101428D01*
X104931666Y-89101428D02*
X104884047Y-89053809D01*
X104884047Y-89053809D02*
X104788809Y-89006190D01*
X104788809Y-89006190D02*
X104598333Y-88958571D01*
X104598333Y-88958571D02*
X104503095Y-88910952D01*
X104503095Y-88910952D02*
X104455476Y-88863333D01*
X104455476Y-88863333D02*
X104407857Y-88768095D01*
X104407857Y-88768095D02*
X104407857Y-88672857D01*
X104407857Y-88672857D02*
X104455476Y-88577619D01*
X104455476Y-88577619D02*
X104503095Y-88530000D01*
X104503095Y-88530000D02*
X104598333Y-88482380D01*
X104598333Y-88482380D02*
X104836428Y-88482380D01*
X104836428Y-88482380D02*
X104979285Y-88530000D01*
X105931666Y-89482380D02*
X105360238Y-89482380D01*
X105645952Y-89482380D02*
X105645952Y-88482380D01*
X105645952Y-88482380D02*
X105550714Y-88625238D01*
X105550714Y-88625238D02*
X105455476Y-88720476D01*
X105455476Y-88720476D02*
X105360238Y-88768095D01*
X108194048Y-84441428D02*
X108955953Y-84441428D01*
X108575000Y-84822380D02*
X108575000Y-84060476D01*
%TO.C,C9*%
X158928142Y-63806666D02*
X158975761Y-63854285D01*
X158975761Y-63854285D02*
X159023380Y-63997142D01*
X159023380Y-63997142D02*
X159023380Y-64092380D01*
X159023380Y-64092380D02*
X158975761Y-64235237D01*
X158975761Y-64235237D02*
X158880523Y-64330475D01*
X158880523Y-64330475D02*
X158785285Y-64378094D01*
X158785285Y-64378094D02*
X158594809Y-64425713D01*
X158594809Y-64425713D02*
X158451952Y-64425713D01*
X158451952Y-64425713D02*
X158261476Y-64378094D01*
X158261476Y-64378094D02*
X158166238Y-64330475D01*
X158166238Y-64330475D02*
X158071000Y-64235237D01*
X158071000Y-64235237D02*
X158023380Y-64092380D01*
X158023380Y-64092380D02*
X158023380Y-63997142D01*
X158023380Y-63997142D02*
X158071000Y-63854285D01*
X158071000Y-63854285D02*
X158118619Y-63806666D01*
X159023380Y-63330475D02*
X159023380Y-63139999D01*
X159023380Y-63139999D02*
X158975761Y-63044761D01*
X158975761Y-63044761D02*
X158928142Y-62997142D01*
X158928142Y-62997142D02*
X158785285Y-62901904D01*
X158785285Y-62901904D02*
X158594809Y-62854285D01*
X158594809Y-62854285D02*
X158213857Y-62854285D01*
X158213857Y-62854285D02*
X158118619Y-62901904D01*
X158118619Y-62901904D02*
X158071000Y-62949523D01*
X158071000Y-62949523D02*
X158023380Y-63044761D01*
X158023380Y-63044761D02*
X158023380Y-63235237D01*
X158023380Y-63235237D02*
X158071000Y-63330475D01*
X158071000Y-63330475D02*
X158118619Y-63378094D01*
X158118619Y-63378094D02*
X158213857Y-63425713D01*
X158213857Y-63425713D02*
X158451952Y-63425713D01*
X158451952Y-63425713D02*
X158547190Y-63378094D01*
X158547190Y-63378094D02*
X158594809Y-63330475D01*
X158594809Y-63330475D02*
X158642428Y-63235237D01*
X158642428Y-63235237D02*
X158642428Y-63044761D01*
X158642428Y-63044761D02*
X158594809Y-62949523D01*
X158594809Y-62949523D02*
X158547190Y-62901904D01*
X158547190Y-62901904D02*
X158451952Y-62854285D01*
%TO.C,R5*%
X104507380Y-50251666D02*
X104031190Y-50584999D01*
X104507380Y-50823094D02*
X103507380Y-50823094D01*
X103507380Y-50823094D02*
X103507380Y-50442142D01*
X103507380Y-50442142D02*
X103555000Y-50346904D01*
X103555000Y-50346904D02*
X103602619Y-50299285D01*
X103602619Y-50299285D02*
X103697857Y-50251666D01*
X103697857Y-50251666D02*
X103840714Y-50251666D01*
X103840714Y-50251666D02*
X103935952Y-50299285D01*
X103935952Y-50299285D02*
X103983571Y-50346904D01*
X103983571Y-50346904D02*
X104031190Y-50442142D01*
X104031190Y-50442142D02*
X104031190Y-50823094D01*
X103507380Y-49346904D02*
X103507380Y-49823094D01*
X103507380Y-49823094D02*
X103983571Y-49870713D01*
X103983571Y-49870713D02*
X103935952Y-49823094D01*
X103935952Y-49823094D02*
X103888333Y-49727856D01*
X103888333Y-49727856D02*
X103888333Y-49489761D01*
X103888333Y-49489761D02*
X103935952Y-49394523D01*
X103935952Y-49394523D02*
X103983571Y-49346904D01*
X103983571Y-49346904D02*
X104078809Y-49299285D01*
X104078809Y-49299285D02*
X104316904Y-49299285D01*
X104316904Y-49299285D02*
X104412142Y-49346904D01*
X104412142Y-49346904D02*
X104459761Y-49394523D01*
X104459761Y-49394523D02*
X104507380Y-49489761D01*
X104507380Y-49489761D02*
X104507380Y-49727856D01*
X104507380Y-49727856D02*
X104459761Y-49823094D01*
X104459761Y-49823094D02*
X104412142Y-49870713D01*
%TO.C,U4*%
X142752380Y-69964404D02*
X143561904Y-69964404D01*
X143561904Y-69964404D02*
X143657142Y-69916785D01*
X143657142Y-69916785D02*
X143704761Y-69869166D01*
X143704761Y-69869166D02*
X143752380Y-69773928D01*
X143752380Y-69773928D02*
X143752380Y-69583452D01*
X143752380Y-69583452D02*
X143704761Y-69488214D01*
X143704761Y-69488214D02*
X143657142Y-69440595D01*
X143657142Y-69440595D02*
X143561904Y-69392976D01*
X143561904Y-69392976D02*
X142752380Y-69392976D01*
X143085714Y-68488214D02*
X143752380Y-68488214D01*
X142704761Y-68726309D02*
X143419047Y-68964404D01*
X143419047Y-68964404D02*
X143419047Y-68345357D01*
%TO.C,R6*%
X107047380Y-50251666D02*
X106571190Y-50584999D01*
X107047380Y-50823094D02*
X106047380Y-50823094D01*
X106047380Y-50823094D02*
X106047380Y-50442142D01*
X106047380Y-50442142D02*
X106095000Y-50346904D01*
X106095000Y-50346904D02*
X106142619Y-50299285D01*
X106142619Y-50299285D02*
X106237857Y-50251666D01*
X106237857Y-50251666D02*
X106380714Y-50251666D01*
X106380714Y-50251666D02*
X106475952Y-50299285D01*
X106475952Y-50299285D02*
X106523571Y-50346904D01*
X106523571Y-50346904D02*
X106571190Y-50442142D01*
X106571190Y-50442142D02*
X106571190Y-50823094D01*
X106047380Y-49394523D02*
X106047380Y-49584999D01*
X106047380Y-49584999D02*
X106095000Y-49680237D01*
X106095000Y-49680237D02*
X106142619Y-49727856D01*
X106142619Y-49727856D02*
X106285476Y-49823094D01*
X106285476Y-49823094D02*
X106475952Y-49870713D01*
X106475952Y-49870713D02*
X106856904Y-49870713D01*
X106856904Y-49870713D02*
X106952142Y-49823094D01*
X106952142Y-49823094D02*
X106999761Y-49775475D01*
X106999761Y-49775475D02*
X107047380Y-49680237D01*
X107047380Y-49680237D02*
X107047380Y-49489761D01*
X107047380Y-49489761D02*
X106999761Y-49394523D01*
X106999761Y-49394523D02*
X106952142Y-49346904D01*
X106952142Y-49346904D02*
X106856904Y-49299285D01*
X106856904Y-49299285D02*
X106618809Y-49299285D01*
X106618809Y-49299285D02*
X106523571Y-49346904D01*
X106523571Y-49346904D02*
X106475952Y-49394523D01*
X106475952Y-49394523D02*
X106428333Y-49489761D01*
X106428333Y-49489761D02*
X106428333Y-49680237D01*
X106428333Y-49680237D02*
X106475952Y-49775475D01*
X106475952Y-49775475D02*
X106523571Y-49823094D01*
X106523571Y-49823094D02*
X106618809Y-49870713D01*
%TO.C,S3*%
X164896895Y-33542961D02*
X165039752Y-33590580D01*
X165039752Y-33590580D02*
X165277847Y-33590580D01*
X165277847Y-33590580D02*
X165373085Y-33542961D01*
X165373085Y-33542961D02*
X165420704Y-33495342D01*
X165420704Y-33495342D02*
X165468323Y-33400104D01*
X165468323Y-33400104D02*
X165468323Y-33304866D01*
X165468323Y-33304866D02*
X165420704Y-33209628D01*
X165420704Y-33209628D02*
X165373085Y-33162009D01*
X165373085Y-33162009D02*
X165277847Y-33114390D01*
X165277847Y-33114390D02*
X165087371Y-33066771D01*
X165087371Y-33066771D02*
X164992133Y-33019152D01*
X164992133Y-33019152D02*
X164944514Y-32971533D01*
X164944514Y-32971533D02*
X164896895Y-32876295D01*
X164896895Y-32876295D02*
X164896895Y-32781057D01*
X164896895Y-32781057D02*
X164944514Y-32685819D01*
X164944514Y-32685819D02*
X164992133Y-32638200D01*
X164992133Y-32638200D02*
X165087371Y-32590580D01*
X165087371Y-32590580D02*
X165325466Y-32590580D01*
X165325466Y-32590580D02*
X165468323Y-32638200D01*
X165801657Y-32590580D02*
X166420704Y-32590580D01*
X166420704Y-32590580D02*
X166087371Y-32971533D01*
X166087371Y-32971533D02*
X166230228Y-32971533D01*
X166230228Y-32971533D02*
X166325466Y-33019152D01*
X166325466Y-33019152D02*
X166373085Y-33066771D01*
X166373085Y-33066771D02*
X166420704Y-33162009D01*
X166420704Y-33162009D02*
X166420704Y-33400104D01*
X166420704Y-33400104D02*
X166373085Y-33495342D01*
X166373085Y-33495342D02*
X166325466Y-33542961D01*
X166325466Y-33542961D02*
X166230228Y-33590580D01*
X166230228Y-33590580D02*
X165944514Y-33590580D01*
X165944514Y-33590580D02*
X165849276Y-33542961D01*
X165849276Y-33542961D02*
X165801657Y-33495342D01*
%TO.C,R9*%
X109587380Y-68031666D02*
X109111190Y-68364999D01*
X109587380Y-68603094D02*
X108587380Y-68603094D01*
X108587380Y-68603094D02*
X108587380Y-68222142D01*
X108587380Y-68222142D02*
X108635000Y-68126904D01*
X108635000Y-68126904D02*
X108682619Y-68079285D01*
X108682619Y-68079285D02*
X108777857Y-68031666D01*
X108777857Y-68031666D02*
X108920714Y-68031666D01*
X108920714Y-68031666D02*
X109015952Y-68079285D01*
X109015952Y-68079285D02*
X109063571Y-68126904D01*
X109063571Y-68126904D02*
X109111190Y-68222142D01*
X109111190Y-68222142D02*
X109111190Y-68603094D01*
X109587380Y-67555475D02*
X109587380Y-67364999D01*
X109587380Y-67364999D02*
X109539761Y-67269761D01*
X109539761Y-67269761D02*
X109492142Y-67222142D01*
X109492142Y-67222142D02*
X109349285Y-67126904D01*
X109349285Y-67126904D02*
X109158809Y-67079285D01*
X109158809Y-67079285D02*
X108777857Y-67079285D01*
X108777857Y-67079285D02*
X108682619Y-67126904D01*
X108682619Y-67126904D02*
X108635000Y-67174523D01*
X108635000Y-67174523D02*
X108587380Y-67269761D01*
X108587380Y-67269761D02*
X108587380Y-67460237D01*
X108587380Y-67460237D02*
X108635000Y-67555475D01*
X108635000Y-67555475D02*
X108682619Y-67603094D01*
X108682619Y-67603094D02*
X108777857Y-67650713D01*
X108777857Y-67650713D02*
X109015952Y-67650713D01*
X109015952Y-67650713D02*
X109111190Y-67603094D01*
X109111190Y-67603094D02*
X109158809Y-67555475D01*
X109158809Y-67555475D02*
X109206428Y-67460237D01*
X109206428Y-67460237D02*
X109206428Y-67269761D01*
X109206428Y-67269761D02*
X109158809Y-67174523D01*
X109158809Y-67174523D02*
X109111190Y-67126904D01*
X109111190Y-67126904D02*
X109015952Y-67079285D01*
%TO.C,C1*%
X104539142Y-34202666D02*
X104586761Y-34250285D01*
X104586761Y-34250285D02*
X104634380Y-34393142D01*
X104634380Y-34393142D02*
X104634380Y-34488380D01*
X104634380Y-34488380D02*
X104586761Y-34631237D01*
X104586761Y-34631237D02*
X104491523Y-34726475D01*
X104491523Y-34726475D02*
X104396285Y-34774094D01*
X104396285Y-34774094D02*
X104205809Y-34821713D01*
X104205809Y-34821713D02*
X104062952Y-34821713D01*
X104062952Y-34821713D02*
X103872476Y-34774094D01*
X103872476Y-34774094D02*
X103777238Y-34726475D01*
X103777238Y-34726475D02*
X103682000Y-34631237D01*
X103682000Y-34631237D02*
X103634380Y-34488380D01*
X103634380Y-34488380D02*
X103634380Y-34393142D01*
X103634380Y-34393142D02*
X103682000Y-34250285D01*
X103682000Y-34250285D02*
X103729619Y-34202666D01*
X104634380Y-33250285D02*
X104634380Y-33821713D01*
X104634380Y-33535999D02*
X103634380Y-33535999D01*
X103634380Y-33535999D02*
X103777238Y-33631237D01*
X103777238Y-33631237D02*
X103872476Y-33726475D01*
X103872476Y-33726475D02*
X103920095Y-33821713D01*
%TO.C,F1*%
X136826666Y-73503571D02*
X136493333Y-73503571D01*
X136493333Y-74027380D02*
X136493333Y-73027380D01*
X136493333Y-73027380D02*
X136969523Y-73027380D01*
X137874285Y-74027380D02*
X137302857Y-74027380D01*
X137588571Y-74027380D02*
X137588571Y-73027380D01*
X137588571Y-73027380D02*
X137493333Y-73170238D01*
X137493333Y-73170238D02*
X137398095Y-73265476D01*
X137398095Y-73265476D02*
X137302857Y-73313095D01*
%TO.C,C8*%
X134939342Y-36402266D02*
X134986961Y-36449885D01*
X134986961Y-36449885D02*
X135034580Y-36592742D01*
X135034580Y-36592742D02*
X135034580Y-36687980D01*
X135034580Y-36687980D02*
X134986961Y-36830837D01*
X134986961Y-36830837D02*
X134891723Y-36926075D01*
X134891723Y-36926075D02*
X134796485Y-36973694D01*
X134796485Y-36973694D02*
X134606009Y-37021313D01*
X134606009Y-37021313D02*
X134463152Y-37021313D01*
X134463152Y-37021313D02*
X134272676Y-36973694D01*
X134272676Y-36973694D02*
X134177438Y-36926075D01*
X134177438Y-36926075D02*
X134082200Y-36830837D01*
X134082200Y-36830837D02*
X134034580Y-36687980D01*
X134034580Y-36687980D02*
X134034580Y-36592742D01*
X134034580Y-36592742D02*
X134082200Y-36449885D01*
X134082200Y-36449885D02*
X134129819Y-36402266D01*
X134463152Y-35830837D02*
X134415533Y-35926075D01*
X134415533Y-35926075D02*
X134367914Y-35973694D01*
X134367914Y-35973694D02*
X134272676Y-36021313D01*
X134272676Y-36021313D02*
X134225057Y-36021313D01*
X134225057Y-36021313D02*
X134129819Y-35973694D01*
X134129819Y-35973694D02*
X134082200Y-35926075D01*
X134082200Y-35926075D02*
X134034580Y-35830837D01*
X134034580Y-35830837D02*
X134034580Y-35640361D01*
X134034580Y-35640361D02*
X134082200Y-35545123D01*
X134082200Y-35545123D02*
X134129819Y-35497504D01*
X134129819Y-35497504D02*
X134225057Y-35449885D01*
X134225057Y-35449885D02*
X134272676Y-35449885D01*
X134272676Y-35449885D02*
X134367914Y-35497504D01*
X134367914Y-35497504D02*
X134415533Y-35545123D01*
X134415533Y-35545123D02*
X134463152Y-35640361D01*
X134463152Y-35640361D02*
X134463152Y-35830837D01*
X134463152Y-35830837D02*
X134510771Y-35926075D01*
X134510771Y-35926075D02*
X134558390Y-35973694D01*
X134558390Y-35973694D02*
X134653628Y-36021313D01*
X134653628Y-36021313D02*
X134844104Y-36021313D01*
X134844104Y-36021313D02*
X134939342Y-35973694D01*
X134939342Y-35973694D02*
X134986961Y-35926075D01*
X134986961Y-35926075D02*
X135034580Y-35830837D01*
X135034580Y-35830837D02*
X135034580Y-35640361D01*
X135034580Y-35640361D02*
X134986961Y-35545123D01*
X134986961Y-35545123D02*
X134939342Y-35497504D01*
X134939342Y-35497504D02*
X134844104Y-35449885D01*
X134844104Y-35449885D02*
X134653628Y-35449885D01*
X134653628Y-35449885D02*
X134558390Y-35497504D01*
X134558390Y-35497504D02*
X134510771Y-35545123D01*
X134510771Y-35545123D02*
X134463152Y-35640361D01*
%TO.C,R2*%
X177912380Y-54673166D02*
X177436190Y-55006499D01*
X177912380Y-55244594D02*
X176912380Y-55244594D01*
X176912380Y-55244594D02*
X176912380Y-54863642D01*
X176912380Y-54863642D02*
X176960000Y-54768404D01*
X176960000Y-54768404D02*
X177007619Y-54720785D01*
X177007619Y-54720785D02*
X177102857Y-54673166D01*
X177102857Y-54673166D02*
X177245714Y-54673166D01*
X177245714Y-54673166D02*
X177340952Y-54720785D01*
X177340952Y-54720785D02*
X177388571Y-54768404D01*
X177388571Y-54768404D02*
X177436190Y-54863642D01*
X177436190Y-54863642D02*
X177436190Y-55244594D01*
X177007619Y-54292213D02*
X176960000Y-54244594D01*
X176960000Y-54244594D02*
X176912380Y-54149356D01*
X176912380Y-54149356D02*
X176912380Y-53911261D01*
X176912380Y-53911261D02*
X176960000Y-53816023D01*
X176960000Y-53816023D02*
X177007619Y-53768404D01*
X177007619Y-53768404D02*
X177102857Y-53720785D01*
X177102857Y-53720785D02*
X177198095Y-53720785D01*
X177198095Y-53720785D02*
X177340952Y-53768404D01*
X177340952Y-53768404D02*
X177912380Y-54339832D01*
X177912380Y-54339832D02*
X177912380Y-53720785D01*
%TO.C,J3*%
X161189380Y-62817333D02*
X161903666Y-62817333D01*
X161903666Y-62817333D02*
X162046523Y-62864952D01*
X162046523Y-62864952D02*
X162141761Y-62960190D01*
X162141761Y-62960190D02*
X162189380Y-63103047D01*
X162189380Y-63103047D02*
X162189380Y-63198285D01*
X161189380Y-62436380D02*
X161189380Y-61817333D01*
X161189380Y-61817333D02*
X161570333Y-62150666D01*
X161570333Y-62150666D02*
X161570333Y-62007809D01*
X161570333Y-62007809D02*
X161617952Y-61912571D01*
X161617952Y-61912571D02*
X161665571Y-61864952D01*
X161665571Y-61864952D02*
X161760809Y-61817333D01*
X161760809Y-61817333D02*
X161998904Y-61817333D01*
X161998904Y-61817333D02*
X162094142Y-61864952D01*
X162094142Y-61864952D02*
X162141761Y-61912571D01*
X162141761Y-61912571D02*
X162189380Y-62007809D01*
X162189380Y-62007809D02*
X162189380Y-62293523D01*
X162189380Y-62293523D02*
X162141761Y-62388761D01*
X162141761Y-62388761D02*
X162094142Y-62436380D01*
%TO.C,C13*%
X169918142Y-76091142D02*
X169870523Y-76138761D01*
X169870523Y-76138761D02*
X169727666Y-76186380D01*
X169727666Y-76186380D02*
X169632428Y-76186380D01*
X169632428Y-76186380D02*
X169489571Y-76138761D01*
X169489571Y-76138761D02*
X169394333Y-76043523D01*
X169394333Y-76043523D02*
X169346714Y-75948285D01*
X169346714Y-75948285D02*
X169299095Y-75757809D01*
X169299095Y-75757809D02*
X169299095Y-75614952D01*
X169299095Y-75614952D02*
X169346714Y-75424476D01*
X169346714Y-75424476D02*
X169394333Y-75329238D01*
X169394333Y-75329238D02*
X169489571Y-75234000D01*
X169489571Y-75234000D02*
X169632428Y-75186380D01*
X169632428Y-75186380D02*
X169727666Y-75186380D01*
X169727666Y-75186380D02*
X169870523Y-75234000D01*
X169870523Y-75234000D02*
X169918142Y-75281619D01*
X170870523Y-76186380D02*
X170299095Y-76186380D01*
X170584809Y-76186380D02*
X170584809Y-75186380D01*
X170584809Y-75186380D02*
X170489571Y-75329238D01*
X170489571Y-75329238D02*
X170394333Y-75424476D01*
X170394333Y-75424476D02*
X170299095Y-75472095D01*
X171203857Y-75186380D02*
X171822904Y-75186380D01*
X171822904Y-75186380D02*
X171489571Y-75567333D01*
X171489571Y-75567333D02*
X171632428Y-75567333D01*
X171632428Y-75567333D02*
X171727666Y-75614952D01*
X171727666Y-75614952D02*
X171775285Y-75662571D01*
X171775285Y-75662571D02*
X171822904Y-75757809D01*
X171822904Y-75757809D02*
X171822904Y-75995904D01*
X171822904Y-75995904D02*
X171775285Y-76091142D01*
X171775285Y-76091142D02*
X171727666Y-76138761D01*
X171727666Y-76138761D02*
X171632428Y-76186380D01*
X171632428Y-76186380D02*
X171346714Y-76186380D01*
X171346714Y-76186380D02*
X171251476Y-76138761D01*
X171251476Y-76138761D02*
X171203857Y-76091142D01*
%TO.C,R16*%
X158101380Y-80602057D02*
X157625190Y-80935390D01*
X158101380Y-81173485D02*
X157101380Y-81173485D01*
X157101380Y-81173485D02*
X157101380Y-80792533D01*
X157101380Y-80792533D02*
X157149000Y-80697295D01*
X157149000Y-80697295D02*
X157196619Y-80649676D01*
X157196619Y-80649676D02*
X157291857Y-80602057D01*
X157291857Y-80602057D02*
X157434714Y-80602057D01*
X157434714Y-80602057D02*
X157529952Y-80649676D01*
X157529952Y-80649676D02*
X157577571Y-80697295D01*
X157577571Y-80697295D02*
X157625190Y-80792533D01*
X157625190Y-80792533D02*
X157625190Y-81173485D01*
X158101380Y-79649676D02*
X158101380Y-80221104D01*
X158101380Y-79935390D02*
X157101380Y-79935390D01*
X157101380Y-79935390D02*
X157244238Y-80030628D01*
X157244238Y-80030628D02*
X157339476Y-80125866D01*
X157339476Y-80125866D02*
X157387095Y-80221104D01*
X157101380Y-78792533D02*
X157101380Y-78983009D01*
X157101380Y-78983009D02*
X157149000Y-79078247D01*
X157149000Y-79078247D02*
X157196619Y-79125866D01*
X157196619Y-79125866D02*
X157339476Y-79221104D01*
X157339476Y-79221104D02*
X157529952Y-79268723D01*
X157529952Y-79268723D02*
X157910904Y-79268723D01*
X157910904Y-79268723D02*
X158006142Y-79221104D01*
X158006142Y-79221104D02*
X158053761Y-79173485D01*
X158053761Y-79173485D02*
X158101380Y-79078247D01*
X158101380Y-79078247D02*
X158101380Y-78887771D01*
X158101380Y-78887771D02*
X158053761Y-78792533D01*
X158053761Y-78792533D02*
X158006142Y-78744914D01*
X158006142Y-78744914D02*
X157910904Y-78697295D01*
X157910904Y-78697295D02*
X157672809Y-78697295D01*
X157672809Y-78697295D02*
X157577571Y-78744914D01*
X157577571Y-78744914D02*
X157529952Y-78792533D01*
X157529952Y-78792533D02*
X157482333Y-78887771D01*
X157482333Y-78887771D02*
X157482333Y-79078247D01*
X157482333Y-79078247D02*
X157529952Y-79173485D01*
X157529952Y-79173485D02*
X157577571Y-79221104D01*
X157577571Y-79221104D02*
X157672809Y-79268723D01*
%TO.C,Y1*%
X160010809Y-44341190D02*
X160010809Y-44817380D01*
X159677476Y-43817380D02*
X160010809Y-44341190D01*
X160010809Y-44341190D02*
X160344142Y-43817380D01*
X161201285Y-44817380D02*
X160629857Y-44817380D01*
X160915571Y-44817380D02*
X160915571Y-43817380D01*
X160915571Y-43817380D02*
X160820333Y-43960238D01*
X160820333Y-43960238D02*
X160725095Y-44055476D01*
X160725095Y-44055476D02*
X160629857Y-44103095D01*
%TO.C,R4*%
X128380833Y-29450380D02*
X128047500Y-28974190D01*
X127809405Y-29450380D02*
X127809405Y-28450380D01*
X127809405Y-28450380D02*
X128190357Y-28450380D01*
X128190357Y-28450380D02*
X128285595Y-28498000D01*
X128285595Y-28498000D02*
X128333214Y-28545619D01*
X128333214Y-28545619D02*
X128380833Y-28640857D01*
X128380833Y-28640857D02*
X128380833Y-28783714D01*
X128380833Y-28783714D02*
X128333214Y-28878952D01*
X128333214Y-28878952D02*
X128285595Y-28926571D01*
X128285595Y-28926571D02*
X128190357Y-28974190D01*
X128190357Y-28974190D02*
X127809405Y-28974190D01*
X129237976Y-28783714D02*
X129237976Y-29450380D01*
X128999881Y-28402761D02*
X128761786Y-29117047D01*
X128761786Y-29117047D02*
X129380833Y-29117047D01*
%TO.C,C6*%
X139867142Y-58166666D02*
X139914761Y-58214285D01*
X139914761Y-58214285D02*
X139962380Y-58357142D01*
X139962380Y-58357142D02*
X139962380Y-58452380D01*
X139962380Y-58452380D02*
X139914761Y-58595237D01*
X139914761Y-58595237D02*
X139819523Y-58690475D01*
X139819523Y-58690475D02*
X139724285Y-58738094D01*
X139724285Y-58738094D02*
X139533809Y-58785713D01*
X139533809Y-58785713D02*
X139390952Y-58785713D01*
X139390952Y-58785713D02*
X139200476Y-58738094D01*
X139200476Y-58738094D02*
X139105238Y-58690475D01*
X139105238Y-58690475D02*
X139010000Y-58595237D01*
X139010000Y-58595237D02*
X138962380Y-58452380D01*
X138962380Y-58452380D02*
X138962380Y-58357142D01*
X138962380Y-58357142D02*
X139010000Y-58214285D01*
X139010000Y-58214285D02*
X139057619Y-58166666D01*
X138962380Y-57309523D02*
X138962380Y-57499999D01*
X138962380Y-57499999D02*
X139010000Y-57595237D01*
X139010000Y-57595237D02*
X139057619Y-57642856D01*
X139057619Y-57642856D02*
X139200476Y-57738094D01*
X139200476Y-57738094D02*
X139390952Y-57785713D01*
X139390952Y-57785713D02*
X139771904Y-57785713D01*
X139771904Y-57785713D02*
X139867142Y-57738094D01*
X139867142Y-57738094D02*
X139914761Y-57690475D01*
X139914761Y-57690475D02*
X139962380Y-57595237D01*
X139962380Y-57595237D02*
X139962380Y-57404761D01*
X139962380Y-57404761D02*
X139914761Y-57309523D01*
X139914761Y-57309523D02*
X139867142Y-57261904D01*
X139867142Y-57261904D02*
X139771904Y-57214285D01*
X139771904Y-57214285D02*
X139533809Y-57214285D01*
X139533809Y-57214285D02*
X139438571Y-57261904D01*
X139438571Y-57261904D02*
X139390952Y-57309523D01*
X139390952Y-57309523D02*
X139343333Y-57404761D01*
X139343333Y-57404761D02*
X139343333Y-57595237D01*
X139343333Y-57595237D02*
X139390952Y-57690475D01*
X139390952Y-57690475D02*
X139438571Y-57738094D01*
X139438571Y-57738094D02*
X139533809Y-57785713D01*
%TO.C,C14*%
X166261142Y-71254857D02*
X166308761Y-71302476D01*
X166308761Y-71302476D02*
X166356380Y-71445333D01*
X166356380Y-71445333D02*
X166356380Y-71540571D01*
X166356380Y-71540571D02*
X166308761Y-71683428D01*
X166308761Y-71683428D02*
X166213523Y-71778666D01*
X166213523Y-71778666D02*
X166118285Y-71826285D01*
X166118285Y-71826285D02*
X165927809Y-71873904D01*
X165927809Y-71873904D02*
X165784952Y-71873904D01*
X165784952Y-71873904D02*
X165594476Y-71826285D01*
X165594476Y-71826285D02*
X165499238Y-71778666D01*
X165499238Y-71778666D02*
X165404000Y-71683428D01*
X165404000Y-71683428D02*
X165356380Y-71540571D01*
X165356380Y-71540571D02*
X165356380Y-71445333D01*
X165356380Y-71445333D02*
X165404000Y-71302476D01*
X165404000Y-71302476D02*
X165451619Y-71254857D01*
X166356380Y-70302476D02*
X166356380Y-70873904D01*
X166356380Y-70588190D02*
X165356380Y-70588190D01*
X165356380Y-70588190D02*
X165499238Y-70683428D01*
X165499238Y-70683428D02*
X165594476Y-70778666D01*
X165594476Y-70778666D02*
X165642095Y-70873904D01*
X165689714Y-69445333D02*
X166356380Y-69445333D01*
X165308761Y-69683428D02*
X166023047Y-69921523D01*
X166023047Y-69921523D02*
X166023047Y-69302476D01*
%TO.C,R14*%
X150492380Y-79382857D02*
X150016190Y-79716190D01*
X150492380Y-79954285D02*
X149492380Y-79954285D01*
X149492380Y-79954285D02*
X149492380Y-79573333D01*
X149492380Y-79573333D02*
X149540000Y-79478095D01*
X149540000Y-79478095D02*
X149587619Y-79430476D01*
X149587619Y-79430476D02*
X149682857Y-79382857D01*
X149682857Y-79382857D02*
X149825714Y-79382857D01*
X149825714Y-79382857D02*
X149920952Y-79430476D01*
X149920952Y-79430476D02*
X149968571Y-79478095D01*
X149968571Y-79478095D02*
X150016190Y-79573333D01*
X150016190Y-79573333D02*
X150016190Y-79954285D01*
X150492380Y-78430476D02*
X150492380Y-79001904D01*
X150492380Y-78716190D02*
X149492380Y-78716190D01*
X149492380Y-78716190D02*
X149635238Y-78811428D01*
X149635238Y-78811428D02*
X149730476Y-78906666D01*
X149730476Y-78906666D02*
X149778095Y-79001904D01*
X149825714Y-77573333D02*
X150492380Y-77573333D01*
X149444761Y-77811428D02*
X150159047Y-78049523D01*
X150159047Y-78049523D02*
X150159047Y-77430476D01*
%TO.C,C5*%
X141313333Y-63017142D02*
X141265714Y-63064761D01*
X141265714Y-63064761D02*
X141122857Y-63112380D01*
X141122857Y-63112380D02*
X141027619Y-63112380D01*
X141027619Y-63112380D02*
X140884762Y-63064761D01*
X140884762Y-63064761D02*
X140789524Y-62969523D01*
X140789524Y-62969523D02*
X140741905Y-62874285D01*
X140741905Y-62874285D02*
X140694286Y-62683809D01*
X140694286Y-62683809D02*
X140694286Y-62540952D01*
X140694286Y-62540952D02*
X140741905Y-62350476D01*
X140741905Y-62350476D02*
X140789524Y-62255238D01*
X140789524Y-62255238D02*
X140884762Y-62160000D01*
X140884762Y-62160000D02*
X141027619Y-62112380D01*
X141027619Y-62112380D02*
X141122857Y-62112380D01*
X141122857Y-62112380D02*
X141265714Y-62160000D01*
X141265714Y-62160000D02*
X141313333Y-62207619D01*
X142218095Y-62112380D02*
X141741905Y-62112380D01*
X141741905Y-62112380D02*
X141694286Y-62588571D01*
X141694286Y-62588571D02*
X141741905Y-62540952D01*
X141741905Y-62540952D02*
X141837143Y-62493333D01*
X141837143Y-62493333D02*
X142075238Y-62493333D01*
X142075238Y-62493333D02*
X142170476Y-62540952D01*
X142170476Y-62540952D02*
X142218095Y-62588571D01*
X142218095Y-62588571D02*
X142265714Y-62683809D01*
X142265714Y-62683809D02*
X142265714Y-62921904D01*
X142265714Y-62921904D02*
X142218095Y-63017142D01*
X142218095Y-63017142D02*
X142170476Y-63064761D01*
X142170476Y-63064761D02*
X142075238Y-63112380D01*
X142075238Y-63112380D02*
X141837143Y-63112380D01*
X141837143Y-63112380D02*
X141741905Y-63064761D01*
X141741905Y-63064761D02*
X141694286Y-63017142D01*
%TO.C,C11*%
X158917142Y-60687857D02*
X158964761Y-60735476D01*
X158964761Y-60735476D02*
X159012380Y-60878333D01*
X159012380Y-60878333D02*
X159012380Y-60973571D01*
X159012380Y-60973571D02*
X158964761Y-61116428D01*
X158964761Y-61116428D02*
X158869523Y-61211666D01*
X158869523Y-61211666D02*
X158774285Y-61259285D01*
X158774285Y-61259285D02*
X158583809Y-61306904D01*
X158583809Y-61306904D02*
X158440952Y-61306904D01*
X158440952Y-61306904D02*
X158250476Y-61259285D01*
X158250476Y-61259285D02*
X158155238Y-61211666D01*
X158155238Y-61211666D02*
X158060000Y-61116428D01*
X158060000Y-61116428D02*
X158012380Y-60973571D01*
X158012380Y-60973571D02*
X158012380Y-60878333D01*
X158012380Y-60878333D02*
X158060000Y-60735476D01*
X158060000Y-60735476D02*
X158107619Y-60687857D01*
X159012380Y-59735476D02*
X159012380Y-60306904D01*
X159012380Y-60021190D02*
X158012380Y-60021190D01*
X158012380Y-60021190D02*
X158155238Y-60116428D01*
X158155238Y-60116428D02*
X158250476Y-60211666D01*
X158250476Y-60211666D02*
X158298095Y-60306904D01*
X159012380Y-58783095D02*
X159012380Y-59354523D01*
X159012380Y-59068809D02*
X158012380Y-59068809D01*
X158012380Y-59068809D02*
X158155238Y-59164047D01*
X158155238Y-59164047D02*
X158250476Y-59259285D01*
X158250476Y-59259285D02*
X158298095Y-59354523D01*
D11*
%TO.C,S1*%
X185091097Y-39867619D02*
X185151573Y-39686190D01*
X185151573Y-39686190D02*
X185151573Y-39383809D01*
X185151573Y-39383809D02*
X185091097Y-39262857D01*
X185091097Y-39262857D02*
X185030621Y-39202381D01*
X185030621Y-39202381D02*
X184909669Y-39141904D01*
X184909669Y-39141904D02*
X184788716Y-39141904D01*
X184788716Y-39141904D02*
X184667764Y-39202381D01*
X184667764Y-39202381D02*
X184607288Y-39262857D01*
X184607288Y-39262857D02*
X184546811Y-39383809D01*
X184546811Y-39383809D02*
X184486335Y-39625714D01*
X184486335Y-39625714D02*
X184425859Y-39746666D01*
X184425859Y-39746666D02*
X184365383Y-39807143D01*
X184365383Y-39807143D02*
X184244430Y-39867619D01*
X184244430Y-39867619D02*
X184123478Y-39867619D01*
X184123478Y-39867619D02*
X184002526Y-39807143D01*
X184002526Y-39807143D02*
X183942050Y-39746666D01*
X183942050Y-39746666D02*
X183881573Y-39625714D01*
X183881573Y-39625714D02*
X183881573Y-39323333D01*
X183881573Y-39323333D02*
X183942050Y-39141904D01*
X185151573Y-37932380D02*
X185151573Y-38658095D01*
X185151573Y-38295238D02*
X183881573Y-38295238D01*
X183881573Y-38295238D02*
X184063002Y-38416190D01*
X184063002Y-38416190D02*
X184183954Y-38537142D01*
X184183954Y-38537142D02*
X184244430Y-38658095D01*
D10*
%TO.C,C4*%
X153086142Y-61621666D02*
X153133761Y-61669285D01*
X153133761Y-61669285D02*
X153181380Y-61812142D01*
X153181380Y-61812142D02*
X153181380Y-61907380D01*
X153181380Y-61907380D02*
X153133761Y-62050237D01*
X153133761Y-62050237D02*
X153038523Y-62145475D01*
X153038523Y-62145475D02*
X152943285Y-62193094D01*
X152943285Y-62193094D02*
X152752809Y-62240713D01*
X152752809Y-62240713D02*
X152609952Y-62240713D01*
X152609952Y-62240713D02*
X152419476Y-62193094D01*
X152419476Y-62193094D02*
X152324238Y-62145475D01*
X152324238Y-62145475D02*
X152229000Y-62050237D01*
X152229000Y-62050237D02*
X152181380Y-61907380D01*
X152181380Y-61907380D02*
X152181380Y-61812142D01*
X152181380Y-61812142D02*
X152229000Y-61669285D01*
X152229000Y-61669285D02*
X152276619Y-61621666D01*
X152514714Y-60764523D02*
X153181380Y-60764523D01*
X152133761Y-61002618D02*
X152848047Y-61240713D01*
X152848047Y-61240713D02*
X152848047Y-60621666D01*
%TO.C,C10*%
X149707142Y-40862857D02*
X149754761Y-40910476D01*
X149754761Y-40910476D02*
X149802380Y-41053333D01*
X149802380Y-41053333D02*
X149802380Y-41148571D01*
X149802380Y-41148571D02*
X149754761Y-41291428D01*
X149754761Y-41291428D02*
X149659523Y-41386666D01*
X149659523Y-41386666D02*
X149564285Y-41434285D01*
X149564285Y-41434285D02*
X149373809Y-41481904D01*
X149373809Y-41481904D02*
X149230952Y-41481904D01*
X149230952Y-41481904D02*
X149040476Y-41434285D01*
X149040476Y-41434285D02*
X148945238Y-41386666D01*
X148945238Y-41386666D02*
X148850000Y-41291428D01*
X148850000Y-41291428D02*
X148802380Y-41148571D01*
X148802380Y-41148571D02*
X148802380Y-41053333D01*
X148802380Y-41053333D02*
X148850000Y-40910476D01*
X148850000Y-40910476D02*
X148897619Y-40862857D01*
X149802380Y-39910476D02*
X149802380Y-40481904D01*
X149802380Y-40196190D02*
X148802380Y-40196190D01*
X148802380Y-40196190D02*
X148945238Y-40291428D01*
X148945238Y-40291428D02*
X149040476Y-40386666D01*
X149040476Y-40386666D02*
X149088095Y-40481904D01*
X148802380Y-39291428D02*
X148802380Y-39196190D01*
X148802380Y-39196190D02*
X148850000Y-39100952D01*
X148850000Y-39100952D02*
X148897619Y-39053333D01*
X148897619Y-39053333D02*
X148992857Y-39005714D01*
X148992857Y-39005714D02*
X149183333Y-38958095D01*
X149183333Y-38958095D02*
X149421428Y-38958095D01*
X149421428Y-38958095D02*
X149611904Y-39005714D01*
X149611904Y-39005714D02*
X149707142Y-39053333D01*
X149707142Y-39053333D02*
X149754761Y-39100952D01*
X149754761Y-39100952D02*
X149802380Y-39196190D01*
X149802380Y-39196190D02*
X149802380Y-39291428D01*
X149802380Y-39291428D02*
X149754761Y-39386666D01*
X149754761Y-39386666D02*
X149707142Y-39434285D01*
X149707142Y-39434285D02*
X149611904Y-39481904D01*
X149611904Y-39481904D02*
X149421428Y-39529523D01*
X149421428Y-39529523D02*
X149183333Y-39529523D01*
X149183333Y-39529523D02*
X148992857Y-39481904D01*
X148992857Y-39481904D02*
X148897619Y-39434285D01*
X148897619Y-39434285D02*
X148850000Y-39386666D01*
X148850000Y-39386666D02*
X148802380Y-39291428D01*
%TO.C,R12*%
X104507380Y-67952857D02*
X104031190Y-68286190D01*
X104507380Y-68524285D02*
X103507380Y-68524285D01*
X103507380Y-68524285D02*
X103507380Y-68143333D01*
X103507380Y-68143333D02*
X103555000Y-68048095D01*
X103555000Y-68048095D02*
X103602619Y-68000476D01*
X103602619Y-68000476D02*
X103697857Y-67952857D01*
X103697857Y-67952857D02*
X103840714Y-67952857D01*
X103840714Y-67952857D02*
X103935952Y-68000476D01*
X103935952Y-68000476D02*
X103983571Y-68048095D01*
X103983571Y-68048095D02*
X104031190Y-68143333D01*
X104031190Y-68143333D02*
X104031190Y-68524285D01*
X104507380Y-67000476D02*
X104507380Y-67571904D01*
X104507380Y-67286190D02*
X103507380Y-67286190D01*
X103507380Y-67286190D02*
X103650238Y-67381428D01*
X103650238Y-67381428D02*
X103745476Y-67476666D01*
X103745476Y-67476666D02*
X103793095Y-67571904D01*
X103602619Y-66619523D02*
X103555000Y-66571904D01*
X103555000Y-66571904D02*
X103507380Y-66476666D01*
X103507380Y-66476666D02*
X103507380Y-66238571D01*
X103507380Y-66238571D02*
X103555000Y-66143333D01*
X103555000Y-66143333D02*
X103602619Y-66095714D01*
X103602619Y-66095714D02*
X103697857Y-66048095D01*
X103697857Y-66048095D02*
X103793095Y-66048095D01*
X103793095Y-66048095D02*
X103935952Y-66095714D01*
X103935952Y-66095714D02*
X104507380Y-66667142D01*
X104507380Y-66667142D02*
X104507380Y-66048095D01*
%TO.C,R3*%
X127872833Y-32371380D02*
X127539500Y-31895190D01*
X127301405Y-32371380D02*
X127301405Y-31371380D01*
X127301405Y-31371380D02*
X127682357Y-31371380D01*
X127682357Y-31371380D02*
X127777595Y-31419000D01*
X127777595Y-31419000D02*
X127825214Y-31466619D01*
X127825214Y-31466619D02*
X127872833Y-31561857D01*
X127872833Y-31561857D02*
X127872833Y-31704714D01*
X127872833Y-31704714D02*
X127825214Y-31799952D01*
X127825214Y-31799952D02*
X127777595Y-31847571D01*
X127777595Y-31847571D02*
X127682357Y-31895190D01*
X127682357Y-31895190D02*
X127301405Y-31895190D01*
X128206167Y-31371380D02*
X128825214Y-31371380D01*
X128825214Y-31371380D02*
X128491881Y-31752333D01*
X128491881Y-31752333D02*
X128634738Y-31752333D01*
X128634738Y-31752333D02*
X128729976Y-31799952D01*
X128729976Y-31799952D02*
X128777595Y-31847571D01*
X128777595Y-31847571D02*
X128825214Y-31942809D01*
X128825214Y-31942809D02*
X128825214Y-32180904D01*
X128825214Y-32180904D02*
X128777595Y-32276142D01*
X128777595Y-32276142D02*
X128729976Y-32323761D01*
X128729976Y-32323761D02*
X128634738Y-32371380D01*
X128634738Y-32371380D02*
X128349024Y-32371380D01*
X128349024Y-32371380D02*
X128253786Y-32323761D01*
X128253786Y-32323761D02*
X128206167Y-32276142D01*
%TO.C,D1*%
X115226180Y-33300894D02*
X114226180Y-33300894D01*
X114226180Y-33300894D02*
X114226180Y-33062799D01*
X114226180Y-33062799D02*
X114273800Y-32919942D01*
X114273800Y-32919942D02*
X114369038Y-32824704D01*
X114369038Y-32824704D02*
X114464276Y-32777085D01*
X114464276Y-32777085D02*
X114654752Y-32729466D01*
X114654752Y-32729466D02*
X114797609Y-32729466D01*
X114797609Y-32729466D02*
X114988085Y-32777085D01*
X114988085Y-32777085D02*
X115083323Y-32824704D01*
X115083323Y-32824704D02*
X115178561Y-32919942D01*
X115178561Y-32919942D02*
X115226180Y-33062799D01*
X115226180Y-33062799D02*
X115226180Y-33300894D01*
X115226180Y-31777085D02*
X115226180Y-32348513D01*
X115226180Y-32062799D02*
X114226180Y-32062799D01*
X114226180Y-32062799D02*
X114369038Y-32158037D01*
X114369038Y-32158037D02*
X114464276Y-32253275D01*
X114464276Y-32253275D02*
X114511895Y-32348513D01*
D12*
%TO.C,C3*%
X159851420Y-51560000D02*
X160132580Y-51560000D01*
X159851420Y-52580000D02*
X160132580Y-52580000D01*
%TO.C,U1*%
X131920000Y-67040000D02*
X131920000Y-65040000D01*
X131540000Y-84960000D02*
X131540000Y-34420000D01*
X131540000Y-84960000D02*
X112300000Y-84960000D01*
X131540000Y-34420000D02*
X112300000Y-34420000D01*
X112300000Y-34420000D02*
X112300000Y-84960000D01*
%TO.C,D2*%
X122753000Y-28492500D02*
X120833000Y-28492500D01*
X120833000Y-28492500D02*
X120833000Y-31177500D01*
X122753000Y-31177500D02*
X122753000Y-28492500D01*
%TO.C,R15*%
X143992500Y-76234758D02*
X143992500Y-75760242D01*
X145037500Y-76234758D02*
X145037500Y-75760242D01*
%TO.C,D3*%
X153980000Y-85172500D02*
X155900000Y-85172500D01*
X155900000Y-85172500D02*
X155900000Y-82487500D01*
X153980000Y-82487500D02*
X153980000Y-85172500D01*
%TO.C,R11*%
X102335000Y-52755436D02*
X102335000Y-53209564D01*
X100865000Y-52755436D02*
X100865000Y-53209564D01*
%TO.C,U2*%
X100400000Y-41587500D02*
X100400000Y-45187500D01*
X100400000Y-41587500D02*
X100400000Y-39387500D01*
X105870000Y-41587500D02*
X105870000Y-43787500D01*
X105870000Y-41587500D02*
X105870000Y-39387500D01*
D10*
%TO.C,U3*%
X142680000Y-56980000D02*
X143255000Y-56980000D01*
X142680000Y-56980000D02*
X142680000Y-56305000D01*
X143255000Y-56980000D02*
X143255000Y-58255000D01*
X153030000Y-56980000D02*
X152355000Y-56980000D01*
X153030000Y-56980000D02*
X153030000Y-56305000D01*
X142680000Y-46630000D02*
X142680000Y-47305000D01*
X142680000Y-46630000D02*
X143355000Y-46630000D01*
X153030000Y-46630000D02*
X153030000Y-47305000D01*
X153030000Y-46630000D02*
X152355000Y-46630000D01*
D12*
%TO.C,R13*%
X156195500Y-32787858D02*
X156195500Y-32313342D01*
X157240500Y-32787858D02*
X157240500Y-32313342D01*
%TO.C,U5*%
X169062000Y-70363500D02*
X169062000Y-72163500D01*
X169062000Y-70363500D02*
X169062000Y-69563500D01*
X172182000Y-70363500D02*
X172182000Y-71163500D01*
X172182000Y-70363500D02*
X172182000Y-69563500D01*
%TO.C,R8*%
X107415000Y-70535436D02*
X107415000Y-70989564D01*
X105945000Y-70535436D02*
X105945000Y-70989564D01*
%TO.C,C15*%
X175262000Y-70230420D02*
X175262000Y-70511580D01*
X174242000Y-70230420D02*
X174242000Y-70511580D01*
%TO.C,R7*%
X102335000Y-70535436D02*
X102335000Y-70989564D01*
X100865000Y-70535436D02*
X100865000Y-70989564D01*
%TO.C,C12*%
X137539000Y-52324580D02*
X137539000Y-52043420D01*
X138559000Y-52324580D02*
X138559000Y-52043420D01*
D13*
%TO.C,S2*%
X182780000Y-67820000D02*
X182780000Y-67820000D01*
X182880000Y-67820000D02*
X182880000Y-67820000D01*
D14*
X179380000Y-65220000D02*
X179380000Y-53220000D01*
X181780000Y-65220000D02*
X179380000Y-65220000D01*
X181780000Y-65220000D02*
X181780000Y-65220000D01*
X183980000Y-65220000D02*
X186780000Y-65220000D01*
X188980000Y-65220000D02*
X191380000Y-65220000D01*
X191380000Y-65220000D02*
X191380000Y-53220000D01*
X179380000Y-53220000D02*
X181780000Y-53220000D01*
X183980000Y-53220000D02*
X186780000Y-53220000D01*
X191380000Y-53220000D02*
X188980000Y-53220000D01*
D13*
X182880000Y-67820000D02*
G75*
G03*
X182780000Y-67820000I-50000J0D01*
G01*
X182780000Y-67820000D02*
G75*
G03*
X182880000Y-67820000I50000J0D01*
G01*
D12*
%TO.C,J1*%
X143831000Y-34858000D02*
X151571000Y-34858000D01*
X143831000Y-34858000D02*
X143831000Y-32258000D01*
X151571000Y-34858000D02*
X151571000Y-29658000D01*
X143831000Y-32258000D02*
X146431000Y-32258000D01*
X146431000Y-32258000D02*
X146431000Y-29658000D01*
X143831000Y-30988000D02*
X143831000Y-29658000D01*
X143831000Y-29658000D02*
X145161000Y-29658000D01*
X146431000Y-29658000D02*
X151571000Y-29658000D01*
%TO.C,R1*%
X176249000Y-34293436D02*
X176249000Y-34747564D01*
X174779000Y-34293436D02*
X174779000Y-34747564D01*
%TO.C,C2*%
X163787000Y-49175580D02*
X163787000Y-48894420D01*
X164807000Y-49175580D02*
X164807000Y-48894420D01*
%TO.C,R17*%
X167844742Y-57151500D02*
X168319258Y-57151500D01*
X167844742Y-58196500D02*
X168319258Y-58196500D01*
%TO.C,R10*%
X109955000Y-52755436D02*
X109955000Y-53209564D01*
X108485000Y-52755436D02*
X108485000Y-53209564D01*
%TO.C,J2*%
X142215000Y-87452500D02*
X142215000Y-84222500D01*
X142215000Y-91622500D02*
X142215000Y-89672500D01*
X142935000Y-82302500D02*
X144015000Y-82302500D01*
X144015000Y-82302500D02*
X144015000Y-81872500D01*
X148235000Y-82302500D02*
X149315000Y-82302500D01*
X150035000Y-87452500D02*
X150035000Y-84222500D01*
X150035000Y-91622500D02*
X142215000Y-91622500D01*
X150035000Y-91622500D02*
X150035000Y-89672500D01*
%TO.C,C7*%
X137655000Y-46710580D02*
X137655000Y-46429420D01*
X138675000Y-46710580D02*
X138675000Y-46429420D01*
%TO.C,LS1*%
X110865000Y-81915000D02*
G75*
G03*
X110865000Y-81915000I-6100000J0D01*
G01*
%TO.C,C9*%
X157736000Y-63499420D02*
X157736000Y-63780580D01*
X156716000Y-63499420D02*
X156716000Y-63780580D01*
%TO.C,R5*%
X104875000Y-52755436D02*
X104875000Y-53209564D01*
X103405000Y-52755436D02*
X103405000Y-53209564D01*
%TO.C,U4*%
X144225000Y-69202500D02*
X144225000Y-71002500D01*
X144225000Y-69202500D02*
X144225000Y-68402500D01*
X147345000Y-69202500D02*
X147345000Y-70002500D01*
X147345000Y-69202500D02*
X147345000Y-68402500D01*
%TO.C,R6*%
X107415000Y-52755436D02*
X107415000Y-53209564D01*
X105945000Y-52755436D02*
X105945000Y-53209564D01*
D15*
%TO.C,S3*%
X163256000Y-32092000D02*
X163256000Y-34092000D01*
X163556000Y-34892000D02*
X164156000Y-35492000D01*
X164156000Y-30692000D02*
X163556000Y-31292000D01*
X164156000Y-35492000D02*
X167156000Y-35492000D01*
X167156000Y-30692000D02*
X164156000Y-30692000D01*
X167156000Y-30692000D02*
X167756000Y-31292000D01*
X167156000Y-35492000D02*
X167756000Y-34892000D01*
X168056000Y-32092000D02*
X168056000Y-34092000D01*
D14*
X161356000Y-31192000D02*
G75*
G03*
X161356000Y-31192000I-100000J0D01*
G01*
D12*
%TO.C,R9*%
X109955000Y-70535436D02*
X109955000Y-70989564D01*
X108485000Y-70535436D02*
X108485000Y-70989564D01*
%TO.C,C1*%
X100963000Y-34417580D02*
X100963000Y-34136420D01*
X101983000Y-34417580D02*
X101983000Y-34136420D01*
%TO.C,F1*%
X138546252Y-79180000D02*
X135773748Y-79180000D01*
X138546252Y-75760000D02*
X135773748Y-75760000D01*
%TO.C,C8*%
X135612200Y-36496852D02*
X135612200Y-35974348D01*
X137082200Y-36496852D02*
X137082200Y-35974348D01*
%TO.C,R2*%
X176630000Y-54279436D02*
X176630000Y-54733564D01*
X175160000Y-54279436D02*
X175160000Y-54733564D01*
%TO.C,J3*%
X163262000Y-65084000D02*
X173542000Y-65084000D01*
X163262000Y-65084000D02*
X163262000Y-62484000D01*
X173542000Y-65084000D02*
X173542000Y-59884000D01*
X163262000Y-62484000D02*
X165862000Y-62484000D01*
X165862000Y-62484000D02*
X165862000Y-59884000D01*
X163262000Y-61214000D02*
X163262000Y-59884000D01*
X163262000Y-59884000D02*
X164592000Y-59884000D01*
X165862000Y-59884000D02*
X173542000Y-59884000D01*
%TO.C,C13*%
X170534420Y-73531000D02*
X170815580Y-73531000D01*
X170534420Y-74551000D02*
X170815580Y-74551000D01*
%TO.C,R16*%
X155462500Y-78820742D02*
X155462500Y-79295258D01*
X154417500Y-78820742D02*
X154417500Y-79295258D01*
%TO.C,Y1*%
X162317000Y-50760000D02*
X162317000Y-47460000D01*
X162317000Y-47460000D02*
X158317000Y-47460000D01*
%TO.C,R4*%
X131418064Y-29818000D02*
X130963936Y-29818000D01*
X131418064Y-28348000D02*
X130963936Y-28348000D01*
%TO.C,C6*%
X138675000Y-57859420D02*
X138675000Y-58140580D01*
X137655000Y-57859420D02*
X137655000Y-58140580D01*
%TO.C,C14*%
X167896000Y-70484420D02*
X167896000Y-70765580D01*
X166876000Y-70484420D02*
X166876000Y-70765580D01*
%TO.C,R14*%
X146532500Y-76234758D02*
X146532500Y-75760242D01*
X147577500Y-76234758D02*
X147577500Y-75760242D01*
%TO.C,C5*%
X141620580Y-61825000D02*
X141339420Y-61825000D01*
X141620580Y-60805000D02*
X141339420Y-60805000D01*
%TO.C,C11*%
X157725000Y-58634420D02*
X157725000Y-58915580D01*
X156705000Y-58634420D02*
X156705000Y-58915580D01*
D13*
%TO.C,S1*%
X182780000Y-47500000D02*
X182780000Y-47500000D01*
X182880000Y-47500000D02*
X182880000Y-47500000D01*
D14*
X179380000Y-44900000D02*
X179380000Y-32900000D01*
X181780000Y-44900000D02*
X179380000Y-44900000D01*
X181780000Y-44900000D02*
X181780000Y-44900000D01*
X183980000Y-44900000D02*
X186780000Y-44900000D01*
X188980000Y-44900000D02*
X191380000Y-44900000D01*
X191380000Y-44900000D02*
X191380000Y-32900000D01*
X179380000Y-32900000D02*
X181780000Y-32900000D01*
X183980000Y-32900000D02*
X186780000Y-32900000D01*
X191380000Y-32900000D02*
X188980000Y-32900000D01*
D13*
X182880000Y-47500000D02*
G75*
G03*
X182780000Y-47500000I-50000J0D01*
G01*
X182780000Y-47500000D02*
G75*
G03*
X182880000Y-47500000I50000J0D01*
G01*
D12*
%TO.C,C4*%
X151894000Y-61314420D02*
X151894000Y-61595580D01*
X150874000Y-61314420D02*
X150874000Y-61595580D01*
%TO.C,C10*%
X150355000Y-40360580D02*
X150355000Y-40079420D01*
X151375000Y-40360580D02*
X151375000Y-40079420D01*
%TO.C,R12*%
X104875000Y-70535436D02*
X104875000Y-70989564D01*
X103405000Y-70535436D02*
X103405000Y-70989564D01*
%TO.C,R3*%
X131545064Y-32866000D02*
X131090936Y-32866000D01*
X131545064Y-31396000D02*
X131090936Y-31396000D01*
%TO.C,D1*%
X117546000Y-28541000D02*
X115626000Y-28541000D01*
X115626000Y-28541000D02*
X115626000Y-31226000D01*
X117546000Y-31226000D02*
X117546000Y-28541000D01*
%TD*%
M02*
