%TF.GenerationSoftware,KiCad,Pcbnew,(7.0.0)*%
%TF.CreationDate,2023-04-20T13:48:57-06:00*%
%TF.ProjectId,Phase_B_ATMEGA_v3,50686173-655f-4425-9f41-544d4547415f,rev?*%
%TF.SameCoordinates,Original*%
%TF.FileFunction,Copper,L1,Top*%
%TF.FilePolarity,Positive*%
%FSLAX46Y46*%
G04 Gerber Fmt 4.6, Leading zero omitted, Abs format (unit mm)*
G04 Created by KiCad (PCBNEW (7.0.0)) date 2023-04-20 13:48:57*
%MOMM*%
%LPD*%
G01*
G04 APERTURE LIST*
G04 Aperture macros list*
%AMRoundRect*
0 Rectangle with rounded corners*
0 $1 Rounding radius*
0 $2 $3 $4 $5 $6 $7 $8 $9 X,Y pos of 4 corners*
0 Add a 4 corners polygon primitive as box body*
4,1,4,$2,$3,$4,$5,$6,$7,$8,$9,$2,$3,0*
0 Add four circle primitives for the rounded corners*
1,1,$1+$1,$2,$3*
1,1,$1+$1,$4,$5*
1,1,$1+$1,$6,$7*
1,1,$1+$1,$8,$9*
0 Add four rect primitives between the rounded corners*
20,1,$1+$1,$2,$3,$4,$5,0*
20,1,$1+$1,$4,$5,$6,$7,0*
20,1,$1+$1,$6,$7,$8,$9,0*
20,1,$1+$1,$8,$9,$2,$3,0*%
G04 Aperture macros list end*
%TA.AperFunction,SMDPad,CuDef*%
%ADD10RoundRect,0.225000X-0.225000X-0.250000X0.225000X-0.250000X0.225000X0.250000X-0.225000X0.250000X0*%
%TD*%
%TA.AperFunction,ComponentPad*%
%ADD11R,1.500000X1.500000*%
%TD*%
%TA.AperFunction,ComponentPad*%
%ADD12C,1.500000*%
%TD*%
%TA.AperFunction,SMDPad,CuDef*%
%ADD13RoundRect,0.243750X-0.456250X0.243750X-0.456250X-0.243750X0.456250X-0.243750X0.456250X0.243750X0*%
%TD*%
%TA.AperFunction,SMDPad,CuDef*%
%ADD14RoundRect,0.200000X0.275000X-0.200000X0.275000X0.200000X-0.275000X0.200000X-0.275000X-0.200000X0*%
%TD*%
%TA.AperFunction,SMDPad,CuDef*%
%ADD15RoundRect,0.243750X0.456250X-0.243750X0.456250X0.243750X-0.456250X0.243750X-0.456250X-0.243750X0*%
%TD*%
%TA.AperFunction,SMDPad,CuDef*%
%ADD16RoundRect,0.250000X-0.450000X0.262500X-0.450000X-0.262500X0.450000X-0.262500X0.450000X0.262500X0*%
%TD*%
%TA.AperFunction,ComponentPad*%
%ADD17C,6.000000*%
%TD*%
%TA.AperFunction,SMDPad,CuDef*%
%ADD18RoundRect,0.100000X0.100000X-0.637500X0.100000X0.637500X-0.100000X0.637500X-0.100000X-0.637500X0*%
%TD*%
%TA.AperFunction,SMDPad,CuDef*%
%ADD19R,0.550000X1.500000*%
%TD*%
%TA.AperFunction,SMDPad,CuDef*%
%ADD20R,1.500000X0.550000*%
%TD*%
%TA.AperFunction,SMDPad,CuDef*%
%ADD21RoundRect,0.150000X0.150000X-0.512500X0.150000X0.512500X-0.150000X0.512500X-0.150000X-0.512500X0*%
%TD*%
%TA.AperFunction,SMDPad,CuDef*%
%ADD22RoundRect,0.225000X-0.250000X0.225000X-0.250000X-0.225000X0.250000X-0.225000X0.250000X0.225000X0*%
%TD*%
%TA.AperFunction,SMDPad,CuDef*%
%ADD23RoundRect,0.225000X0.250000X-0.225000X0.250000X0.225000X-0.250000X0.225000X-0.250000X-0.225000X0*%
%TD*%
%TA.AperFunction,SMDPad,CuDef*%
%ADD24R,1.500000X2.000000*%
%TD*%
%TA.AperFunction,ComponentPad*%
%ADD25R,1.700000X1.700000*%
%TD*%
%TA.AperFunction,ComponentPad*%
%ADD26O,1.700000X1.700000*%
%TD*%
%TA.AperFunction,SMDPad,CuDef*%
%ADD27RoundRect,0.200000X-0.200000X-0.275000X0.200000X-0.275000X0.200000X0.275000X-0.200000X0.275000X0*%
%TD*%
%TA.AperFunction,SMDPad,CuDef*%
%ADD28R,0.500000X2.000000*%
%TD*%
%TA.AperFunction,SMDPad,CuDef*%
%ADD29R,2.000000X1.700000*%
%TD*%
%TA.AperFunction,ComponentPad*%
%ADD30R,2.000000X2.000000*%
%TD*%
%TA.AperFunction,ComponentPad*%
%ADD31C,2.000000*%
%TD*%
%TA.AperFunction,SMDPad,CuDef*%
%ADD32R,1.000000X0.700000*%
%TD*%
%TA.AperFunction,SMDPad,CuDef*%
%ADD33RoundRect,0.250000X0.312500X1.450000X-0.312500X1.450000X-0.312500X-1.450000X0.312500X-1.450000X0*%
%TD*%
%TA.AperFunction,SMDPad,CuDef*%
%ADD34RoundRect,0.250000X0.475000X-0.250000X0.475000X0.250000X-0.475000X0.250000X-0.475000X-0.250000X0*%
%TD*%
%TA.AperFunction,SMDPad,CuDef*%
%ADD35RoundRect,0.200000X-0.275000X0.200000X-0.275000X-0.200000X0.275000X-0.200000X0.275000X0.200000X0*%
%TD*%
%TA.AperFunction,SMDPad,CuDef*%
%ADD36R,1.400000X1.200000*%
%TD*%
%TA.AperFunction,SMDPad,CuDef*%
%ADD37RoundRect,0.250000X0.262500X0.450000X-0.262500X0.450000X-0.262500X-0.450000X0.262500X-0.450000X0*%
%TD*%
%TA.AperFunction,SMDPad,CuDef*%
%ADD38RoundRect,0.225000X0.225000X0.250000X-0.225000X0.250000X-0.225000X-0.250000X0.225000X-0.250000X0*%
%TD*%
%TA.AperFunction,ViaPad*%
%ADD39C,0.800000*%
%TD*%
%TA.AperFunction,Conductor*%
%ADD40C,0.203200*%
%TD*%
G04 APERTURE END LIST*
D10*
%TO.P,C3,1*%
%TO.N,XTAL2*%
X159217000Y-52070000D03*
%TO.P,C3,2*%
%TO.N,GND*%
X160767000Y-52070000D03*
%TD*%
D11*
%TO.P,U1,1,e*%
%TO.N,Net-(U1-e)*%
X129539999Y-66039999D03*
D12*
%TO.P,U1,2,d*%
%TO.N,Net-(U1-d)*%
X129540000Y-63500000D03*
%TO.P,U1,3,DPX*%
%TO.N,Net-(U1-DPX)*%
X129540000Y-60960000D03*
%TO.P,U1,4,c*%
%TO.N,Net-(U1-c)*%
X129540000Y-58420000D03*
%TO.P,U1,5,g*%
%TO.N,Net-(U1-g)*%
X129540000Y-55880000D03*
%TO.P,U1,6,CA4*%
%TO.N,Dig4*%
X129540000Y-53340000D03*
%TO.P,U1,7,b*%
%TO.N,Net-(U1-b)*%
X114300000Y-53340000D03*
%TO.P,U1,8,CA3*%
%TO.N,Dig3*%
X114300000Y-55880000D03*
%TO.P,U1,9,CA2*%
%TO.N,Dig2*%
X114300000Y-58420000D03*
%TO.P,U1,10,f*%
%TO.N,Net-(U1-f)*%
X114300000Y-60960000D03*
%TO.P,U1,11,a*%
%TO.N,Net-(U1-a)*%
X114300000Y-63500000D03*
%TO.P,U1,12,CA1*%
%TO.N,Dig1*%
X114300000Y-66040000D03*
%TD*%
D13*
%TO.P,D2,1,K*%
%TO.N,GND*%
X121793000Y-29240000D03*
%TO.P,D2,2,A*%
%TO.N,Net-(D2-A)*%
X121793000Y-31115000D03*
%TD*%
D14*
%TO.P,R15,1*%
%TO.N,Net-(J2-D-)*%
X144515000Y-76822500D03*
%TO.P,R15,2*%
%TO.N,USB_CONN_D-*%
X144515000Y-75172500D03*
%TD*%
D15*
%TO.P,D3,1,K*%
%TO.N,GND*%
X154940000Y-84425000D03*
%TO.P,D3,2,A*%
%TO.N,Net-(D3-A)*%
X154940000Y-82550000D03*
%TD*%
D16*
%TO.P,R11,1*%
%TO.N,g*%
X101600000Y-52070000D03*
%TO.P,R11,2*%
%TO.N,Net-(U1-g)*%
X101600000Y-53895000D03*
%TD*%
D17*
%TO.P,REF\u002A\u002A,1*%
%TO.N,N/C*%
X175768000Y-83108800D03*
%TD*%
D18*
%TO.P,U2,1,QB*%
%TO.N,b*%
X100860000Y-44450000D03*
%TO.P,U2,2,QC*%
%TO.N,c*%
X101510000Y-44450000D03*
%TO.P,U2,3,QD*%
%TO.N,d*%
X102160000Y-44450000D03*
%TO.P,U2,4,QE*%
%TO.N,e*%
X102810000Y-44450000D03*
%TO.P,U2,5,QF*%
%TO.N,f*%
X103460000Y-44450000D03*
%TO.P,U2,6,QG*%
%TO.N,g*%
X104110000Y-44450000D03*
%TO.P,U2,7,QH*%
%TO.N,dp*%
X104760000Y-44450000D03*
%TO.P,U2,8,GND*%
%TO.N,GND*%
X105410000Y-44450000D03*
%TO.P,U2,9,QH'*%
%TO.N,unconnected-(U2-QH'-Pad9)*%
X105410000Y-38725000D03*
%TO.P,U2,10,~{SRCLR}*%
%TO.N,+5V*%
X104760000Y-38725000D03*
%TO.P,U2,11,SRCLK*%
%TO.N,SH_CP*%
X104110000Y-38725000D03*
%TO.P,U2,12,RCLK*%
%TO.N,ST_CP*%
X103460000Y-38725000D03*
%TO.P,U2,13,~{OE}*%
%TO.N,GND*%
X102810000Y-38725000D03*
%TO.P,U2,14,SER*%
%TO.N,DS*%
X102160000Y-38725000D03*
%TO.P,U2,15,QA*%
%TO.N,a*%
X101510000Y-38725000D03*
%TO.P,U2,16,VCC*%
%TO.N,+5V*%
X100860000Y-38725000D03*
%TD*%
D19*
%TO.P,U3,1,PE6*%
%TO.N,SH_CP*%
X143854999Y-57504999D03*
%TO.P,U3,2,UVCC*%
%TO.N,+5V*%
X144654999Y-57504999D03*
%TO.P,U3,3,D-*%
%TO.N,USB_D-*%
X145454999Y-57504999D03*
%TO.P,U3,4,D+*%
%TO.N,USB_D+*%
X146254999Y-57504999D03*
%TO.P,U3,5,UGND*%
%TO.N,GND*%
X147054999Y-57504999D03*
%TO.P,U3,6,UCAP*%
%TO.N,/UCAP*%
X147854999Y-57504999D03*
%TO.P,U3,7,VBUS*%
%TO.N,+5V*%
X148654999Y-57504999D03*
%TO.P,U3,8,PB0*%
%TO.N,unconnected-(U3-PB0-Pad8)*%
X149454999Y-57504999D03*
%TO.P,U3,9,PB1*%
%TO.N,SCK*%
X150254999Y-57504999D03*
%TO.P,U3,10,PB2*%
%TO.N,MOSI*%
X151054999Y-57504999D03*
%TO.P,U3,11,PB3*%
%TO.N,MISO*%
X151854999Y-57504999D03*
D20*
%TO.P,U3,12,PB7*%
%TO.N,Dig3*%
X153554999Y-55804999D03*
%TO.P,U3,13,~{RESET}*%
%TO.N,RST*%
X153554999Y-55004999D03*
%TO.P,U3,14,VCC*%
%TO.N,+5V*%
X153554999Y-54204999D03*
%TO.P,U3,15,GND*%
%TO.N,GND*%
X153554999Y-53404999D03*
%TO.P,U3,16,XTAL2*%
%TO.N,XTAL2*%
X153554999Y-52604999D03*
%TO.P,U3,17,XTAL1*%
%TO.N,XTAL1*%
X153554999Y-51804999D03*
%TO.P,U3,18,PD0*%
%TO.N,Button_2*%
X153554999Y-51004999D03*
%TO.P,U3,19,PD1*%
%TO.N,Button_1*%
X153554999Y-50204999D03*
%TO.P,U3,20,PD2*%
%TO.N,TX*%
X153554999Y-49404999D03*
%TO.P,U3,21,PD3*%
%TO.N,RX*%
X153554999Y-48604999D03*
%TO.P,U3,22,PD5*%
%TO.N,unconnected-(U3-PD5-Pad22)*%
X153554999Y-47804999D03*
D19*
%TO.P,U3,23,GND*%
%TO.N,GND*%
X151854999Y-46104999D03*
%TO.P,U3,24,AVCC*%
%TO.N,+5V*%
X151054999Y-46104999D03*
%TO.P,U3,25,PD4*%
%TO.N,GREEN_LED*%
X150254999Y-46104999D03*
%TO.P,U3,26,PD6*%
%TO.N,Dig2*%
X149454999Y-46104999D03*
%TO.P,U3,27,PD7*%
%TO.N,Buzzer*%
X148654999Y-46104999D03*
%TO.P,U3,28,PB4*%
%TO.N,ST_CP*%
X147854999Y-46104999D03*
%TO.P,U3,29,PB5*%
%TO.N,DS*%
X147054999Y-46104999D03*
%TO.P,U3,30,PB6*%
%TO.N,Dig4*%
X146254999Y-46104999D03*
%TO.P,U3,31,PC6*%
%TO.N,RED_LED*%
X145454999Y-46104999D03*
%TO.P,U3,32,PC7*%
%TO.N,Dig1*%
X144654999Y-46104999D03*
%TO.P,U3,33,~{HWB}/PE2*%
%TO.N,GND*%
X143854999Y-46104999D03*
D20*
%TO.P,U3,34,VCC*%
%TO.N,+5V*%
X142154999Y-47804999D03*
%TO.P,U3,35,GND*%
%TO.N,GND*%
X142154999Y-48604999D03*
%TO.P,U3,36,PF7*%
%TO.N,unconnected-(U3-PF7-Pad36)*%
X142154999Y-49404999D03*
%TO.P,U3,37,PF6*%
%TO.N,unconnected-(U3-PF6-Pad37)*%
X142154999Y-50204999D03*
%TO.P,U3,38,PF5*%
%TO.N,unconnected-(U3-PF5-Pad38)*%
X142154999Y-51004999D03*
%TO.P,U3,39,PF4*%
%TO.N,unconnected-(U3-PF4-Pad39)*%
X142154999Y-51804999D03*
%TO.P,U3,40,PF1*%
%TO.N,unconnected-(U3-PF1-Pad40)*%
X142154999Y-52604999D03*
%TO.P,U3,41,PF0*%
%TO.N,unconnected-(U3-PF0-Pad41)*%
X142154999Y-53404999D03*
%TO.P,U3,42,AREF*%
%TO.N,/AREF*%
X142154999Y-54204999D03*
%TO.P,U3,43,GND*%
%TO.N,GND*%
X142154999Y-55004999D03*
%TO.P,U3,44,AVCC*%
%TO.N,+5V*%
X142154999Y-55804999D03*
%TD*%
D14*
%TO.P,R13,1*%
%TO.N,+5V*%
X156718000Y-33375600D03*
%TO.P,R13,2*%
%TO.N,RST*%
X156718000Y-31725600D03*
%TD*%
D17*
%TO.P,REF\u002A\u002A,1*%
%TO.N,N/C*%
X173685200Y-45313600D03*
%TD*%
%TO.P,REF\u002A\u002A,1*%
%TO.N,N/C*%
X108458000Y-30276800D03*
%TD*%
D21*
%TO.P,U5,1,VIN*%
%TO.N,+5V*%
X169672000Y-71501000D03*
%TO.P,U5,2,GND*%
%TO.N,GND*%
X170622000Y-71501000D03*
%TO.P,U5,3,ON/~{OFF}*%
%TO.N,+5V*%
X171572000Y-71501000D03*
%TO.P,U5,4,BP*%
%TO.N,Net-(U5-BP)*%
X171572000Y-69226000D03*
%TO.P,U5,5,VOUT*%
%TO.N,+3.3V*%
X169672000Y-69226000D03*
%TD*%
D16*
%TO.P,R8,1*%
%TO.N,d*%
X106680000Y-69850000D03*
%TO.P,R8,2*%
%TO.N,Net-(U1-d)*%
X106680000Y-71675000D03*
%TD*%
D22*
%TO.P,C15,1*%
%TO.N,Net-(U5-BP)*%
X174752000Y-69596000D03*
%TO.P,C15,2*%
%TO.N,GND*%
X174752000Y-71146000D03*
%TD*%
D16*
%TO.P,R7,1*%
%TO.N,c*%
X101600000Y-69850000D03*
%TO.P,R7,2*%
%TO.N,Net-(U1-c)*%
X101600000Y-71675000D03*
%TD*%
D23*
%TO.P,C12,1*%
%TO.N,/AREF*%
X138049000Y-52959000D03*
%TO.P,C12,2*%
%TO.N,GND*%
X138049000Y-51409000D03*
%TD*%
D24*
%TO.P,S2,A1,NO_1*%
%TO.N,unconnected-(S2-NO_1-PadA1)*%
X182879999Y-66369999D03*
%TO.P,S2,B1,NO_2*%
%TO.N,Button_2*%
X182879999Y-52069999D03*
%TO.P,S2,C1,COM_1*%
%TO.N,+5V*%
X187879999Y-66369999D03*
%TO.P,S2,D1,COM_2*%
%TO.N,unconnected-(S2-COM_2-PadD1)*%
X187879999Y-52069999D03*
%TD*%
D25*
%TO.P,J1,1,MISO*%
%TO.N,MISO*%
X145160999Y-30987999D03*
D26*
%TO.P,J1,2,VCC*%
%TO.N,+5V*%
X145160999Y-33527999D03*
%TO.P,J1,3,SCK*%
%TO.N,SCK*%
X147700999Y-30987999D03*
%TO.P,J1,4,MOSI*%
%TO.N,MOSI*%
X147700999Y-33527999D03*
%TO.P,J1,5,~{RST}*%
%TO.N,RST*%
X150240999Y-30987999D03*
%TO.P,J1,6,GND*%
%TO.N,GND*%
X150240999Y-33527999D03*
%TD*%
D16*
%TO.P,R1,1*%
%TO.N,Button_1*%
X175514000Y-33608000D03*
%TO.P,R1,2*%
%TO.N,GND*%
X175514000Y-35433000D03*
%TD*%
D23*
%TO.P,C2,1*%
%TO.N,GND*%
X164297000Y-49810000D03*
%TO.P,C2,2*%
%TO.N,XTAL1*%
X164297000Y-48260000D03*
%TD*%
D27*
%TO.P,R17,1*%
%TO.N,+3.3V*%
X167257000Y-57674000D03*
%TO.P,R17,2*%
%TO.N,Net-(J3-Pin_5)*%
X168907000Y-57674000D03*
%TD*%
D16*
%TO.P,R10,1*%
%TO.N,f*%
X109220000Y-52070000D03*
%TO.P,R10,2*%
%TO.N,Net-(U1-f)*%
X109220000Y-53895000D03*
%TD*%
D28*
%TO.P,J2,1,VBUS*%
%TO.N,Net-(J2-VBUS)*%
X144524999Y-83012499D03*
%TO.P,J2,2,D-*%
%TO.N,Net-(J2-D-)*%
X145324999Y-83012499D03*
%TO.P,J2,3,D+*%
%TO.N,Net-(J2-D+)*%
X146124999Y-83012499D03*
%TO.P,J2,4,ID*%
%TO.N,unconnected-(J2-ID-Pad4)*%
X146924999Y-83012499D03*
%TO.P,J2,5,GND*%
%TO.N,GND*%
X147724999Y-83012499D03*
D29*
%TO.P,J2,6,Shield*%
%TO.N,unconnected-(J2-Shield-Pad6)*%
X141674999Y-83112499D03*
X141674999Y-88562499D03*
X150574999Y-83112499D03*
X150574999Y-88562499D03*
%TD*%
D23*
%TO.P,C7,1*%
%TO.N,+5V*%
X138165000Y-47345000D03*
%TO.P,C7,2*%
%TO.N,GND*%
X138165000Y-45795000D03*
%TD*%
D30*
%TO.P,LS1,1,1*%
%TO.N,Buzzer*%
X108564999Y-81914999D03*
D31*
%TO.P,LS1,2,2*%
%TO.N,GND*%
X100965000Y-81915000D03*
%TD*%
D22*
%TO.P,C9,1*%
%TO.N,/UCAP*%
X157226000Y-62865000D03*
%TO.P,C9,2*%
%TO.N,GND*%
X157226000Y-64415000D03*
%TD*%
D16*
%TO.P,R5,1*%
%TO.N,a*%
X104140000Y-52070000D03*
%TO.P,R5,2*%
%TO.N,Net-(U1-a)*%
X104140000Y-53895000D03*
%TD*%
D21*
%TO.P,U4,1,I/O1*%
%TO.N,USB_CONN_D-*%
X144835000Y-70340000D03*
%TO.P,U4,2,GND*%
%TO.N,GND*%
X145785000Y-70340000D03*
%TO.P,U4,3,I/O2*%
%TO.N,USB_CONN_D+*%
X146735000Y-70340000D03*
%TO.P,U4,4,I/O2*%
%TO.N,USB_D+*%
X146735000Y-68065000D03*
%TO.P,U4,5,VBUS*%
%TO.N,+5V*%
X145785000Y-68065000D03*
%TO.P,U4,6,I/O1*%
%TO.N,USB_D-*%
X144835000Y-68065000D03*
%TD*%
D16*
%TO.P,R6,1*%
%TO.N,b*%
X106680000Y-52070000D03*
%TO.P,R6,2*%
%TO.N,Net-(U1-b)*%
X106680000Y-53895000D03*
%TD*%
D32*
%TO.P,S3,1*%
%TO.N,GND*%
X162655999Y-31241999D03*
%TO.P,S3,2*%
%TO.N,N/C*%
X168655999Y-31241999D03*
%TO.P,S3,3*%
%TO.N,RST*%
X162655999Y-34941999D03*
%TO.P,S3,4*%
%TO.N,N/C*%
X168655999Y-34941999D03*
%TD*%
D16*
%TO.P,R9,1*%
%TO.N,e*%
X109220000Y-69850000D03*
%TO.P,R9,2*%
%TO.N,Net-(U1-e)*%
X109220000Y-71675000D03*
%TD*%
D23*
%TO.P,C1,1*%
%TO.N,+5V*%
X101473000Y-35052000D03*
%TO.P,C1,2*%
%TO.N,GND*%
X101473000Y-33502000D03*
%TD*%
D33*
%TO.P,F1,1*%
%TO.N,Net-(J2-VBUS)*%
X139297500Y-77470000D03*
%TO.P,F1,2*%
%TO.N,+5V*%
X135022500Y-77470000D03*
%TD*%
D34*
%TO.P,C8,1*%
%TO.N,+5V*%
X136347200Y-37185600D03*
%TO.P,C8,2*%
%TO.N,GND*%
X136347200Y-35285600D03*
%TD*%
D16*
%TO.P,R2,1*%
%TO.N,Button_2*%
X175895000Y-53594000D03*
%TO.P,R2,2*%
%TO.N,GND*%
X175895000Y-55419000D03*
%TD*%
D25*
%TO.P,J3,1,Pin_1*%
%TO.N,GND*%
X164591999Y-61213999D03*
D26*
%TO.P,J3,2,Pin_2*%
%TO.N,TX*%
X164591999Y-63753999D03*
%TO.P,J3,3,Pin_3*%
%TO.N,unconnected-(J3-Pin_3-Pad3)*%
X167131999Y-61213999D03*
%TO.P,J3,4,Pin_4*%
%TO.N,+3.3V*%
X167131999Y-63753999D03*
%TO.P,J3,5,Pin_5*%
%TO.N,Net-(J3-Pin_5)*%
X169671999Y-61213999D03*
%TO.P,J3,6,Pin_6*%
%TO.N,+3.3V*%
X169671999Y-63753999D03*
%TO.P,J3,7,Pin_7*%
%TO.N,RX*%
X172211999Y-61213999D03*
%TO.P,J3,8,Pin_8*%
%TO.N,+3.3V*%
X172211999Y-63753999D03*
%TD*%
D10*
%TO.P,C13,1*%
%TO.N,+5V*%
X169900000Y-74041000D03*
%TO.P,C13,2*%
%TO.N,GND*%
X171450000Y-74041000D03*
%TD*%
D35*
%TO.P,R16,1*%
%TO.N,+5V*%
X154940000Y-78233000D03*
%TO.P,R16,2*%
%TO.N,Net-(D3-A)*%
X154940000Y-79883000D03*
%TD*%
D36*
%TO.P,Y1,1,1*%
%TO.N,XTAL1*%
X161416999Y-48259999D03*
%TO.P,Y1,2,2*%
%TO.N,GND*%
X159216999Y-48259999D03*
%TO.P,Y1,3,3*%
%TO.N,XTAL2*%
X159216999Y-49959999D03*
%TO.P,Y1,4,4*%
%TO.N,GND*%
X161416999Y-49959999D03*
%TD*%
D37*
%TO.P,R4,1*%
%TO.N,GREEN_LED*%
X132103500Y-29083000D03*
%TO.P,R4,2*%
%TO.N,Net-(D2-A)*%
X130278500Y-29083000D03*
%TD*%
D22*
%TO.P,C6,1*%
%TO.N,+5V*%
X138165000Y-57225000D03*
%TO.P,C6,2*%
%TO.N,GND*%
X138165000Y-58775000D03*
%TD*%
%TO.P,C14,1*%
%TO.N,+3.3V*%
X167386000Y-69850000D03*
%TO.P,C14,2*%
%TO.N,GND*%
X167386000Y-71400000D03*
%TD*%
D14*
%TO.P,R14,1*%
%TO.N,Net-(J2-D+)*%
X147055000Y-76822500D03*
%TO.P,R14,2*%
%TO.N,USB_CONN_D+*%
X147055000Y-75172500D03*
%TD*%
D38*
%TO.P,C5,1*%
%TO.N,+5V*%
X142255000Y-61315000D03*
%TO.P,C5,2*%
%TO.N,GND*%
X140705000Y-61315000D03*
%TD*%
D22*
%TO.P,C11,1*%
%TO.N,+5V*%
X157215000Y-58000000D03*
%TO.P,C11,2*%
%TO.N,GND*%
X157215000Y-59550000D03*
%TD*%
D24*
%TO.P,S1,A1,NO_1*%
%TO.N,unconnected-(S1-NO_1-PadA1)*%
X182879999Y-46049999D03*
%TO.P,S1,B1,NO_2*%
%TO.N,Button_1*%
X182879999Y-31749999D03*
%TO.P,S1,C1,COM_1*%
%TO.N,+5V*%
X187879999Y-46049999D03*
%TO.P,S1,D1,COM_2*%
%TO.N,unconnected-(S1-COM_2-PadD1)*%
X187879999Y-31749999D03*
%TD*%
D22*
%TO.P,C4,1*%
%TO.N,+5V*%
X151384000Y-60680000D03*
%TO.P,C4,2*%
%TO.N,GND*%
X151384000Y-62230000D03*
%TD*%
D23*
%TO.P,C10,1*%
%TO.N,+5V*%
X150865000Y-40995000D03*
%TO.P,C10,2*%
%TO.N,GND*%
X150865000Y-39445000D03*
%TD*%
D16*
%TO.P,R12,1*%
%TO.N,dp*%
X104140000Y-69850000D03*
%TO.P,R12,2*%
%TO.N,Net-(U1-DPX)*%
X104140000Y-71675000D03*
%TD*%
D37*
%TO.P,R3,1*%
%TO.N,RED_LED*%
X132230500Y-32131000D03*
%TO.P,R3,2*%
%TO.N,Net-(D1-A)*%
X130405500Y-32131000D03*
%TD*%
D13*
%TO.P,D1,1,K*%
%TO.N,GND*%
X116586000Y-29288500D03*
%TO.P,D1,2,A*%
%TO.N,Net-(D1-A)*%
X116586000Y-31163500D03*
%TD*%
D39*
%TO.N,GND*%
X142900400Y-45720000D03*
%TO.N,+5V*%
X147167600Y-63500000D03*
X132689600Y-45008800D03*
X105003600Y-36982400D03*
X160020000Y-39573200D03*
X155244800Y-56388000D03*
X130657600Y-47599600D03*
X145999200Y-37134800D03*
X151587200Y-51562000D03*
X144576800Y-63500000D03*
X156819600Y-36474400D03*
X154279600Y-59791600D03*
X136296400Y-65125600D03*
X140665200Y-37744400D03*
X153162000Y-61366400D03*
X134467600Y-63398400D03*
X135331200Y-47294800D03*
%TO.N,GND*%
X105664000Y-45618400D03*
X140919200Y-48615600D03*
X139242800Y-61366400D03*
X116586000Y-28295600D03*
X147015200Y-58724800D03*
X151079200Y-35712400D03*
X161594800Y-52628800D03*
X135839200Y-58775600D03*
X175869600Y-56388000D03*
X97434400Y-82042000D03*
X154940000Y-85344000D03*
X150825200Y-38201600D03*
X151739600Y-44196000D03*
X159207200Y-46482000D03*
X175564800Y-36779200D03*
X147777200Y-81534000D03*
X164338000Y-50749200D03*
X170637200Y-72491600D03*
X162661600Y-30276800D03*
X136398000Y-33832800D03*
X157226000Y-60452000D03*
X157226000Y-65328800D03*
X101498400Y-32613600D03*
X151434800Y-63550800D03*
X172313600Y-74015600D03*
X140919200Y-55067200D03*
X135788400Y-45872400D03*
X121818400Y-28295600D03*
X145864942Y-69535709D03*
X103022400Y-37338000D03*
X167335200Y-72440800D03*
X154736800Y-53390800D03*
X138074400Y-50444400D03*
X174752000Y-72034400D03*
X164490400Y-58521600D03*
%TO.N,XTAL1*%
X156057600Y-51714400D03*
X162509200Y-51460400D03*
%TO.N,XTAL2*%
X157808819Y-52161500D03*
X155663746Y-52633032D03*
%TO.N,/UCAP*%
X152400000Y-59182000D03*
X147878800Y-59283600D03*
%TO.N,+3.3V*%
X165862000Y-58674000D03*
%TO.N,MISO*%
X148082000Y-55321200D03*
X151194928Y-54887520D03*
X148652420Y-47477444D03*
X144678400Y-37835900D03*
%TO.N,SCK*%
X142544800Y-28397200D03*
X149578644Y-47853096D03*
%TO.N,MOSI*%
X146761200Y-55626000D03*
X150418800Y-55524400D03*
X146307022Y-47671872D03*
X146558000Y-40436800D03*
%TO.N,TX*%
X164846000Y-52882800D03*
X163017200Y-54610000D03*
X155854400Y-49479200D03*
X157480000Y-49580800D03*
%TO.N,RX*%
X155752800Y-45008800D03*
X172008800Y-54457600D03*
X157632400Y-45110400D03*
X171958000Y-52527200D03*
%TO.N,Buzzer*%
X134112000Y-40894000D03*
X119989600Y-81940400D03*
X137617200Y-40843200D03*
X120091200Y-70815200D03*
%TO.N,RED_LED*%
X137414000Y-42621200D03*
X137414000Y-44246800D03*
%TO.N,a*%
X97129600Y-45720000D03*
X105054400Y-49885600D03*
%TO.N,b*%
X106730800Y-42052300D03*
X106730800Y-44754800D03*
%TO.N,Net-(U1-b)*%
X110388400Y-55778400D03*
X107950000Y-55930800D03*
%TO.N,d*%
X102209600Y-46482000D03*
X102016500Y-48128787D03*
%TO.N,Net-(U1-d)*%
X124002800Y-63449200D03*
X127762000Y-63601600D03*
%TO.N,e*%
X102717600Y-49184500D03*
X103265865Y-46495472D03*
%TO.N,Net-(U1-e)*%
X122936000Y-66040000D03*
X127863600Y-65989200D03*
%TO.N,g*%
X104241600Y-46278800D03*
X104241600Y-48310800D03*
%TO.N,Net-(U1-g)*%
X126034800Y-55981600D03*
X101600000Y-56184800D03*
%TO.N,Net-(U1-DPX)*%
X128117600Y-61061600D03*
X125323600Y-61061600D03*
%TO.N,Dig3*%
X116128800Y-54457600D03*
X151079200Y-52882800D03*
%TO.N,Dig2*%
X118719600Y-53695600D03*
X150353900Y-49395459D03*
%TO.N,Dig1*%
X114249200Y-69799200D03*
X128473200Y-69291200D03*
%TO.N,SH_CP*%
X133248400Y-53340000D03*
X133807200Y-44246800D03*
X130860800Y-41300400D03*
X141474078Y-59105629D03*
%TO.N,ST_CP*%
X129235200Y-42824400D03*
X147726400Y-47853600D03*
%TO.N,DS*%
X139395200Y-41859200D03*
X104851200Y-35661600D03*
X126187200Y-38811200D03*
X101600000Y-36880800D03*
%TD*%
D40*
%TO.N,GND*%
X143317400Y-48605000D02*
X143855000Y-48067400D01*
X143855000Y-48067400D02*
X143855000Y-46105000D01*
X142155000Y-48605000D02*
X143317400Y-48605000D01*
X143285400Y-46105000D02*
X142900400Y-45720000D01*
X143855000Y-46105000D02*
X143285400Y-46105000D01*
%TO.N,+5V*%
X147007100Y-69029100D02*
X146397941Y-69029100D01*
X151384000Y-60680000D02*
X150876800Y-60680000D01*
X104424304Y-37307696D02*
X102168609Y-35052000D01*
X169900000Y-74041000D02*
X169900000Y-72745600D01*
X144573413Y-69104572D02*
X145304573Y-69104572D01*
X157201400Y-58013600D02*
X157215000Y-58000000D01*
X156819600Y-36474400D02*
X156819600Y-35661600D01*
X187880000Y-45800000D02*
X181653200Y-39573200D01*
X170346794Y-73192700D02*
X169900000Y-72745906D01*
X104760000Y-38725000D02*
X104760000Y-37643391D01*
X145785000Y-68624145D02*
X145785000Y-68065000D01*
X169900000Y-72745600D02*
X169900000Y-71729000D01*
X132943600Y-56134000D02*
X132486400Y-55676800D01*
X151055000Y-51029800D02*
X151587200Y-51562000D01*
X151055000Y-46105000D02*
X151055000Y-51029800D01*
X145304573Y-69104572D02*
X145785000Y-68624145D01*
X156718000Y-35142000D02*
X156718000Y-33375600D01*
X102168609Y-35052000D02*
X101473000Y-35052000D01*
X142392400Y-65125600D02*
X142494000Y-65227200D01*
X142534820Y-67065980D02*
X144573413Y-69104572D01*
X132435600Y-47599600D02*
X132486400Y-47650400D01*
X151384000Y-60680000D02*
X152475600Y-60680000D01*
X171572000Y-71501000D02*
X171572000Y-72599106D01*
X154990800Y-58013600D02*
X157201400Y-58013600D01*
X132689600Y-45008800D02*
X132486400Y-45212000D01*
X156819600Y-35661600D02*
X156509000Y-35351000D01*
X138165000Y-47345000D02*
X138625000Y-47805000D01*
X135022500Y-74578300D02*
X142534820Y-67065980D01*
X169900000Y-71729000D02*
X169672000Y-71501000D01*
X130657600Y-47599600D02*
X132435600Y-47599600D01*
X157215000Y-58000000D02*
X157215000Y-57036800D01*
X155244800Y-56388000D02*
X155651200Y-56388000D01*
X144221200Y-63500000D02*
X142494000Y-65227200D01*
X142392400Y-66923559D02*
X142534820Y-67065980D01*
X138625000Y-47805000D02*
X142155000Y-47805000D01*
X187880000Y-66370000D02*
X176932400Y-77317600D01*
X154940000Y-76962000D02*
X147007100Y-69029100D01*
X132486400Y-45212000D02*
X132486400Y-47650400D01*
X150723600Y-44399200D02*
X150723600Y-41136400D01*
X154990800Y-59080400D02*
X154990800Y-58013600D01*
X151384000Y-60680000D02*
X149987600Y-60680000D01*
X142494000Y-65227200D02*
X142494000Y-61554000D01*
X142255000Y-61315000D02*
X144655000Y-58915000D01*
X169621200Y-77317600D02*
X169621200Y-74319800D01*
X187880000Y-46050000D02*
X187880000Y-45800000D01*
X145999200Y-37134800D02*
X145161000Y-36296600D01*
X176932400Y-77317600D02*
X169621200Y-77317600D01*
X145161000Y-36296600D02*
X145161000Y-33528000D01*
X155718800Y-32376400D02*
X146312600Y-32376400D01*
X155651200Y-56388000D02*
X156108700Y-55930500D01*
X104749600Y-36982400D02*
X105003600Y-36982400D01*
X136906000Y-37744400D02*
X140665200Y-37744400D01*
X104760000Y-37643391D02*
X104424304Y-37307696D01*
X100860000Y-35665000D02*
X101473000Y-35052000D01*
X104424304Y-37307696D02*
X104749600Y-36982400D01*
X181653200Y-39573200D02*
X160020000Y-39573200D01*
X156718000Y-33375600D02*
X155718800Y-32376400D01*
X154383200Y-54205000D02*
X153555000Y-54205000D01*
X139585000Y-55805000D02*
X142155000Y-55805000D01*
X132815400Y-57225000D02*
X132791200Y-57200800D01*
X146312600Y-32376400D02*
X145161000Y-33528000D01*
X168705800Y-78233000D02*
X169621200Y-77317600D01*
X145785000Y-68416159D02*
X145785000Y-68065000D01*
X151055000Y-44730600D02*
X150723600Y-44399200D01*
X150865000Y-40995000D02*
X156509000Y-35351000D01*
X132791200Y-57200800D02*
X132791200Y-61722000D01*
X149987600Y-60680000D02*
X147167600Y-63500000D01*
X132943600Y-57225000D02*
X132943600Y-56134000D01*
X154279600Y-59791600D02*
X154990800Y-59080400D01*
X151055000Y-46105000D02*
X151055000Y-44730600D01*
X150723600Y-41136400D02*
X150865000Y-40995000D01*
X136296400Y-65125600D02*
X142392400Y-65125600D01*
X148655000Y-58458200D02*
X148655000Y-57505000D01*
X142392400Y-65125600D02*
X142392400Y-66923559D01*
X169900000Y-72745906D02*
X169900000Y-72745600D01*
X170978406Y-73192700D02*
X170346794Y-73192700D01*
X138114800Y-47294800D02*
X138165000Y-47345000D01*
X171572000Y-72599106D02*
X170978406Y-73192700D01*
X146397941Y-69029100D02*
X145785000Y-68416159D01*
X154940000Y-78233000D02*
X154940000Y-76962000D01*
X100860000Y-38725000D02*
X100860000Y-35665000D01*
X156108700Y-55930500D02*
X154383200Y-54205000D01*
X150876800Y-60680000D02*
X148655000Y-58458200D01*
X136347200Y-37185600D02*
X136906000Y-37744400D01*
X135331200Y-47294800D02*
X138114800Y-47294800D01*
X132486400Y-47650400D02*
X132486400Y-55676800D01*
X152475600Y-60680000D02*
X153162000Y-61366400D01*
X169621200Y-74319800D02*
X169900000Y-74041000D01*
X132791200Y-61722000D02*
X134467600Y-63398400D01*
X144576800Y-63500000D02*
X144221200Y-63500000D01*
X142494000Y-61554000D02*
X142255000Y-61315000D01*
X138165000Y-57225000D02*
X139585000Y-55805000D01*
X144655000Y-58915000D02*
X144655000Y-57505000D01*
X156509000Y-35351000D02*
X156718000Y-35142000D01*
X157215000Y-57036800D02*
X156108700Y-55930500D01*
X135022500Y-77470000D02*
X135022500Y-74578300D01*
X132943600Y-57225000D02*
X132815400Y-57225000D01*
X154940000Y-78233000D02*
X168705800Y-78233000D01*
X138165000Y-57225000D02*
X132943600Y-57225000D01*
%TO.N,GND*%
X164592000Y-58623200D02*
X164490400Y-58521600D01*
X142155000Y-55005000D02*
X140981400Y-55005000D01*
X136347200Y-35285600D02*
X136347200Y-33883600D01*
X157215000Y-59550000D02*
X157215000Y-60441000D01*
X154722600Y-53405000D02*
X154736800Y-53390800D01*
X161417000Y-49960000D02*
X164147000Y-49960000D01*
X151855000Y-46105000D02*
X151855000Y-44311400D01*
X101473000Y-33502000D02*
X101473000Y-32639000D01*
X150865000Y-39445000D02*
X150865000Y-38241400D01*
X138087600Y-45872400D02*
X135788400Y-45872400D01*
X157215000Y-60441000D02*
X157226000Y-60452000D01*
X140981400Y-55005000D02*
X140919200Y-55067200D01*
X97561400Y-81915000D02*
X97434400Y-82042000D01*
X136347200Y-33883600D02*
X136398000Y-33832800D01*
X164297000Y-50708200D02*
X164338000Y-50749200D01*
X159217000Y-48260000D02*
X159217000Y-46491800D01*
X151384000Y-62230000D02*
X151384000Y-63500000D01*
X145785000Y-70340000D02*
X145785000Y-69615651D01*
X139294200Y-61315000D02*
X139242800Y-61366400D01*
X150241000Y-34874200D02*
X151079200Y-35712400D01*
X135839800Y-58775000D02*
X135839200Y-58775600D01*
X105410000Y-45364400D02*
X105664000Y-45618400D01*
X175869600Y-55444400D02*
X175895000Y-55419000D01*
X121793000Y-29240000D02*
X121793000Y-28321000D01*
X150865000Y-38241400D02*
X150825200Y-38201600D01*
X138049000Y-51409000D02*
X138049000Y-50469800D01*
X170622000Y-72476400D02*
X170637200Y-72491600D01*
X160767000Y-52070000D02*
X161036000Y-52070000D01*
X154940000Y-85344000D02*
X154940000Y-84425000D01*
X164592000Y-61214000D02*
X164592000Y-58623200D01*
X147777200Y-82960300D02*
X147725000Y-83012500D01*
X147777200Y-81534000D02*
X147777200Y-82960300D01*
X175514000Y-35433000D02*
X175514000Y-36728400D01*
X100965000Y-81915000D02*
X97561400Y-81915000D01*
X138165000Y-58775000D02*
X135839800Y-58775000D01*
X161036000Y-52070000D02*
X161594800Y-52628800D01*
X175514000Y-36728400D02*
X175564800Y-36779200D01*
X150241000Y-33528000D02*
X150241000Y-34874200D01*
X162661600Y-31236400D02*
X162656000Y-31242000D01*
X151855000Y-44311400D02*
X151739600Y-44196000D01*
X174752000Y-72034400D02*
X174752000Y-71146000D01*
X142155000Y-48605000D02*
X140929800Y-48605000D01*
X102810000Y-38725000D02*
X102810000Y-37550400D01*
X121793000Y-28321000D02*
X121818400Y-28295600D01*
X151384000Y-63500000D02*
X151434800Y-63550800D01*
X170622000Y-71501000D02*
X170622000Y-72476400D01*
X145785000Y-69615651D02*
X145864942Y-69535709D01*
X172313600Y-74015600D02*
X171475400Y-74015600D01*
X164147000Y-49960000D02*
X164297000Y-49810000D01*
X153555000Y-53405000D02*
X154722600Y-53405000D01*
X105410000Y-44450000D02*
X105410000Y-45364400D01*
X171475400Y-74015600D02*
X171450000Y-74041000D01*
X147055000Y-58685000D02*
X147015200Y-58724800D01*
X175869600Y-56388000D02*
X175869600Y-55444400D01*
X138049000Y-50469800D02*
X138074400Y-50444400D01*
X147055000Y-57505000D02*
X147055000Y-58685000D01*
X140705000Y-61315000D02*
X139294200Y-61315000D01*
X140929800Y-48605000D02*
X140919200Y-48615600D01*
X101473000Y-32639000D02*
X101498400Y-32613600D01*
X159217000Y-46491800D02*
X159207200Y-46482000D01*
X138165000Y-45795000D02*
X138087600Y-45872400D01*
X164297000Y-49810000D02*
X164297000Y-50708200D01*
X162661600Y-30276800D02*
X162661600Y-31236400D01*
X167386000Y-71400000D02*
X167386000Y-72390000D01*
X116586000Y-29288500D02*
X116586000Y-28295600D01*
X102810000Y-37550400D02*
X103022400Y-37338000D01*
X157226000Y-64415000D02*
X157226000Y-65328800D01*
X167386000Y-72390000D02*
X167335200Y-72440800D01*
%TO.N,XTAL1*%
X164297000Y-48260000D02*
X165089900Y-49052900D01*
X156057600Y-51714400D02*
X155967000Y-51805000D01*
X165089900Y-49052900D02*
X165089900Y-50988806D01*
X161417000Y-48260000D02*
X164297000Y-48260000D01*
X164618306Y-51460400D02*
X162509200Y-51460400D01*
X165089900Y-50988806D02*
X164618306Y-51460400D01*
X155967000Y-51805000D02*
X153555000Y-51805000D01*
%TO.N,XTAL2*%
X157900319Y-52070000D02*
X157808819Y-52161500D01*
X155635714Y-52605000D02*
X155663746Y-52633032D01*
X153555000Y-52605000D02*
X155635714Y-52605000D01*
X159217000Y-52070000D02*
X159217000Y-49960000D01*
X159217000Y-52070000D02*
X157900319Y-52070000D01*
%TO.N,/UCAP*%
X156083000Y-62865000D02*
X152400000Y-59182000D01*
X147878800Y-59283600D02*
X147878800Y-57528800D01*
X157226000Y-62865000D02*
X156083000Y-62865000D01*
X147878800Y-57528800D02*
X147855000Y-57505000D01*
%TO.N,/AREF*%
X138049000Y-52959000D02*
X139295000Y-54205000D01*
X139295000Y-54205000D02*
X142155000Y-54205000D01*
%TO.N,+3.3V*%
X167257000Y-57674000D02*
X166862000Y-57674000D01*
X169048000Y-69850000D02*
X169672000Y-69226000D01*
X166862000Y-57674000D02*
X165862000Y-58674000D01*
X167132000Y-63754000D02*
X169672000Y-63754000D01*
X169672000Y-63754000D02*
X169672000Y-69226000D01*
X172212000Y-63754000D02*
X169672000Y-63754000D01*
X167386000Y-69850000D02*
X169048000Y-69850000D01*
%TO.N,Net-(U5-BP)*%
X174752000Y-69596000D02*
X174382000Y-69226000D01*
X174382000Y-69226000D02*
X171572000Y-69226000D01*
%TO.N,Net-(D1-A)*%
X118493300Y-33070800D02*
X129465700Y-33070800D01*
X116586000Y-31163500D02*
X118493300Y-33070800D01*
X129465700Y-33070800D02*
X130405500Y-32131000D01*
%TO.N,Net-(D2-A)*%
X124993400Y-29083000D02*
X130278500Y-29083000D01*
X121793000Y-31115000D02*
X122961400Y-31115000D01*
X122961400Y-31115000D02*
X124993400Y-29083000D01*
%TO.N,Net-(D3-A)*%
X154940000Y-82550000D02*
X154940000Y-79883000D01*
%TO.N,Net-(J2-VBUS)*%
X139297500Y-77470000D02*
X139297500Y-77785000D01*
X139297500Y-77785000D02*
X144525000Y-83012500D01*
%TO.N,MISO*%
X142087600Y-35245100D02*
X144678400Y-37835900D01*
X151855000Y-57505000D02*
X151855000Y-55547592D01*
X151855000Y-55547592D02*
X151194928Y-54887520D01*
X148082000Y-55321200D02*
X148573465Y-54829735D01*
X142087600Y-33008200D02*
X142087600Y-35245100D01*
X144107800Y-30988000D02*
X142087600Y-33008200D01*
X148573465Y-54829735D02*
X148573465Y-47556399D01*
X148573465Y-47556399D02*
X148652420Y-47477444D01*
X145161000Y-30988000D02*
X144107800Y-30988000D01*
%TO.N,SCK*%
X149098000Y-48333740D02*
X149578644Y-47853096D01*
X150255000Y-56453706D02*
X149098000Y-55296706D01*
X147701000Y-30988000D02*
X147701000Y-28829000D01*
X149098000Y-55296706D02*
X149098000Y-48333740D01*
X147421600Y-28549600D02*
X142697200Y-28549600D01*
X150255000Y-57505000D02*
X150255000Y-56453706D01*
X142697200Y-28549600D02*
X142544800Y-28397200D01*
X147701000Y-28829000D02*
X147421600Y-28549600D01*
%TO.N,MOSI*%
X147701000Y-36601400D02*
X147701000Y-33528000D01*
X151055000Y-57505000D02*
X151055000Y-56160600D01*
X147726400Y-36626800D02*
X147701000Y-36601400D01*
X151055000Y-56160600D02*
X150418800Y-55524400D01*
X146761200Y-48126050D02*
X146307022Y-47671872D01*
X146558000Y-40436800D02*
X146558000Y-37795200D01*
X146558000Y-37795200D02*
X147726400Y-36626800D01*
X146761200Y-55626000D02*
X146761200Y-48126050D01*
%TO.N,RST*%
X155980400Y-30988000D02*
X150241000Y-30988000D01*
X152593100Y-43927606D02*
X152593100Y-42123300D01*
X152503400Y-54906600D02*
X152503400Y-44017306D01*
X152593100Y-42123300D02*
X159854400Y-34862000D01*
X152503400Y-44017306D02*
X152593100Y-43927606D01*
X159934400Y-34942000D02*
X159854400Y-34862000D01*
X152601800Y-55005000D02*
X152503400Y-54906600D01*
X162656000Y-34942000D02*
X159934400Y-34942000D01*
X156718000Y-31725600D02*
X155980400Y-30988000D01*
X153555000Y-55005000D02*
X152601800Y-55005000D01*
X159854400Y-34862000D02*
X156718000Y-31725600D01*
%TO.N,Net-(J2-D-)*%
X145325000Y-77632500D02*
X144515000Y-76822500D01*
X145325000Y-83012500D02*
X145325000Y-77632500D01*
%TO.N,Net-(J2-D+)*%
X146125000Y-83012500D02*
X146125000Y-77752500D01*
X146125000Y-77752500D02*
X147055000Y-76822500D01*
%TO.N,TX*%
X157683200Y-49174400D02*
X157530800Y-49326800D01*
X162204400Y-63754000D02*
X162153600Y-63804800D01*
X162356800Y-45669200D02*
X158750000Y-45669200D01*
X162153600Y-55473600D02*
X163017200Y-54610000D01*
X157530800Y-49326800D02*
X157530800Y-49530000D01*
X162153600Y-63804800D02*
X162153600Y-55473600D01*
X164592000Y-63754000D02*
X162204400Y-63754000D01*
X157530800Y-49530000D02*
X157480000Y-49580800D01*
X164388800Y-45669200D02*
X162356800Y-45669200D01*
X166725600Y-48006000D02*
X164388800Y-45669200D01*
X158750000Y-45669200D02*
X157683200Y-46736000D01*
X157683200Y-46736000D02*
X157683200Y-49174400D01*
X166725600Y-51003200D02*
X166725600Y-48006000D01*
X164846000Y-52882800D02*
X166725600Y-51003200D01*
X155854400Y-49479200D02*
X155780200Y-49405000D01*
X155780200Y-49405000D02*
X153555000Y-49405000D01*
%TO.N,Net-(J3-Pin_5)*%
X169672000Y-58439000D02*
X169672000Y-61214000D01*
X168907000Y-57674000D02*
X169672000Y-58439000D01*
%TO.N,RX*%
X172212000Y-54660800D02*
X172008800Y-54457600D01*
X171958000Y-52527200D02*
X164541200Y-45110400D01*
X172212000Y-61214000D02*
X172212000Y-54660800D01*
X164541200Y-45110400D02*
X157632400Y-45110400D01*
X155752800Y-45008800D02*
X155752800Y-47235400D01*
X154383200Y-48605000D02*
X153555000Y-48605000D01*
X155752800Y-47235400D02*
X154383200Y-48605000D01*
%TO.N,Buzzer*%
X130657600Y-44297600D02*
X134061200Y-40894000D01*
X119964200Y-81915000D02*
X119989600Y-81940400D01*
X120091200Y-53086000D02*
X120091200Y-70815200D01*
X108565000Y-81915000D02*
X119964200Y-81915000D01*
X134061200Y-40894000D02*
X134112000Y-40894000D01*
X130657600Y-44297600D02*
X128879600Y-44297600D01*
X137617200Y-40843200D02*
X144536705Y-40843200D01*
X128879600Y-44297600D02*
X120091200Y-53086000D01*
X148655000Y-44961495D02*
X148655000Y-46105000D01*
X144536705Y-40843200D02*
X148655000Y-44961495D01*
%TO.N,Button_1*%
X175514000Y-33608000D02*
X171682400Y-37439600D01*
X171682400Y-37439600D02*
X160274000Y-37439600D01*
X160274000Y-37439600D02*
X156718000Y-40995600D01*
X175514000Y-33608000D02*
X177372000Y-31750000D01*
X156718000Y-50190400D02*
X156703400Y-50205000D01*
X156703400Y-50205000D02*
X153555000Y-50205000D01*
X177372000Y-31750000D02*
X182880000Y-31750000D01*
X156718000Y-40995600D02*
X156718000Y-50190400D01*
%TO.N,Button_2*%
X156819600Y-53340000D02*
X156819600Y-51308000D01*
X156819600Y-51308000D02*
X156516600Y-51005000D01*
X156516600Y-51005000D02*
X153555000Y-51005000D01*
X182880000Y-52070000D02*
X177419000Y-52070000D01*
X175895000Y-53594000D02*
X157073600Y-53594000D01*
X177419000Y-52070000D02*
X175895000Y-53594000D01*
X157073600Y-53594000D02*
X156819600Y-53340000D01*
%TO.N,RED_LED*%
X144830800Y-44246800D02*
X145455000Y-44871000D01*
X132230500Y-32131000D02*
X132230500Y-37437700D01*
X137414000Y-44246800D02*
X144830800Y-44246800D01*
X145455000Y-44871000D02*
X145455000Y-46105000D01*
X132230500Y-37437700D02*
X137414000Y-42621200D01*
%TO.N,GREEN_LED*%
X134212694Y-29083000D02*
X150255000Y-45125306D01*
X132103500Y-29083000D02*
X134212694Y-29083000D01*
X150255000Y-45125306D02*
X150255000Y-46105000D01*
%TO.N,a*%
X104140000Y-52070000D02*
X104140000Y-50800000D01*
X101510000Y-41339600D02*
X101510000Y-38725000D01*
X97129600Y-45720000D02*
X101510000Y-41339600D01*
X104140000Y-50800000D02*
X105054400Y-49885600D01*
%TO.N,Net-(U1-a)*%
X104140000Y-53895000D02*
X104695000Y-53895000D01*
X104695000Y-53895000D02*
X114300000Y-63500000D01*
%TO.N,b*%
X100860000Y-44450000D02*
X100860000Y-43794552D01*
X102602252Y-42052300D02*
X106730800Y-42052300D01*
X106680000Y-44805600D02*
X106730800Y-44754800D01*
X100860000Y-43794552D02*
X102602252Y-42052300D01*
X106680000Y-52070000D02*
X106680000Y-44805600D01*
%TO.N,Net-(U1-b)*%
X107950000Y-55930800D02*
X107950000Y-55165000D01*
X107950000Y-55165000D02*
X106680000Y-53895000D01*
X114300000Y-53340000D02*
X111861600Y-55778400D01*
X111861600Y-55778400D02*
X110388400Y-55778400D01*
%TO.N,c*%
X101549200Y-46228000D02*
X101510000Y-46188800D01*
X101510000Y-46188800D02*
X101510000Y-44450000D01*
X94640400Y-62890400D02*
X94640400Y-50088800D01*
X101600000Y-69850000D02*
X94640400Y-62890400D01*
X94640400Y-50088800D02*
X98399600Y-46329600D01*
X98399600Y-46329600D02*
X101447600Y-46329600D01*
X101447600Y-46329600D02*
X101549200Y-46228000D01*
%TO.N,Net-(U1-c)*%
X108868200Y-78943200D02*
X101600000Y-71675000D01*
X129540000Y-58420000D02*
X126796800Y-61163200D01*
X126796800Y-61163200D02*
X126796800Y-78943200D01*
X126796800Y-78943200D02*
X108868200Y-78943200D01*
%TO.N,d*%
X106680000Y-69850000D02*
X97840800Y-61010800D01*
X102209600Y-44499600D02*
X102160000Y-44450000D01*
X100105613Y-48128787D02*
X102016500Y-48128787D01*
X102209600Y-46482000D02*
X102209600Y-44499600D01*
X97840800Y-50393600D02*
X100105613Y-48128787D01*
X97840800Y-61010800D02*
X97840800Y-50393600D01*
%TO.N,Net-(U1-d)*%
X124053600Y-63500000D02*
X124002800Y-63449200D01*
X122682000Y-76200000D02*
X123901200Y-76200000D01*
X123901200Y-76200000D02*
X124053600Y-76047600D01*
X129438400Y-63601600D02*
X129540000Y-63500000D01*
X127762000Y-63601600D02*
X129438400Y-63601600D01*
X124053600Y-76047600D02*
X124053600Y-63500000D01*
X111205000Y-76200000D02*
X122682000Y-76200000D01*
X106680000Y-71675000D02*
X111205000Y-76200000D01*
%TO.N,e*%
X99110800Y-59740800D02*
X99110800Y-50444400D01*
X102810000Y-46039607D02*
X103265865Y-46495472D01*
X102717600Y-49184500D02*
X100370700Y-49184500D01*
X99110800Y-50444400D02*
X100370700Y-49184500D01*
X109220000Y-69850000D02*
X99110800Y-59740800D01*
X102810000Y-44450000D02*
X102810000Y-46039607D01*
%TO.N,Net-(U1-e)*%
X109220000Y-71675000D02*
X112170200Y-74625200D01*
X122936000Y-74625200D02*
X122936000Y-66040000D01*
X127863600Y-65989200D02*
X129489200Y-65989200D01*
X129489200Y-65989200D02*
X129540000Y-66040000D01*
X112170200Y-74625200D02*
X122936000Y-74625200D01*
%TO.N,f*%
X109220000Y-52070000D02*
X109220000Y-46075600D01*
X105918000Y-42773600D02*
X103581200Y-42773600D01*
X103581200Y-42773600D02*
X103581200Y-44328800D01*
X103581200Y-44328800D02*
X103460000Y-44450000D01*
X109220000Y-46075600D02*
X105918000Y-42773600D01*
%TO.N,Net-(U1-f)*%
X109220000Y-55880000D02*
X114300000Y-60960000D01*
X109220000Y-53895000D02*
X109220000Y-55880000D01*
%TO.N,g*%
X104241600Y-49428400D02*
X104241600Y-48310800D01*
X101600000Y-52070000D02*
X104241600Y-49428400D01*
X104241600Y-46278800D02*
X104241600Y-44581600D01*
X104241600Y-44581600D02*
X104110000Y-44450000D01*
%TO.N,Net-(U1-g)*%
X126034800Y-55981600D02*
X126136400Y-55880000D01*
X101600000Y-53895000D02*
X101600000Y-56184800D01*
X126136400Y-55880000D02*
X129540000Y-55880000D01*
%TO.N,dp*%
X96113600Y-61823600D02*
X104140000Y-69850000D01*
X105044300Y-46695300D02*
X104543028Y-47196572D01*
X105044300Y-46039194D02*
X105044300Y-46695300D01*
X99412228Y-47196572D02*
X96113600Y-50495200D01*
X96113600Y-50495200D02*
X96113600Y-61823600D01*
X104760000Y-44450000D02*
X104760000Y-45754894D01*
X104543028Y-47196572D02*
X99412228Y-47196572D01*
X104760000Y-45754894D02*
X105044300Y-46039194D01*
%TO.N,Net-(U1-DPX)*%
X109884200Y-77419200D02*
X125222000Y-77419200D01*
X104140000Y-71675000D02*
X109884200Y-77419200D01*
X128117600Y-61061600D02*
X129438400Y-61061600D01*
X125222000Y-61163200D02*
X125323600Y-61061600D01*
X129438400Y-61061600D02*
X129540000Y-60960000D01*
X125222000Y-77419200D02*
X125222000Y-61163200D01*
%TO.N,USB_CONN_D+*%
X147055000Y-75172500D02*
X146010000Y-74127500D01*
X146010000Y-71742500D02*
X146735000Y-71017500D01*
X146735000Y-71017500D02*
X146735000Y-70340000D01*
X146010000Y-74127500D02*
X146010000Y-71742500D01*
%TO.N,USB_CONN_D-*%
X145560000Y-71742500D02*
X144835000Y-71017500D01*
X144835000Y-71017500D02*
X144835000Y-70340000D01*
X144515000Y-75172500D02*
X145560000Y-74127500D01*
X145560000Y-74127500D02*
X145560000Y-71742500D01*
%TO.N,Dig4*%
X145836094Y-43484800D02*
X146255000Y-43903706D01*
X146255000Y-43903706D02*
X146255000Y-46105000D01*
X129540000Y-46634400D02*
X132689600Y-43484800D01*
X132689600Y-43484800D02*
X145836094Y-43484800D01*
X129540000Y-53340000D02*
X129540000Y-46634400D01*
%TO.N,Dig3*%
X151484848Y-54185934D02*
X151484848Y-53288448D01*
X153555000Y-55805000D02*
X152681914Y-55805000D01*
X151896028Y-54597114D02*
X151484848Y-54185934D01*
X151484848Y-53288448D02*
X151079200Y-52882800D01*
X114706400Y-55880000D02*
X116128800Y-54457600D01*
X114300000Y-55880000D02*
X114706400Y-55880000D01*
X151896028Y-55019114D02*
X151896028Y-54597114D01*
X152681914Y-55805000D02*
X151896028Y-55019114D01*
%TO.N,Dig2*%
X149845405Y-47156600D02*
X149941696Y-47156600D01*
X149941696Y-47156600D02*
X150353900Y-47568804D01*
X114300000Y-58420000D02*
X118719600Y-54000400D01*
X118719600Y-54000400D02*
X118719600Y-53695600D01*
X150353900Y-47568804D02*
X150353900Y-49395459D01*
X149455000Y-46766195D02*
X149845405Y-47156600D01*
X149455000Y-46105000D02*
X149455000Y-46766195D01*
%TO.N,Dig1*%
X114249200Y-69799200D02*
X114300000Y-69748400D01*
X130297000Y-69291200D02*
X128473200Y-69291200D01*
X114300000Y-69748400D02*
X114300000Y-66040000D01*
X144655000Y-54933200D02*
X130297000Y-69291200D01*
X144655000Y-46105000D02*
X144655000Y-54933200D01*
%TO.N,SH_CP*%
X104413158Y-39764100D02*
X129324500Y-39764100D01*
X143855000Y-57505000D02*
X143074707Y-57505000D01*
X104110000Y-39460942D02*
X104413158Y-39764100D01*
X104110000Y-38725000D02*
X104110000Y-39460942D01*
X129324500Y-39764100D02*
X130860800Y-41300400D01*
X143074707Y-57505000D02*
X141474078Y-59105629D01*
X133248400Y-53340000D02*
X133807200Y-52781200D01*
X133807200Y-52781200D02*
X133807200Y-44246800D01*
%TO.N,ST_CP*%
X147726400Y-47853600D02*
X147726400Y-46233600D01*
X127762000Y-41351200D02*
X129235200Y-42824400D01*
X105430752Y-41351200D02*
X126847600Y-41351200D01*
X147726400Y-46233600D02*
X147855000Y-46105000D01*
X103460000Y-39380448D02*
X105430752Y-41351200D01*
X126847600Y-41351200D02*
X127762000Y-41351200D01*
X103460000Y-38725000D02*
X103460000Y-39380448D01*
%TO.N,DS*%
X101600000Y-36880800D02*
X102160000Y-37440800D01*
X144780000Y-41656000D02*
X139598400Y-41656000D01*
X102160000Y-37440800D02*
X102160000Y-38725000D01*
X139598400Y-41656000D02*
X139395200Y-41859200D01*
X147055000Y-46105000D02*
X147055000Y-43931000D01*
X126187200Y-38811200D02*
X108000800Y-38811200D01*
X108000800Y-38811200D02*
X104851200Y-35661600D01*
X147055000Y-43931000D02*
X144780000Y-41656000D01*
%TO.N,USB_D-*%
X145448604Y-67102500D02*
X145560000Y-67102500D01*
X145185000Y-67366104D02*
X145448604Y-67102500D01*
X145560000Y-67102500D02*
X145560000Y-58627753D01*
X145560000Y-58627753D02*
X145455000Y-58522753D01*
X145455000Y-58522753D02*
X145455000Y-57505000D01*
X145185000Y-67715000D02*
X145185000Y-67366104D01*
X144835000Y-68065000D02*
X145185000Y-67715000D01*
%TO.N,USB_D+*%
X146121396Y-67102500D02*
X146010000Y-67102500D01*
X146385000Y-67366104D02*
X146121396Y-67102500D01*
X146735000Y-68065000D02*
X146385000Y-67715000D01*
X146010000Y-67102500D02*
X146010000Y-58627753D01*
X146255000Y-58382753D02*
X146255000Y-57505000D01*
X146385000Y-67715000D02*
X146385000Y-67366104D01*
X146010000Y-58627753D02*
X146255000Y-58382753D01*
%TD*%
M02*
