M48
; DRILL file {KiCad (7.0.0)} date Thu Apr 20 13:48:56 2023
; FORMAT={-:-/ absolute / metric / decimal}
; #@! TF.CreationDate,2023-04-20T13:48:56-06:00
; #@! TF.GenerationSoftware,Kicad,Pcbnew,(7.0.0)
; #@! TF.FileFunction,Plated,1,2,PTH
FMAT,2
METRIC
; #@! TA.AperFunction,Plated,PTH,ViaDrill
T1C0.400
; #@! TA.AperFunction,Plated,PTH,ComponentDrill
T2C1.000
; #@! TA.AperFunction,Plated,PTH,ComponentDrill
T3C3.000
%
G90
G05
T1
X97.13Y-45.72
X97.434Y-82.042
X101.498Y-32.614
X101.6Y-36.881
X101.6Y-56.185
X102.016Y-48.129
X102.21Y-46.482
X102.718Y-49.184
X103.022Y-37.338
X103.266Y-46.495
X104.242Y-46.279
X104.242Y-48.311
X104.851Y-35.662
X105.004Y-36.982
X105.054Y-49.886
X105.664Y-45.618
X106.731Y-42.052
X106.731Y-44.755
X107.95Y-55.931
X110.388Y-55.778
X114.249Y-69.799
X116.129Y-54.458
X116.586Y-28.296
X118.72Y-53.696
X119.99Y-81.94
X120.091Y-70.815
X121.818Y-28.296
X122.936Y-66.04
X124.003Y-63.449
X125.324Y-61.062
X126.035Y-55.982
X126.187Y-38.811
X127.762Y-63.602
X127.864Y-65.989
X128.118Y-61.062
X128.473Y-69.291
X129.235Y-42.824
X130.658Y-47.6
X130.861Y-41.3
X132.69Y-45.009
X133.248Y-53.34
X133.807Y-44.247
X134.112Y-40.894
X134.468Y-63.398
X135.331Y-47.295
X135.788Y-45.872
X135.839Y-58.776
X136.296Y-65.126
X136.398Y-33.833
X137.414Y-42.621
X137.414Y-44.247
X137.617Y-40.843
X138.074Y-50.444
X139.243Y-61.366
X139.395Y-41.859
X140.665Y-37.744
X140.919Y-48.616
X140.919Y-55.067
X141.474Y-59.106
X142.545Y-28.397
X142.9Y-45.72
X144.577Y-63.5
X144.678Y-37.836
X145.865Y-69.536
X145.999Y-37.135
X146.307Y-47.672
X146.558Y-40.437
X146.761Y-55.626
X147.015Y-58.725
X147.168Y-63.5
X147.726Y-47.854
X147.777Y-81.534
X147.879Y-59.284
X148.082Y-55.321
X148.652Y-47.477
X149.579Y-47.853
X150.354Y-49.395
X150.419Y-55.524
X150.825Y-38.202
X151.079Y-35.712
X151.079Y-52.883
X151.195Y-54.888
X151.435Y-63.551
X151.587Y-51.562
X151.74Y-44.196
X152.4Y-59.182
X153.162Y-61.366
X154.28Y-59.792
X154.737Y-53.391
X154.94Y-85.344
X155.245Y-56.388
X155.664Y-52.633
X155.753Y-45.009
X155.854Y-49.479
X156.058Y-51.714
X156.82Y-36.474
X157.226Y-60.452
X157.226Y-65.329
X157.48Y-49.581
X157.632Y-45.11
X157.809Y-52.161
X159.207Y-46.482
X160.02Y-39.573
X161.595Y-52.629
X162.509Y-51.46
X162.662Y-30.277
X163.017Y-54.61
X164.338Y-50.749
X164.49Y-58.522
X164.846Y-52.883
X165.862Y-58.674
X167.335Y-72.441
X170.637Y-72.492
X171.958Y-52.527
X172.009Y-54.458
X172.314Y-74.016
X174.752Y-72.034
X175.565Y-36.779
X175.87Y-56.388
T2
X100.965Y-81.915
X108.565Y-81.915
X114.3Y-53.34
X114.3Y-55.88
X114.3Y-58.42
X114.3Y-60.96
X114.3Y-63.5
X114.3Y-66.04
X129.54Y-53.34
X129.54Y-55.88
X129.54Y-58.42
X129.54Y-60.96
X129.54Y-63.5
X129.54Y-66.04
X145.161Y-30.988
X145.161Y-33.528
X147.701Y-30.988
X147.701Y-33.528
X150.241Y-30.988
X150.241Y-33.528
X164.592Y-61.214
X164.592Y-63.754
X167.132Y-61.214
X167.132Y-63.754
X169.672Y-61.214
X169.672Y-63.754
X172.212Y-61.214
X172.212Y-63.754
T3
X108.458Y-30.277
X173.685Y-45.314
X175.768Y-83.109
T0
M30
